G04 #@! TF.GenerationSoftware,KiCad,Pcbnew,5.1.9-73d0e3b20d~88~ubuntu20.04.1*
G04 #@! TF.CreationDate,2021-03-27T21:05:45+01:00*
G04 #@! TF.ProjectId,RGB_strip,5247425f-7374-4726-9970-2e6b69636164,rev?*
G04 #@! TF.SameCoordinates,Original*
G04 #@! TF.FileFunction,Paste,Bot*
G04 #@! TF.FilePolarity,Positive*
%FSLAX46Y46*%
G04 Gerber Fmt 4.6, Leading zero omitted, Abs format (unit mm)*
G04 Created by KiCad (PCBNEW 5.1.9-73d0e3b20d~88~ubuntu20.04.1) date 2021-03-27 21:05:45*
%MOMM*%
%LPD*%
G01*
G04 APERTURE LIST*
%ADD10R,0.900000X0.800000*%
%ADD11R,1.200000X2.200000*%
%ADD12R,2.750000X3.050000*%
G04 APERTURE END LIST*
G36*
G01*
X121541250Y-94392000D02*
X121028750Y-94392000D01*
G75*
G02*
X120810000Y-94173250I0J218750D01*
G01*
X120810000Y-93735750D01*
G75*
G02*
X121028750Y-93517000I218750J0D01*
G01*
X121541250Y-93517000D01*
G75*
G02*
X121760000Y-93735750I0J-218750D01*
G01*
X121760000Y-94173250D01*
G75*
G02*
X121541250Y-94392000I-218750J0D01*
G01*
G37*
G36*
G01*
X121541250Y-95967000D02*
X121028750Y-95967000D01*
G75*
G02*
X120810000Y-95748250I0J218750D01*
G01*
X120810000Y-95310750D01*
G75*
G02*
X121028750Y-95092000I218750J0D01*
G01*
X121541250Y-95092000D01*
G75*
G02*
X121760000Y-95310750I0J-218750D01*
G01*
X121760000Y-95748250D01*
G75*
G02*
X121541250Y-95967000I-218750J0D01*
G01*
G37*
G36*
G01*
X126113250Y-95967000D02*
X125600750Y-95967000D01*
G75*
G02*
X125382000Y-95748250I0J218750D01*
G01*
X125382000Y-95310750D01*
G75*
G02*
X125600750Y-95092000I218750J0D01*
G01*
X126113250Y-95092000D01*
G75*
G02*
X126332000Y-95310750I0J-218750D01*
G01*
X126332000Y-95748250D01*
G75*
G02*
X126113250Y-95967000I-218750J0D01*
G01*
G37*
G36*
G01*
X126113250Y-94392000D02*
X125600750Y-94392000D01*
G75*
G02*
X125382000Y-94173250I0J218750D01*
G01*
X125382000Y-93735750D01*
G75*
G02*
X125600750Y-93517000I218750J0D01*
G01*
X126113250Y-93517000D01*
G75*
G02*
X126332000Y-93735750I0J-218750D01*
G01*
X126332000Y-94173250D01*
G75*
G02*
X126113250Y-94392000I-218750J0D01*
G01*
G37*
D10*
X116951000Y-93030000D03*
X116951000Y-94930000D03*
X114951000Y-93980000D03*
X116951000Y-97094000D03*
X116951000Y-98994000D03*
X114951000Y-98044000D03*
X114951000Y-102108000D03*
X116951000Y-103058000D03*
X116951000Y-101158000D03*
X114951000Y-106172000D03*
X116951000Y-107122000D03*
X116951000Y-105222000D03*
D11*
X121291000Y-98162000D03*
X125851000Y-98162000D03*
D12*
X125096000Y-106137000D03*
X122046000Y-102787000D03*
X122046000Y-106137000D03*
X125096000Y-102787000D03*
M02*
