M48
; DRILL file {KiCad 5.1.9-73d0e3b20d~88~ubuntu20.04.1} date Sat Mar 27 21:05:47 2021
; FORMAT={-:-/ absolute / metric / decimal}
; #@! TF.CreationDate,2021-03-27T21:05:47+01:00
; #@! TF.GenerationSoftware,Kicad,Pcbnew,5.1.9-73d0e3b20d~88~ubuntu20.04.1
; #@! TF.FileFunction,Plated,1,2,PTH
FMAT,2
METRIC
T1C0.300
T2C0.800
T3C1.000
T4C1.200
%
G90
G05
T1
X114.173Y-103.124
X115.697Y-92.964
X116.078Y-100.076
X117.983Y-96.52
X117.983Y-101.854
X118.11Y-93.489
X118.745Y-92.583
X123.444Y-98.171
X124.714Y-92.837
X125.603Y-92.837
X133.223Y-90.043
T3
X105.283Y-88.138
X105.283Y-90.678
X105.283Y-93.218
X107.823Y-88.138
X107.823Y-90.678
X107.823Y-93.218
T4
X106.553Y-98.171
X106.553Y-100.711
X106.553Y-103.251
X106.553Y-105.791
X106.553Y-108.331
T2
G00X133.066Y-96.52
M15
G01X135.666Y-96.52
M16
G05
G00X133.266Y-102.32
M15
G01X135.466Y-102.32
M16
G05
G00X139.166Y-100.62
M15
G01X139.166Y-98.42
M16
G05
T0
M30
