G04 #@! TF.GenerationSoftware,KiCad,Pcbnew,5.1.9-73d0e3b20d~88~ubuntu20.04.1*
G04 #@! TF.CreationDate,2021-03-27T21:05:45+01:00*
G04 #@! TF.ProjectId,RGB_strip,5247425f-7374-4726-9970-2e6b69636164,rev?*
G04 #@! TF.SameCoordinates,Original*
G04 #@! TF.FileFunction,Copper,L1,Top*
G04 #@! TF.FilePolarity,Positive*
%FSLAX46Y46*%
G04 Gerber Fmt 4.6, Leading zero omitted, Abs format (unit mm)*
G04 Created by KiCad (PCBNEW 5.1.9-73d0e3b20d~88~ubuntu20.04.1) date 2021-03-27 21:05:45*
%MOMM*%
%LPD*%
G01*
G04 APERTURE LIST*
G04 #@! TA.AperFunction,SMDPad,CuDef*
%ADD10R,0.850000X0.550000*%
G04 #@! TD*
G04 #@! TA.AperFunction,ComponentPad*
%ADD11O,1.700000X1.700000*%
G04 #@! TD*
G04 #@! TA.AperFunction,ComponentPad*
%ADD12R,1.700000X1.700000*%
G04 #@! TD*
G04 #@! TA.AperFunction,ComponentPad*
%ADD13O,1.800000X4.000000*%
G04 #@! TD*
G04 #@! TA.AperFunction,ComponentPad*
%ADD14O,4.000000X1.800000*%
G04 #@! TD*
G04 #@! TA.AperFunction,ComponentPad*
%ADD15R,4.400000X1.800000*%
G04 #@! TD*
G04 #@! TA.AperFunction,ComponentPad*
%ADD16O,2.200000X1.740000*%
G04 #@! TD*
G04 #@! TA.AperFunction,SMDPad,CuDef*
%ADD17R,1.500000X1.500000*%
G04 #@! TD*
G04 #@! TA.AperFunction,SMDPad,CuDef*
%ADD18R,2.500000X1.000000*%
G04 #@! TD*
G04 #@! TA.AperFunction,SMDPad,CuDef*
%ADD19R,1.000000X1.800000*%
G04 #@! TD*
G04 #@! TA.AperFunction,ViaPad*
%ADD20C,0.600000*%
G04 #@! TD*
G04 #@! TA.AperFunction,Conductor*
%ADD21C,0.250000*%
G04 #@! TD*
G04 #@! TA.AperFunction,Conductor*
%ADD22C,0.500000*%
G04 #@! TD*
G04 #@! TA.AperFunction,Conductor*
%ADD23C,1.000000*%
G04 #@! TD*
G04 #@! TA.AperFunction,Conductor*
%ADD24C,0.254000*%
G04 #@! TD*
G04 #@! TA.AperFunction,Conductor*
%ADD25C,0.100000*%
G04 #@! TD*
G04 APERTURE END LIST*
D10*
X137359000Y-92782000D03*
X139109000Y-92782000D03*
X137359000Y-93832000D03*
X139109000Y-93832000D03*
D11*
X105283000Y-88138000D03*
X107823000Y-88138000D03*
X105283000Y-90678000D03*
X107823000Y-90678000D03*
X105283000Y-93218000D03*
D12*
X107823000Y-93218000D03*
D13*
X139166000Y-99520000D03*
D14*
X134366000Y-102320000D03*
D15*
X134366000Y-96520000D03*
G04 #@! TA.AperFunction,ComponentPad*
G36*
G01*
X105702999Y-97301000D02*
X107403001Y-97301000D01*
G75*
G02*
X107653000Y-97550999I0J-249999D01*
G01*
X107653000Y-98791001D01*
G75*
G02*
X107403001Y-99041000I-249999J0D01*
G01*
X105702999Y-99041000D01*
G75*
G02*
X105453000Y-98791001I0J249999D01*
G01*
X105453000Y-97550999D01*
G75*
G02*
X105702999Y-97301000I249999J0D01*
G01*
G37*
G04 #@! TD.AperFunction*
D16*
X106553000Y-100711000D03*
X106553000Y-103251000D03*
X106553000Y-105791000D03*
X106553000Y-108331000D03*
G04 #@! TA.AperFunction,SMDPad,CuDef*
G36*
G01*
X132464000Y-91583500D02*
X132464000Y-92058500D01*
G75*
G02*
X132226500Y-92296000I-237500J0D01*
G01*
X131651500Y-92296000D01*
G75*
G02*
X131414000Y-92058500I0J237500D01*
G01*
X131414000Y-91583500D01*
G75*
G02*
X131651500Y-91346000I237500J0D01*
G01*
X132226500Y-91346000D01*
G75*
G02*
X132464000Y-91583500I0J-237500D01*
G01*
G37*
G04 #@! TD.AperFunction*
G04 #@! TA.AperFunction,SMDPad,CuDef*
G36*
G01*
X130714000Y-91583500D02*
X130714000Y-92058500D01*
G75*
G02*
X130476500Y-92296000I-237500J0D01*
G01*
X129901500Y-92296000D01*
G75*
G02*
X129664000Y-92058500I0J237500D01*
G01*
X129664000Y-91583500D01*
G75*
G02*
X129901500Y-91346000I237500J0D01*
G01*
X130476500Y-91346000D01*
G75*
G02*
X130714000Y-91583500I0J-237500D01*
G01*
G37*
G04 #@! TD.AperFunction*
G04 #@! TA.AperFunction,SMDPad,CuDef*
G36*
G01*
X130714000Y-93361500D02*
X130714000Y-93836500D01*
G75*
G02*
X130476500Y-94074000I-237500J0D01*
G01*
X129901500Y-94074000D01*
G75*
G02*
X129664000Y-93836500I0J237500D01*
G01*
X129664000Y-93361500D01*
G75*
G02*
X129901500Y-93124000I237500J0D01*
G01*
X130476500Y-93124000D01*
G75*
G02*
X130714000Y-93361500I0J-237500D01*
G01*
G37*
G04 #@! TD.AperFunction*
G04 #@! TA.AperFunction,SMDPad,CuDef*
G36*
G01*
X132464000Y-93361500D02*
X132464000Y-93836500D01*
G75*
G02*
X132226500Y-94074000I-237500J0D01*
G01*
X131651500Y-94074000D01*
G75*
G02*
X131414000Y-93836500I0J237500D01*
G01*
X131414000Y-93361500D01*
G75*
G02*
X131651500Y-93124000I237500J0D01*
G01*
X132226500Y-93124000D01*
G75*
G02*
X132464000Y-93361500I0J-237500D01*
G01*
G37*
G04 #@! TD.AperFunction*
G04 #@! TA.AperFunction,SMDPad,CuDef*
G36*
G01*
X132464000Y-89805500D02*
X132464000Y-90280500D01*
G75*
G02*
X132226500Y-90518000I-237500J0D01*
G01*
X131651500Y-90518000D01*
G75*
G02*
X131414000Y-90280500I0J237500D01*
G01*
X131414000Y-89805500D01*
G75*
G02*
X131651500Y-89568000I237500J0D01*
G01*
X132226500Y-89568000D01*
G75*
G02*
X132464000Y-89805500I0J-237500D01*
G01*
G37*
G04 #@! TD.AperFunction*
G04 #@! TA.AperFunction,SMDPad,CuDef*
G36*
G01*
X130714000Y-89805500D02*
X130714000Y-90280500D01*
G75*
G02*
X130476500Y-90518000I-237500J0D01*
G01*
X129901500Y-90518000D01*
G75*
G02*
X129664000Y-90280500I0J237500D01*
G01*
X129664000Y-89805500D01*
G75*
G02*
X129901500Y-89568000I237500J0D01*
G01*
X130476500Y-89568000D01*
G75*
G02*
X130714000Y-89805500I0J-237500D01*
G01*
G37*
G04 #@! TD.AperFunction*
G04 #@! TA.AperFunction,SMDPad,CuDef*
G36*
G01*
X133347000Y-92058500D02*
X133347000Y-91583500D01*
G75*
G02*
X133584500Y-91346000I237500J0D01*
G01*
X134159500Y-91346000D01*
G75*
G02*
X134397000Y-91583500I0J-237500D01*
G01*
X134397000Y-92058500D01*
G75*
G02*
X134159500Y-92296000I-237500J0D01*
G01*
X133584500Y-92296000D01*
G75*
G02*
X133347000Y-92058500I0J237500D01*
G01*
G37*
G04 #@! TD.AperFunction*
G04 #@! TA.AperFunction,SMDPad,CuDef*
G36*
G01*
X135097000Y-92058500D02*
X135097000Y-91583500D01*
G75*
G02*
X135334500Y-91346000I237500J0D01*
G01*
X135909500Y-91346000D01*
G75*
G02*
X136147000Y-91583500I0J-237500D01*
G01*
X136147000Y-92058500D01*
G75*
G02*
X135909500Y-92296000I-237500J0D01*
G01*
X135334500Y-92296000D01*
G75*
G02*
X135097000Y-92058500I0J237500D01*
G01*
G37*
G04 #@! TD.AperFunction*
G04 #@! TA.AperFunction,SMDPad,CuDef*
G36*
G01*
X135097000Y-93836500D02*
X135097000Y-93361500D01*
G75*
G02*
X135334500Y-93124000I237500J0D01*
G01*
X135909500Y-93124000D01*
G75*
G02*
X136147000Y-93361500I0J-237500D01*
G01*
X136147000Y-93836500D01*
G75*
G02*
X135909500Y-94074000I-237500J0D01*
G01*
X135334500Y-94074000D01*
G75*
G02*
X135097000Y-93836500I0J237500D01*
G01*
G37*
G04 #@! TD.AperFunction*
G04 #@! TA.AperFunction,SMDPad,CuDef*
G36*
G01*
X133347000Y-93836500D02*
X133347000Y-93361500D01*
G75*
G02*
X133584500Y-93124000I237500J0D01*
G01*
X134159500Y-93124000D01*
G75*
G02*
X134397000Y-93361500I0J-237500D01*
G01*
X134397000Y-93836500D01*
G75*
G02*
X134159500Y-94074000I-237500J0D01*
G01*
X133584500Y-94074000D01*
G75*
G02*
X133347000Y-93836500I0J237500D01*
G01*
G37*
G04 #@! TD.AperFunction*
D17*
X130212000Y-86868000D03*
X138012000Y-86868000D03*
D18*
X112161000Y-93528000D03*
X112161000Y-95528000D03*
X112161000Y-97528000D03*
X112161000Y-99528000D03*
X112161000Y-101528000D03*
X112161000Y-103528000D03*
X112161000Y-105528000D03*
X112161000Y-107528000D03*
D19*
X114761000Y-109028000D03*
X116761000Y-109028000D03*
X118761000Y-109028000D03*
X120761000Y-109028000D03*
X122761000Y-109028000D03*
X124761000Y-109028000D03*
D18*
X127361000Y-107528000D03*
X127361000Y-105528000D03*
X127361000Y-103528000D03*
X127361000Y-101528000D03*
X127361000Y-99528000D03*
X127361000Y-97528000D03*
X127361000Y-95528000D03*
X127361000Y-93528000D03*
D20*
X117983000Y-96520000D03*
X133223000Y-90043000D03*
X123444000Y-98171000D03*
X115697000Y-92964000D03*
X118745000Y-92583000D03*
X124714000Y-92837000D03*
X125603000Y-92837000D03*
X118110000Y-93489000D03*
X116078000Y-100076000D03*
X117983000Y-101854000D03*
X114173000Y-103124000D03*
D21*
X133872000Y-91821000D02*
X133872000Y-93599000D01*
X136762000Y-86868000D02*
X138012000Y-86868000D01*
X133872000Y-91821000D02*
X133872000Y-89758000D01*
D22*
X129111000Y-105528000D02*
X129120000Y-105537000D01*
X127361000Y-105528000D02*
X129111000Y-105528000D01*
X129120000Y-105537000D02*
X132715000Y-105537000D01*
X132715000Y-105537000D02*
X134366000Y-103886000D01*
X130724000Y-107528000D02*
X132715000Y-105537000D01*
X127361000Y-107528000D02*
X130724000Y-107528000D01*
D21*
X134603000Y-89027000D02*
X136762000Y-86868000D01*
X133872000Y-89758000D02*
X134603000Y-89027000D01*
X136639002Y-89027000D02*
X134603000Y-89027000D01*
X140462000Y-92329000D02*
X136639002Y-89027000D01*
X139166000Y-99139000D02*
X139166000Y-96889000D01*
X140462000Y-94996000D02*
X140462000Y-92329000D01*
X139166000Y-96889000D02*
X140462000Y-94996000D01*
D22*
X134366000Y-103886000D02*
X134366000Y-102320000D01*
X107823000Y-93218000D02*
X107823000Y-93726000D01*
X107823000Y-93726000D02*
X108966000Y-94869000D01*
X108966000Y-94893002D02*
X110592998Y-96520000D01*
X108966000Y-94869000D02*
X108966000Y-94893002D01*
X110592998Y-96520000D02*
X117983000Y-96520000D01*
D21*
X131939000Y-90043000D02*
X131939000Y-91821000D01*
X131939000Y-91821000D02*
X131939000Y-93599000D01*
X133223000Y-90043000D02*
X131939000Y-90043000D01*
D22*
X123743999Y-100660999D02*
X126611000Y-103528000D01*
X126611000Y-103528000D02*
X127361000Y-103528000D01*
X123743999Y-98470999D02*
X123743999Y-100660999D01*
X123444000Y-98171000D02*
X123743999Y-98470999D01*
X122801000Y-97528000D02*
X123444000Y-98171000D01*
X112161000Y-97528000D02*
X122801000Y-97528000D01*
X114087000Y-107528000D02*
X123444000Y-98171000D01*
X112161000Y-107528000D02*
X114087000Y-107528000D01*
X108383000Y-95250000D02*
X106172000Y-95250000D01*
X105283000Y-94361000D02*
X105283000Y-93218000D01*
X112161000Y-97528000D02*
X110661000Y-97528000D01*
X106172000Y-95250000D02*
X105283000Y-94361000D01*
X110661000Y-97528000D02*
X108383000Y-95250000D01*
D21*
X138959000Y-93832000D02*
X138049000Y-94488000D01*
X139109000Y-93832000D02*
X138959000Y-93832000D01*
X138049000Y-94488000D02*
X131572000Y-94488000D01*
X131572000Y-94488000D02*
X130810000Y-95250000D01*
X130810000Y-95250000D02*
X130810000Y-98679000D01*
X129961000Y-99528000D02*
X127361000Y-99528000D01*
X130810000Y-98679000D02*
X129961000Y-99528000D01*
X135855000Y-93832000D02*
X135622000Y-93599000D01*
X137359000Y-93832000D02*
X135855000Y-93832000D01*
X136583000Y-92782000D02*
X135622000Y-91821000D01*
X137359000Y-92782000D02*
X136583000Y-92782000D01*
D23*
X106553000Y-98171000D02*
X104752990Y-99971010D01*
X137066010Y-101120010D02*
X134366000Y-98420000D01*
X104752990Y-109451990D02*
X106299000Y-110998000D01*
X104752990Y-99971010D02*
X104752990Y-109451990D01*
X106299000Y-110998000D02*
X136144000Y-110998000D01*
X134366000Y-98420000D02*
X134366000Y-96520000D01*
X136144000Y-110998000D02*
X137066010Y-110075990D01*
X137066010Y-110075990D02*
X137066010Y-101120010D01*
D22*
X127361000Y-101528000D02*
X128111000Y-101528000D01*
D21*
X130189000Y-94174000D02*
X130175000Y-94188000D01*
X130189000Y-93599000D02*
X130189000Y-94174000D01*
X130175000Y-94188000D02*
X130175000Y-97917000D01*
X130175000Y-97917000D02*
X129540000Y-98552000D01*
X129540000Y-98552000D02*
X125857000Y-98552000D01*
X125857000Y-98552000D02*
X125095000Y-99314000D01*
X125095000Y-99314000D02*
X125095000Y-100838000D01*
X125785000Y-101528000D02*
X127361000Y-101528000D01*
X125095000Y-100838000D02*
X125785000Y-101528000D01*
X120907599Y-94239009D02*
X116972009Y-94239009D01*
X125095000Y-99314000D02*
X125095000Y-98426410D01*
X125095000Y-98426410D02*
X120907599Y-94239009D01*
X116972009Y-94239009D02*
X115697000Y-92964000D01*
X113990000Y-93528000D02*
X112161000Y-93528000D01*
X115697000Y-91821000D02*
X113990000Y-93528000D01*
X119044999Y-92283001D02*
X119507000Y-91821000D01*
X118745000Y-92583000D02*
X119044999Y-92283001D01*
X130189000Y-91821000D02*
X119507000Y-91821000D01*
X119507000Y-91821000D02*
X115697000Y-91821000D01*
X125861000Y-95528000D02*
X124714000Y-94381000D01*
X127361000Y-95528000D02*
X125861000Y-95528000D01*
X124714000Y-94381000D02*
X124714000Y-92837000D01*
X127361000Y-93528000D02*
X126294000Y-93528000D01*
X126294000Y-93528000D02*
X125603000Y-92837000D01*
X118409999Y-93788999D02*
X121093999Y-93788999D01*
X118110000Y-93489000D02*
X118409999Y-93788999D01*
X124833000Y-97528000D02*
X127361000Y-97528000D01*
X121093999Y-93788999D02*
X124833000Y-97528000D01*
X112911000Y-103528000D02*
X112161000Y-103528000D01*
X113661000Y-104278000D02*
X112911000Y-103528000D01*
X114808000Y-104267000D02*
X113661000Y-104278000D01*
X116078000Y-100076000D02*
X116078000Y-102997000D01*
X116078000Y-102997000D02*
X114808000Y-104267000D01*
X113661000Y-105528000D02*
X112161000Y-105528000D01*
X114733264Y-105528000D02*
X113661000Y-105528000D01*
X117983000Y-102278264D02*
X114733264Y-105528000D01*
X117983000Y-101854000D02*
X117983000Y-102278264D01*
X112577000Y-101528000D02*
X112161000Y-101528000D01*
X114173000Y-103124000D02*
X112577000Y-101528000D01*
D22*
X130212000Y-90020000D02*
X130189000Y-90043000D01*
D21*
X111411000Y-99528000D02*
X112161000Y-99528000D01*
X130189000Y-86891000D02*
X130212000Y-86868000D01*
X130189000Y-90043000D02*
X130189000Y-86891000D01*
X129564000Y-90043000D02*
X130189000Y-90043000D01*
X104648000Y-91948000D02*
X114046000Y-91948000D01*
X114681000Y-91313000D02*
X128294000Y-91313000D01*
X110661000Y-99528000D02*
X107272000Y-96139000D01*
X128294000Y-91313000D02*
X129564000Y-90043000D01*
X114046000Y-91948000D02*
X114681000Y-91313000D01*
X107272000Y-96139000D02*
X105791000Y-96139000D01*
X112161000Y-99528000D02*
X110661000Y-99528000D01*
X105791000Y-96139000D02*
X103886000Y-94234000D01*
X103886000Y-94234000D02*
X103886000Y-92710000D01*
X103886000Y-92710000D02*
X104648000Y-91948000D01*
X123571000Y-104521000D02*
X120761000Y-107331000D01*
X128951575Y-104521000D02*
X123571000Y-104521000D01*
X120761000Y-107331000D02*
X120761000Y-109028000D01*
X131445000Y-101981000D02*
X128951575Y-104521000D01*
X139259000Y-92782000D02*
X139859001Y-93382001D01*
X131445000Y-95504000D02*
X131445000Y-101981000D01*
X139109000Y-92782000D02*
X139259000Y-92782000D01*
X139859001Y-93382001D02*
X139859001Y-94367001D01*
X139859001Y-94367001D02*
X139446000Y-94996000D01*
X139446000Y-94996000D02*
X131953000Y-94996000D01*
X131953000Y-94996000D02*
X131445000Y-95504000D01*
D24*
X139446000Y-95449842D02*
X139446000Y-96971971D01*
X139293000Y-97049622D01*
X139293000Y-99393000D01*
X139313000Y-99393000D01*
X139313000Y-99647000D01*
X139293000Y-99647000D01*
X139293000Y-101990378D01*
X139446000Y-102068029D01*
X139446000Y-110617450D01*
X137686367Y-110623690D01*
X137756962Y-110537670D01*
X137803721Y-110450190D01*
X137833755Y-110394000D01*
X137881044Y-110238110D01*
X137893010Y-110116614D01*
X137893010Y-110116605D01*
X137897010Y-110075991D01*
X137893010Y-110035377D01*
X137893010Y-101474275D01*
X137960252Y-101578396D01*
X138170394Y-101795210D01*
X138418796Y-101966862D01*
X138695913Y-102086755D01*
X138801260Y-102111036D01*
X139039000Y-101990378D01*
X139039000Y-99647000D01*
X137631000Y-99647000D01*
X137631000Y-100513843D01*
X137622063Y-100506509D01*
X135408554Y-98293000D01*
X137631000Y-98293000D01*
X137631000Y-99393000D01*
X139039000Y-99393000D01*
X139039000Y-97049622D01*
X138801260Y-96928964D01*
X138695913Y-96953245D01*
X138418796Y-97073138D01*
X138170394Y-97244790D01*
X137960252Y-97461604D01*
X137796446Y-97715249D01*
X137685271Y-97995977D01*
X137631000Y-98293000D01*
X135408554Y-98293000D01*
X135193000Y-98077447D01*
X135193000Y-97748582D01*
X136566000Y-97748582D01*
X136630103Y-97742268D01*
X136691743Y-97723570D01*
X136748550Y-97693206D01*
X136798343Y-97652343D01*
X136839206Y-97602550D01*
X136869570Y-97545743D01*
X136888268Y-97484103D01*
X136894582Y-97420000D01*
X136894582Y-95620000D01*
X136888268Y-95555897D01*
X136869570Y-95494257D01*
X136844845Y-95448000D01*
X139425621Y-95448000D01*
X139446000Y-95449842D01*
G04 #@! TA.AperFunction,Conductor*
D25*
G36*
X139446000Y-95449842D02*
G01*
X139446000Y-96971971D01*
X139293000Y-97049622D01*
X139293000Y-99393000D01*
X139313000Y-99393000D01*
X139313000Y-99647000D01*
X139293000Y-99647000D01*
X139293000Y-101990378D01*
X139446000Y-102068029D01*
X139446000Y-110617450D01*
X137686367Y-110623690D01*
X137756962Y-110537670D01*
X137803721Y-110450190D01*
X137833755Y-110394000D01*
X137881044Y-110238110D01*
X137893010Y-110116614D01*
X137893010Y-110116605D01*
X137897010Y-110075991D01*
X137893010Y-110035377D01*
X137893010Y-101474275D01*
X137960252Y-101578396D01*
X138170394Y-101795210D01*
X138418796Y-101966862D01*
X138695913Y-102086755D01*
X138801260Y-102111036D01*
X139039000Y-101990378D01*
X139039000Y-99647000D01*
X137631000Y-99647000D01*
X137631000Y-100513843D01*
X137622063Y-100506509D01*
X135408554Y-98293000D01*
X137631000Y-98293000D01*
X137631000Y-99393000D01*
X139039000Y-99393000D01*
X139039000Y-97049622D01*
X138801260Y-96928964D01*
X138695913Y-96953245D01*
X138418796Y-97073138D01*
X138170394Y-97244790D01*
X137960252Y-97461604D01*
X137796446Y-97715249D01*
X137685271Y-97995977D01*
X137631000Y-98293000D01*
X135408554Y-98293000D01*
X135193000Y-98077447D01*
X135193000Y-97748582D01*
X136566000Y-97748582D01*
X136630103Y-97742268D01*
X136691743Y-97723570D01*
X136748550Y-97693206D01*
X136798343Y-97652343D01*
X136839206Y-97602550D01*
X136869570Y-97545743D01*
X136888268Y-97484103D01*
X136894582Y-97420000D01*
X136894582Y-95620000D01*
X136888268Y-95555897D01*
X136869570Y-95494257D01*
X136844845Y-95448000D01*
X139425621Y-95448000D01*
X139446000Y-95449842D01*
G37*
G04 #@! TD.AperFunction*
D24*
X131933657Y-97652343D02*
X131983450Y-97693206D01*
X132040257Y-97723570D01*
X132101897Y-97742268D01*
X132166000Y-97748582D01*
X133539000Y-97748582D01*
X133539000Y-98379386D01*
X133535000Y-98420000D01*
X133539000Y-98460614D01*
X133539000Y-98460623D01*
X133550966Y-98582119D01*
X133598255Y-98738009D01*
X133614076Y-98767607D01*
X133675048Y-98881679D01*
X133715799Y-98931334D01*
X133778394Y-99007606D01*
X133809952Y-99033505D01*
X135561446Y-100785000D01*
X134493000Y-100785000D01*
X134493000Y-102193000D01*
X134513000Y-102193000D01*
X134513000Y-102447000D01*
X134493000Y-102447000D01*
X134493000Y-103855000D01*
X135593000Y-103855000D01*
X135890023Y-103800729D01*
X136170751Y-103689554D01*
X136239011Y-103645471D01*
X136239010Y-109733436D01*
X135801447Y-110171000D01*
X125480357Y-110171000D01*
X125493343Y-110160343D01*
X125534206Y-110110550D01*
X125564570Y-110053743D01*
X125583268Y-109992103D01*
X125589582Y-109928000D01*
X125589582Y-108393606D01*
X125659815Y-108479185D01*
X125756506Y-108558537D01*
X125866820Y-108617502D01*
X125986518Y-108653812D01*
X126111000Y-108666072D01*
X127075250Y-108663000D01*
X127234000Y-108504250D01*
X127234000Y-107655000D01*
X127488000Y-107655000D01*
X127488000Y-108504250D01*
X127646750Y-108663000D01*
X128611000Y-108666072D01*
X128735482Y-108653812D01*
X128855180Y-108617502D01*
X128965494Y-108558537D01*
X129062185Y-108479185D01*
X129141537Y-108382494D01*
X129200502Y-108272180D01*
X129236812Y-108152482D01*
X129249072Y-108028000D01*
X129246000Y-107813750D01*
X129087250Y-107655000D01*
X127488000Y-107655000D01*
X127234000Y-107655000D01*
X125634750Y-107655000D01*
X125476000Y-107813750D01*
X125475041Y-107880637D01*
X125443550Y-107854794D01*
X125386743Y-107824430D01*
X125325103Y-107805732D01*
X125261000Y-107799418D01*
X124261000Y-107799418D01*
X124196897Y-107805732D01*
X124135257Y-107824430D01*
X124078450Y-107854794D01*
X124028657Y-107895657D01*
X123987794Y-107945450D01*
X123957430Y-108002257D01*
X123938732Y-108063897D01*
X123932418Y-108128000D01*
X123932418Y-109928000D01*
X123938732Y-109992103D01*
X123957430Y-110053743D01*
X123987794Y-110110550D01*
X124028657Y-110160343D01*
X124041643Y-110171000D01*
X123480357Y-110171000D01*
X123493343Y-110160343D01*
X123534206Y-110110550D01*
X123564570Y-110053743D01*
X123583268Y-109992103D01*
X123589582Y-109928000D01*
X123589582Y-108128000D01*
X123583268Y-108063897D01*
X123564570Y-108002257D01*
X123534206Y-107945450D01*
X123493343Y-107895657D01*
X123443550Y-107854794D01*
X123386743Y-107824430D01*
X123325103Y-107805732D01*
X123261000Y-107799418D01*
X122261000Y-107799418D01*
X122196897Y-107805732D01*
X122135257Y-107824430D01*
X122078450Y-107854794D01*
X122028657Y-107895657D01*
X121987794Y-107945450D01*
X121957430Y-108002257D01*
X121938732Y-108063897D01*
X121932418Y-108128000D01*
X121932418Y-109928000D01*
X121938732Y-109992103D01*
X121957430Y-110053743D01*
X121987794Y-110110550D01*
X122028657Y-110160343D01*
X122041643Y-110171000D01*
X121480357Y-110171000D01*
X121493343Y-110160343D01*
X121534206Y-110110550D01*
X121564570Y-110053743D01*
X121583268Y-109992103D01*
X121589582Y-109928000D01*
X121589582Y-108128000D01*
X121583268Y-108063897D01*
X121564570Y-108002257D01*
X121534206Y-107945450D01*
X121493343Y-107895657D01*
X121443550Y-107854794D01*
X121386743Y-107824430D01*
X121325103Y-107805732D01*
X121261000Y-107799418D01*
X121213000Y-107799418D01*
X121213000Y-107518223D01*
X122703224Y-106028000D01*
X125472928Y-106028000D01*
X125485188Y-106152482D01*
X125521498Y-106272180D01*
X125580463Y-106382494D01*
X125659815Y-106479185D01*
X125719296Y-106528000D01*
X125659815Y-106576815D01*
X125580463Y-106673506D01*
X125521498Y-106783820D01*
X125485188Y-106903518D01*
X125472928Y-107028000D01*
X125476000Y-107242250D01*
X125634750Y-107401000D01*
X127234000Y-107401000D01*
X127234000Y-106551750D01*
X127210250Y-106528000D01*
X127234000Y-106504250D01*
X127234000Y-105655000D01*
X127488000Y-105655000D01*
X127488000Y-106504250D01*
X127511750Y-106528000D01*
X127488000Y-106551750D01*
X127488000Y-107401000D01*
X129087250Y-107401000D01*
X129246000Y-107242250D01*
X129249072Y-107028000D01*
X129236812Y-106903518D01*
X129200502Y-106783820D01*
X129141537Y-106673506D01*
X129062185Y-106576815D01*
X129002704Y-106528000D01*
X129062185Y-106479185D01*
X129141537Y-106382494D01*
X129200502Y-106272180D01*
X129236812Y-106152482D01*
X129249072Y-106028000D01*
X129246000Y-105813750D01*
X129087250Y-105655000D01*
X127488000Y-105655000D01*
X127234000Y-105655000D01*
X125634750Y-105655000D01*
X125476000Y-105813750D01*
X125472928Y-106028000D01*
X122703224Y-106028000D01*
X123758225Y-104973000D01*
X125478345Y-104973000D01*
X125472928Y-105028000D01*
X125476000Y-105242250D01*
X125634750Y-105401000D01*
X127234000Y-105401000D01*
X127234000Y-105381000D01*
X127488000Y-105381000D01*
X127488000Y-105401000D01*
X129087250Y-105401000D01*
X129246000Y-105242250D01*
X129249072Y-105028000D01*
X129236812Y-104903518D01*
X129229110Y-104878128D01*
X129239857Y-104869141D01*
X129272734Y-104842159D01*
X129288225Y-104823283D01*
X131731000Y-102334881D01*
X131731000Y-102447002D01*
X131895621Y-102447002D01*
X131774964Y-102684740D01*
X131799245Y-102790087D01*
X131919138Y-103067204D01*
X132090790Y-103315606D01*
X132307604Y-103525748D01*
X132561249Y-103689554D01*
X132841977Y-103800729D01*
X133139000Y-103855000D01*
X134239000Y-103855000D01*
X134239000Y-102447000D01*
X134219000Y-102447000D01*
X134219000Y-102193000D01*
X134239000Y-102193000D01*
X134239000Y-100785000D01*
X133139000Y-100785000D01*
X132841977Y-100839271D01*
X132561249Y-100950446D01*
X132307604Y-101114252D01*
X132090790Y-101324394D01*
X131919138Y-101572796D01*
X131897000Y-101623965D01*
X131897000Y-97607675D01*
X131933657Y-97652343D01*
G04 #@! TA.AperFunction,Conductor*
D25*
G36*
X131933657Y-97652343D02*
G01*
X131983450Y-97693206D01*
X132040257Y-97723570D01*
X132101897Y-97742268D01*
X132166000Y-97748582D01*
X133539000Y-97748582D01*
X133539000Y-98379386D01*
X133535000Y-98420000D01*
X133539000Y-98460614D01*
X133539000Y-98460623D01*
X133550966Y-98582119D01*
X133598255Y-98738009D01*
X133614076Y-98767607D01*
X133675048Y-98881679D01*
X133715799Y-98931334D01*
X133778394Y-99007606D01*
X133809952Y-99033505D01*
X135561446Y-100785000D01*
X134493000Y-100785000D01*
X134493000Y-102193000D01*
X134513000Y-102193000D01*
X134513000Y-102447000D01*
X134493000Y-102447000D01*
X134493000Y-103855000D01*
X135593000Y-103855000D01*
X135890023Y-103800729D01*
X136170751Y-103689554D01*
X136239011Y-103645471D01*
X136239010Y-109733436D01*
X135801447Y-110171000D01*
X125480357Y-110171000D01*
X125493343Y-110160343D01*
X125534206Y-110110550D01*
X125564570Y-110053743D01*
X125583268Y-109992103D01*
X125589582Y-109928000D01*
X125589582Y-108393606D01*
X125659815Y-108479185D01*
X125756506Y-108558537D01*
X125866820Y-108617502D01*
X125986518Y-108653812D01*
X126111000Y-108666072D01*
X127075250Y-108663000D01*
X127234000Y-108504250D01*
X127234000Y-107655000D01*
X127488000Y-107655000D01*
X127488000Y-108504250D01*
X127646750Y-108663000D01*
X128611000Y-108666072D01*
X128735482Y-108653812D01*
X128855180Y-108617502D01*
X128965494Y-108558537D01*
X129062185Y-108479185D01*
X129141537Y-108382494D01*
X129200502Y-108272180D01*
X129236812Y-108152482D01*
X129249072Y-108028000D01*
X129246000Y-107813750D01*
X129087250Y-107655000D01*
X127488000Y-107655000D01*
X127234000Y-107655000D01*
X125634750Y-107655000D01*
X125476000Y-107813750D01*
X125475041Y-107880637D01*
X125443550Y-107854794D01*
X125386743Y-107824430D01*
X125325103Y-107805732D01*
X125261000Y-107799418D01*
X124261000Y-107799418D01*
X124196897Y-107805732D01*
X124135257Y-107824430D01*
X124078450Y-107854794D01*
X124028657Y-107895657D01*
X123987794Y-107945450D01*
X123957430Y-108002257D01*
X123938732Y-108063897D01*
X123932418Y-108128000D01*
X123932418Y-109928000D01*
X123938732Y-109992103D01*
X123957430Y-110053743D01*
X123987794Y-110110550D01*
X124028657Y-110160343D01*
X124041643Y-110171000D01*
X123480357Y-110171000D01*
X123493343Y-110160343D01*
X123534206Y-110110550D01*
X123564570Y-110053743D01*
X123583268Y-109992103D01*
X123589582Y-109928000D01*
X123589582Y-108128000D01*
X123583268Y-108063897D01*
X123564570Y-108002257D01*
X123534206Y-107945450D01*
X123493343Y-107895657D01*
X123443550Y-107854794D01*
X123386743Y-107824430D01*
X123325103Y-107805732D01*
X123261000Y-107799418D01*
X122261000Y-107799418D01*
X122196897Y-107805732D01*
X122135257Y-107824430D01*
X122078450Y-107854794D01*
X122028657Y-107895657D01*
X121987794Y-107945450D01*
X121957430Y-108002257D01*
X121938732Y-108063897D01*
X121932418Y-108128000D01*
X121932418Y-109928000D01*
X121938732Y-109992103D01*
X121957430Y-110053743D01*
X121987794Y-110110550D01*
X122028657Y-110160343D01*
X122041643Y-110171000D01*
X121480357Y-110171000D01*
X121493343Y-110160343D01*
X121534206Y-110110550D01*
X121564570Y-110053743D01*
X121583268Y-109992103D01*
X121589582Y-109928000D01*
X121589582Y-108128000D01*
X121583268Y-108063897D01*
X121564570Y-108002257D01*
X121534206Y-107945450D01*
X121493343Y-107895657D01*
X121443550Y-107854794D01*
X121386743Y-107824430D01*
X121325103Y-107805732D01*
X121261000Y-107799418D01*
X121213000Y-107799418D01*
X121213000Y-107518223D01*
X122703224Y-106028000D01*
X125472928Y-106028000D01*
X125485188Y-106152482D01*
X125521498Y-106272180D01*
X125580463Y-106382494D01*
X125659815Y-106479185D01*
X125719296Y-106528000D01*
X125659815Y-106576815D01*
X125580463Y-106673506D01*
X125521498Y-106783820D01*
X125485188Y-106903518D01*
X125472928Y-107028000D01*
X125476000Y-107242250D01*
X125634750Y-107401000D01*
X127234000Y-107401000D01*
X127234000Y-106551750D01*
X127210250Y-106528000D01*
X127234000Y-106504250D01*
X127234000Y-105655000D01*
X127488000Y-105655000D01*
X127488000Y-106504250D01*
X127511750Y-106528000D01*
X127488000Y-106551750D01*
X127488000Y-107401000D01*
X129087250Y-107401000D01*
X129246000Y-107242250D01*
X129249072Y-107028000D01*
X129236812Y-106903518D01*
X129200502Y-106783820D01*
X129141537Y-106673506D01*
X129062185Y-106576815D01*
X129002704Y-106528000D01*
X129062185Y-106479185D01*
X129141537Y-106382494D01*
X129200502Y-106272180D01*
X129236812Y-106152482D01*
X129249072Y-106028000D01*
X129246000Y-105813750D01*
X129087250Y-105655000D01*
X127488000Y-105655000D01*
X127234000Y-105655000D01*
X125634750Y-105655000D01*
X125476000Y-105813750D01*
X125472928Y-106028000D01*
X122703224Y-106028000D01*
X123758225Y-104973000D01*
X125478345Y-104973000D01*
X125472928Y-105028000D01*
X125476000Y-105242250D01*
X125634750Y-105401000D01*
X127234000Y-105401000D01*
X127234000Y-105381000D01*
X127488000Y-105381000D01*
X127488000Y-105401000D01*
X129087250Y-105401000D01*
X129246000Y-105242250D01*
X129249072Y-105028000D01*
X129236812Y-104903518D01*
X129229110Y-104878128D01*
X129239857Y-104869141D01*
X129272734Y-104842159D01*
X129288225Y-104823283D01*
X131731000Y-102334881D01*
X131731000Y-102447002D01*
X131895621Y-102447002D01*
X131774964Y-102684740D01*
X131799245Y-102790087D01*
X131919138Y-103067204D01*
X132090790Y-103315606D01*
X132307604Y-103525748D01*
X132561249Y-103689554D01*
X132841977Y-103800729D01*
X133139000Y-103855000D01*
X134239000Y-103855000D01*
X134239000Y-102447000D01*
X134219000Y-102447000D01*
X134219000Y-102193000D01*
X134239000Y-102193000D01*
X134239000Y-100785000D01*
X133139000Y-100785000D01*
X132841977Y-100839271D01*
X132561249Y-100950446D01*
X132307604Y-101114252D01*
X132090790Y-101324394D01*
X131919138Y-101572796D01*
X131897000Y-101623965D01*
X131897000Y-97607675D01*
X131933657Y-97652343D01*
G37*
G04 #@! TD.AperFunction*
D24*
X136810815Y-85666815D02*
X136731463Y-85763506D01*
X136672498Y-85873820D01*
X136636188Y-85993518D01*
X136623928Y-86118000D01*
X136627000Y-86582250D01*
X136785750Y-86741000D01*
X137885000Y-86741000D01*
X137885000Y-86721000D01*
X138139000Y-86721000D01*
X138139000Y-86741000D01*
X139238250Y-86741000D01*
X139397000Y-86582250D01*
X139400072Y-86118000D01*
X139387812Y-85993518D01*
X139351502Y-85873820D01*
X139292537Y-85763506D01*
X139213185Y-85666815D01*
X139129333Y-85598000D01*
X139446000Y-85598000D01*
X139446000Y-92178418D01*
X138684000Y-92178418D01*
X138619897Y-92184732D01*
X138558257Y-92203430D01*
X138501450Y-92233794D01*
X138451657Y-92274657D01*
X138410794Y-92324450D01*
X138380430Y-92381257D01*
X138361732Y-92442897D01*
X138355418Y-92507000D01*
X138355418Y-93057000D01*
X138361732Y-93121103D01*
X138380430Y-93182743D01*
X138410794Y-93239550D01*
X138451657Y-93289343D01*
X138473173Y-93307000D01*
X138451657Y-93324657D01*
X138410794Y-93374450D01*
X138380430Y-93431257D01*
X138361732Y-93492897D01*
X138355418Y-93557000D01*
X138355418Y-93709908D01*
X138112582Y-93884964D01*
X138112582Y-93557000D01*
X138106268Y-93492897D01*
X138087570Y-93431257D01*
X138057206Y-93374450D01*
X138016343Y-93324657D01*
X137994827Y-93307000D01*
X138016343Y-93289343D01*
X138057206Y-93239550D01*
X138087570Y-93182743D01*
X138106268Y-93121103D01*
X138112582Y-93057000D01*
X138112582Y-92507000D01*
X138106268Y-92442897D01*
X138087570Y-92381257D01*
X138057206Y-92324450D01*
X138016343Y-92274657D01*
X137966550Y-92233794D01*
X137909743Y-92203430D01*
X137848103Y-92184732D01*
X137784000Y-92178418D01*
X136934000Y-92178418D01*
X136869897Y-92184732D01*
X136808257Y-92203430D01*
X136751450Y-92233794D01*
X136708921Y-92268696D01*
X136475582Y-92035358D01*
X136475582Y-91583500D01*
X136464705Y-91473063D01*
X136432492Y-91366870D01*
X136380180Y-91269002D01*
X136309780Y-91183220D01*
X136223998Y-91112820D01*
X136126130Y-91060508D01*
X136019937Y-91028295D01*
X135909500Y-91017418D01*
X135334500Y-91017418D01*
X135224063Y-91028295D01*
X135117870Y-91060508D01*
X135020002Y-91112820D01*
X134995851Y-91132640D01*
X134986502Y-91101820D01*
X134927537Y-90991506D01*
X134848185Y-90894815D01*
X134751494Y-90815463D01*
X134641180Y-90756498D01*
X134521482Y-90720188D01*
X134397000Y-90707928D01*
X134157750Y-90711000D01*
X133999000Y-90869750D01*
X133999000Y-91694000D01*
X134019000Y-91694000D01*
X134019000Y-91948000D01*
X133999000Y-91948000D01*
X133999000Y-93472000D01*
X134019000Y-93472000D01*
X134019000Y-93726000D01*
X133999000Y-93726000D01*
X133999000Y-93746000D01*
X133745000Y-93746000D01*
X133745000Y-93726000D01*
X133725000Y-93726000D01*
X133725000Y-93472000D01*
X133745000Y-93472000D01*
X133745000Y-91948000D01*
X133725000Y-91948000D01*
X133725000Y-91694000D01*
X133745000Y-91694000D01*
X133745000Y-90869750D01*
X133586250Y-90711000D01*
X133347000Y-90707928D01*
X133222518Y-90720188D01*
X133102820Y-90756498D01*
X132992506Y-90815463D01*
X132895815Y-90894815D01*
X132816463Y-90991506D01*
X132757498Y-91101820D01*
X132721188Y-91221518D01*
X132713504Y-91299541D01*
X132697180Y-91269002D01*
X132626780Y-91183220D01*
X132540998Y-91112820D01*
X132443130Y-91060508D01*
X132391000Y-91044695D01*
X132391000Y-90819305D01*
X132443130Y-90803492D01*
X132540998Y-90751180D01*
X132626780Y-90680780D01*
X132697180Y-90594998D01*
X132749492Y-90497130D01*
X132750138Y-90495000D01*
X132788288Y-90495000D01*
X132823311Y-90530023D01*
X132926004Y-90598640D01*
X133040111Y-90645905D01*
X133161246Y-90670000D01*
X133284754Y-90670000D01*
X133405889Y-90645905D01*
X133519996Y-90598640D01*
X133622689Y-90530023D01*
X133710023Y-90442689D01*
X133778640Y-90339996D01*
X133825905Y-90225889D01*
X133850000Y-90104754D01*
X133850000Y-89981246D01*
X133825905Y-89860111D01*
X133778640Y-89746004D01*
X133710023Y-89643311D01*
X133622689Y-89555977D01*
X133519996Y-89487360D01*
X133405889Y-89440095D01*
X133284754Y-89416000D01*
X133161246Y-89416000D01*
X133040111Y-89440095D01*
X132926004Y-89487360D01*
X132823311Y-89555977D01*
X132788288Y-89591000D01*
X132750138Y-89591000D01*
X132749492Y-89588870D01*
X132697180Y-89491002D01*
X132626780Y-89405220D01*
X132540998Y-89334820D01*
X132443130Y-89282508D01*
X132336937Y-89250295D01*
X132226500Y-89239418D01*
X131651500Y-89239418D01*
X131541063Y-89250295D01*
X131434870Y-89282508D01*
X131337002Y-89334820D01*
X131251220Y-89405220D01*
X131180820Y-89491002D01*
X131128508Y-89588870D01*
X131096295Y-89695063D01*
X131085418Y-89805500D01*
X131085418Y-90280500D01*
X131096295Y-90390937D01*
X131128508Y-90497130D01*
X131180820Y-90594998D01*
X131251220Y-90680780D01*
X131337002Y-90751180D01*
X131434870Y-90803492D01*
X131487000Y-90819305D01*
X131487001Y-91044695D01*
X131434870Y-91060508D01*
X131337002Y-91112820D01*
X131251220Y-91183220D01*
X131180820Y-91269002D01*
X131128508Y-91366870D01*
X131096295Y-91473063D01*
X131085418Y-91583500D01*
X131085418Y-92058500D01*
X131096295Y-92168937D01*
X131128508Y-92275130D01*
X131180820Y-92372998D01*
X131251220Y-92458780D01*
X131337002Y-92529180D01*
X131434870Y-92581492D01*
X131487000Y-92597305D01*
X131487001Y-92822695D01*
X131434870Y-92838508D01*
X131337002Y-92890820D01*
X131251220Y-92961220D01*
X131180820Y-93047002D01*
X131128508Y-93144870D01*
X131096295Y-93251063D01*
X131085418Y-93361500D01*
X131085418Y-93836500D01*
X131096295Y-93946937D01*
X131128508Y-94053130D01*
X131180820Y-94150998D01*
X131220918Y-94199858D01*
X130627000Y-94793777D01*
X130627000Y-94379552D01*
X130693130Y-94359492D01*
X130790998Y-94307180D01*
X130876780Y-94236780D01*
X130947180Y-94150998D01*
X130999492Y-94053130D01*
X131031705Y-93946937D01*
X131042582Y-93836500D01*
X131042582Y-93361500D01*
X131031705Y-93251063D01*
X130999492Y-93144870D01*
X130947180Y-93047002D01*
X130876780Y-92961220D01*
X130790998Y-92890820D01*
X130693130Y-92838508D01*
X130586937Y-92806295D01*
X130476500Y-92795418D01*
X129901500Y-92795418D01*
X129791063Y-92806295D01*
X129684870Y-92838508D01*
X129587002Y-92890820D01*
X129501220Y-92961220D01*
X129430820Y-93047002D01*
X129378508Y-93144870D01*
X129346295Y-93251063D01*
X129335418Y-93361500D01*
X129335418Y-93836500D01*
X129346295Y-93946937D01*
X129378508Y-94053130D01*
X129430820Y-94150998D01*
X129501220Y-94236780D01*
X129587002Y-94307180D01*
X129684870Y-94359492D01*
X129723000Y-94371059D01*
X129723001Y-97729775D01*
X129352777Y-98100000D01*
X128930873Y-98100000D01*
X128933268Y-98092103D01*
X128939582Y-98028000D01*
X128939582Y-97028000D01*
X128933268Y-96963897D01*
X128914570Y-96902257D01*
X128884206Y-96845450D01*
X128843343Y-96795657D01*
X128793550Y-96754794D01*
X128736743Y-96724430D01*
X128675103Y-96705732D01*
X128611000Y-96699418D01*
X126111000Y-96699418D01*
X126046897Y-96705732D01*
X125985257Y-96724430D01*
X125928450Y-96754794D01*
X125878657Y-96795657D01*
X125837794Y-96845450D01*
X125807430Y-96902257D01*
X125788732Y-96963897D01*
X125782418Y-97028000D01*
X125782418Y-97076000D01*
X125020224Y-97076000D01*
X121429322Y-93485099D01*
X121415158Y-93467840D01*
X121346332Y-93411356D01*
X121267809Y-93369385D01*
X121182606Y-93343539D01*
X121116204Y-93336999D01*
X121093999Y-93334812D01*
X121071794Y-93336999D01*
X118719049Y-93336999D01*
X118712905Y-93306111D01*
X118672183Y-93207799D01*
X118683246Y-93210000D01*
X118806754Y-93210000D01*
X118927889Y-93185905D01*
X119041996Y-93138640D01*
X119144689Y-93070023D01*
X119232023Y-92982689D01*
X119300640Y-92879996D01*
X119347905Y-92765889D01*
X119372000Y-92644754D01*
X119372000Y-92595223D01*
X119380312Y-92586911D01*
X119511224Y-92456000D01*
X124214489Y-92456000D01*
X124158360Y-92540004D01*
X124111095Y-92654111D01*
X124087000Y-92775246D01*
X124087000Y-92898754D01*
X124111095Y-93019889D01*
X124158360Y-93133996D01*
X124226977Y-93236689D01*
X124262001Y-93271713D01*
X124262000Y-94358795D01*
X124259813Y-94381000D01*
X124268540Y-94469607D01*
X124284832Y-94523313D01*
X124294386Y-94554809D01*
X124336357Y-94633332D01*
X124392841Y-94702159D01*
X124410100Y-94716323D01*
X125525681Y-95831905D01*
X125539841Y-95849159D01*
X125608667Y-95905643D01*
X125642289Y-95923614D01*
X125687190Y-95947614D01*
X125772392Y-95973460D01*
X125782418Y-95974447D01*
X125782418Y-96028000D01*
X125788732Y-96092103D01*
X125807430Y-96153743D01*
X125837794Y-96210550D01*
X125878657Y-96260343D01*
X125928450Y-96301206D01*
X125985257Y-96331570D01*
X126046897Y-96350268D01*
X126111000Y-96356582D01*
X128611000Y-96356582D01*
X128675103Y-96350268D01*
X128736743Y-96331570D01*
X128793550Y-96301206D01*
X128843343Y-96260343D01*
X128884206Y-96210550D01*
X128914570Y-96153743D01*
X128933268Y-96092103D01*
X128939582Y-96028000D01*
X128939582Y-95028000D01*
X128933268Y-94963897D01*
X128914570Y-94902257D01*
X128884206Y-94845450D01*
X128843343Y-94795657D01*
X128793550Y-94754794D01*
X128736743Y-94724430D01*
X128675103Y-94705732D01*
X128611000Y-94699418D01*
X126111000Y-94699418D01*
X126046897Y-94705732D01*
X125985257Y-94724430D01*
X125928450Y-94754794D01*
X125878657Y-94795657D01*
X125837794Y-94845450D01*
X125830786Y-94858562D01*
X125166000Y-94193777D01*
X125166000Y-93286712D01*
X125203311Y-93324023D01*
X125306004Y-93392640D01*
X125420111Y-93439905D01*
X125541246Y-93464000D01*
X125590777Y-93464000D01*
X125782418Y-93655642D01*
X125782418Y-94028000D01*
X125788732Y-94092103D01*
X125807430Y-94153743D01*
X125837794Y-94210550D01*
X125878657Y-94260343D01*
X125928450Y-94301206D01*
X125985257Y-94331570D01*
X126046897Y-94350268D01*
X126111000Y-94356582D01*
X128611000Y-94356582D01*
X128675103Y-94350268D01*
X128736743Y-94331570D01*
X128793550Y-94301206D01*
X128843343Y-94260343D01*
X128884206Y-94210550D01*
X128914570Y-94153743D01*
X128933268Y-94092103D01*
X128939582Y-94028000D01*
X128939582Y-93028000D01*
X128933268Y-92963897D01*
X128914570Y-92902257D01*
X128884206Y-92845450D01*
X128843343Y-92795657D01*
X128793550Y-92754794D01*
X128736743Y-92724430D01*
X128675103Y-92705732D01*
X128611000Y-92699418D01*
X126214917Y-92699418D01*
X126205905Y-92654111D01*
X126158640Y-92540004D01*
X126102511Y-92456000D01*
X127889000Y-92456000D01*
X127913776Y-92453560D01*
X127937601Y-92446333D01*
X127959557Y-92434597D01*
X127978803Y-92418803D01*
X127994597Y-92399557D01*
X128006333Y-92377601D01*
X128013560Y-92353776D01*
X128016000Y-92329000D01*
X128016000Y-92273000D01*
X129377862Y-92273000D01*
X129378508Y-92275130D01*
X129430820Y-92372998D01*
X129501220Y-92458780D01*
X129587002Y-92529180D01*
X129684870Y-92581492D01*
X129791063Y-92613705D01*
X129901500Y-92624582D01*
X130476500Y-92624582D01*
X130586937Y-92613705D01*
X130693130Y-92581492D01*
X130790998Y-92529180D01*
X130876780Y-92458780D01*
X130947180Y-92372998D01*
X130999492Y-92275130D01*
X131031705Y-92168937D01*
X131042582Y-92058500D01*
X131042582Y-91583500D01*
X131031705Y-91473063D01*
X130999492Y-91366870D01*
X130947180Y-91269002D01*
X130876780Y-91183220D01*
X130790998Y-91112820D01*
X130693130Y-91060508D01*
X130586937Y-91028295D01*
X130476500Y-91017418D01*
X129901500Y-91017418D01*
X129791063Y-91028295D01*
X129684870Y-91060508D01*
X129587002Y-91112820D01*
X129501220Y-91183220D01*
X129430820Y-91269002D01*
X129378508Y-91366870D01*
X129377862Y-91369000D01*
X128877223Y-91369000D01*
X129536495Y-90709730D01*
X129587002Y-90751180D01*
X129684870Y-90803492D01*
X129791063Y-90835705D01*
X129901500Y-90846582D01*
X130476500Y-90846582D01*
X130586937Y-90835705D01*
X130693130Y-90803492D01*
X130790998Y-90751180D01*
X130876780Y-90680780D01*
X130947180Y-90594998D01*
X130999492Y-90497130D01*
X131031705Y-90390937D01*
X131042582Y-90280500D01*
X131042582Y-89805500D01*
X131031705Y-89695063D01*
X130999492Y-89588870D01*
X130947180Y-89491002D01*
X130876780Y-89405220D01*
X130790998Y-89334820D01*
X130693130Y-89282508D01*
X130641000Y-89266695D01*
X130641000Y-87946582D01*
X130962000Y-87946582D01*
X131026103Y-87940268D01*
X131087743Y-87921570D01*
X131144550Y-87891206D01*
X131194343Y-87850343D01*
X131235206Y-87800550D01*
X131265570Y-87743743D01*
X131284268Y-87682103D01*
X131290582Y-87618000D01*
X136623928Y-87618000D01*
X136636188Y-87742482D01*
X136672498Y-87862180D01*
X136731463Y-87972494D01*
X136810815Y-88069185D01*
X136907506Y-88148537D01*
X137017820Y-88207502D01*
X137137518Y-88243812D01*
X137262000Y-88256072D01*
X137726250Y-88253000D01*
X137885000Y-88094250D01*
X137885000Y-86995000D01*
X138139000Y-86995000D01*
X138139000Y-88094250D01*
X138297750Y-88253000D01*
X138762000Y-88256072D01*
X138886482Y-88243812D01*
X139006180Y-88207502D01*
X139116494Y-88148537D01*
X139213185Y-88069185D01*
X139292537Y-87972494D01*
X139351502Y-87862180D01*
X139387812Y-87742482D01*
X139400072Y-87618000D01*
X139397000Y-87153750D01*
X139238250Y-86995000D01*
X138139000Y-86995000D01*
X137885000Y-86995000D01*
X136785750Y-86995000D01*
X136627000Y-87153750D01*
X136623928Y-87618000D01*
X131290582Y-87618000D01*
X131290582Y-86118000D01*
X131284268Y-86053897D01*
X131265570Y-85992257D01*
X131235206Y-85935450D01*
X131194343Y-85885657D01*
X131144550Y-85844794D01*
X131087743Y-85814430D01*
X131026103Y-85795732D01*
X130962000Y-85789418D01*
X129462000Y-85789418D01*
X129397897Y-85795732D01*
X129336257Y-85814430D01*
X129279450Y-85844794D01*
X129229657Y-85885657D01*
X129188794Y-85935450D01*
X129158430Y-85992257D01*
X129139732Y-86053897D01*
X129133418Y-86118000D01*
X129133418Y-87618000D01*
X129139732Y-87682103D01*
X129158430Y-87743743D01*
X129188794Y-87800550D01*
X129229657Y-87850343D01*
X129279450Y-87891206D01*
X129336257Y-87921570D01*
X129397897Y-87940268D01*
X129462000Y-87946582D01*
X129737001Y-87946582D01*
X129737000Y-89266695D01*
X129684870Y-89282508D01*
X129587002Y-89334820D01*
X129501220Y-89405220D01*
X129430820Y-89491002D01*
X129378508Y-89588870D01*
X129363751Y-89637518D01*
X129311667Y-89665357D01*
X129242841Y-89721841D01*
X129228685Y-89739090D01*
X128106777Y-90861000D01*
X128016000Y-90861000D01*
X128016000Y-85598000D01*
X136894667Y-85598000D01*
X136810815Y-85666815D01*
G04 #@! TA.AperFunction,Conductor*
D25*
G36*
X136810815Y-85666815D02*
G01*
X136731463Y-85763506D01*
X136672498Y-85873820D01*
X136636188Y-85993518D01*
X136623928Y-86118000D01*
X136627000Y-86582250D01*
X136785750Y-86741000D01*
X137885000Y-86741000D01*
X137885000Y-86721000D01*
X138139000Y-86721000D01*
X138139000Y-86741000D01*
X139238250Y-86741000D01*
X139397000Y-86582250D01*
X139400072Y-86118000D01*
X139387812Y-85993518D01*
X139351502Y-85873820D01*
X139292537Y-85763506D01*
X139213185Y-85666815D01*
X139129333Y-85598000D01*
X139446000Y-85598000D01*
X139446000Y-92178418D01*
X138684000Y-92178418D01*
X138619897Y-92184732D01*
X138558257Y-92203430D01*
X138501450Y-92233794D01*
X138451657Y-92274657D01*
X138410794Y-92324450D01*
X138380430Y-92381257D01*
X138361732Y-92442897D01*
X138355418Y-92507000D01*
X138355418Y-93057000D01*
X138361732Y-93121103D01*
X138380430Y-93182743D01*
X138410794Y-93239550D01*
X138451657Y-93289343D01*
X138473173Y-93307000D01*
X138451657Y-93324657D01*
X138410794Y-93374450D01*
X138380430Y-93431257D01*
X138361732Y-93492897D01*
X138355418Y-93557000D01*
X138355418Y-93709908D01*
X138112582Y-93884964D01*
X138112582Y-93557000D01*
X138106268Y-93492897D01*
X138087570Y-93431257D01*
X138057206Y-93374450D01*
X138016343Y-93324657D01*
X137994827Y-93307000D01*
X138016343Y-93289343D01*
X138057206Y-93239550D01*
X138087570Y-93182743D01*
X138106268Y-93121103D01*
X138112582Y-93057000D01*
X138112582Y-92507000D01*
X138106268Y-92442897D01*
X138087570Y-92381257D01*
X138057206Y-92324450D01*
X138016343Y-92274657D01*
X137966550Y-92233794D01*
X137909743Y-92203430D01*
X137848103Y-92184732D01*
X137784000Y-92178418D01*
X136934000Y-92178418D01*
X136869897Y-92184732D01*
X136808257Y-92203430D01*
X136751450Y-92233794D01*
X136708921Y-92268696D01*
X136475582Y-92035358D01*
X136475582Y-91583500D01*
X136464705Y-91473063D01*
X136432492Y-91366870D01*
X136380180Y-91269002D01*
X136309780Y-91183220D01*
X136223998Y-91112820D01*
X136126130Y-91060508D01*
X136019937Y-91028295D01*
X135909500Y-91017418D01*
X135334500Y-91017418D01*
X135224063Y-91028295D01*
X135117870Y-91060508D01*
X135020002Y-91112820D01*
X134995851Y-91132640D01*
X134986502Y-91101820D01*
X134927537Y-90991506D01*
X134848185Y-90894815D01*
X134751494Y-90815463D01*
X134641180Y-90756498D01*
X134521482Y-90720188D01*
X134397000Y-90707928D01*
X134157750Y-90711000D01*
X133999000Y-90869750D01*
X133999000Y-91694000D01*
X134019000Y-91694000D01*
X134019000Y-91948000D01*
X133999000Y-91948000D01*
X133999000Y-93472000D01*
X134019000Y-93472000D01*
X134019000Y-93726000D01*
X133999000Y-93726000D01*
X133999000Y-93746000D01*
X133745000Y-93746000D01*
X133745000Y-93726000D01*
X133725000Y-93726000D01*
X133725000Y-93472000D01*
X133745000Y-93472000D01*
X133745000Y-91948000D01*
X133725000Y-91948000D01*
X133725000Y-91694000D01*
X133745000Y-91694000D01*
X133745000Y-90869750D01*
X133586250Y-90711000D01*
X133347000Y-90707928D01*
X133222518Y-90720188D01*
X133102820Y-90756498D01*
X132992506Y-90815463D01*
X132895815Y-90894815D01*
X132816463Y-90991506D01*
X132757498Y-91101820D01*
X132721188Y-91221518D01*
X132713504Y-91299541D01*
X132697180Y-91269002D01*
X132626780Y-91183220D01*
X132540998Y-91112820D01*
X132443130Y-91060508D01*
X132391000Y-91044695D01*
X132391000Y-90819305D01*
X132443130Y-90803492D01*
X132540998Y-90751180D01*
X132626780Y-90680780D01*
X132697180Y-90594998D01*
X132749492Y-90497130D01*
X132750138Y-90495000D01*
X132788288Y-90495000D01*
X132823311Y-90530023D01*
X132926004Y-90598640D01*
X133040111Y-90645905D01*
X133161246Y-90670000D01*
X133284754Y-90670000D01*
X133405889Y-90645905D01*
X133519996Y-90598640D01*
X133622689Y-90530023D01*
X133710023Y-90442689D01*
X133778640Y-90339996D01*
X133825905Y-90225889D01*
X133850000Y-90104754D01*
X133850000Y-89981246D01*
X133825905Y-89860111D01*
X133778640Y-89746004D01*
X133710023Y-89643311D01*
X133622689Y-89555977D01*
X133519996Y-89487360D01*
X133405889Y-89440095D01*
X133284754Y-89416000D01*
X133161246Y-89416000D01*
X133040111Y-89440095D01*
X132926004Y-89487360D01*
X132823311Y-89555977D01*
X132788288Y-89591000D01*
X132750138Y-89591000D01*
X132749492Y-89588870D01*
X132697180Y-89491002D01*
X132626780Y-89405220D01*
X132540998Y-89334820D01*
X132443130Y-89282508D01*
X132336937Y-89250295D01*
X132226500Y-89239418D01*
X131651500Y-89239418D01*
X131541063Y-89250295D01*
X131434870Y-89282508D01*
X131337002Y-89334820D01*
X131251220Y-89405220D01*
X131180820Y-89491002D01*
X131128508Y-89588870D01*
X131096295Y-89695063D01*
X131085418Y-89805500D01*
X131085418Y-90280500D01*
X131096295Y-90390937D01*
X131128508Y-90497130D01*
X131180820Y-90594998D01*
X131251220Y-90680780D01*
X131337002Y-90751180D01*
X131434870Y-90803492D01*
X131487000Y-90819305D01*
X131487001Y-91044695D01*
X131434870Y-91060508D01*
X131337002Y-91112820D01*
X131251220Y-91183220D01*
X131180820Y-91269002D01*
X131128508Y-91366870D01*
X131096295Y-91473063D01*
X131085418Y-91583500D01*
X131085418Y-92058500D01*
X131096295Y-92168937D01*
X131128508Y-92275130D01*
X131180820Y-92372998D01*
X131251220Y-92458780D01*
X131337002Y-92529180D01*
X131434870Y-92581492D01*
X131487000Y-92597305D01*
X131487001Y-92822695D01*
X131434870Y-92838508D01*
X131337002Y-92890820D01*
X131251220Y-92961220D01*
X131180820Y-93047002D01*
X131128508Y-93144870D01*
X131096295Y-93251063D01*
X131085418Y-93361500D01*
X131085418Y-93836500D01*
X131096295Y-93946937D01*
X131128508Y-94053130D01*
X131180820Y-94150998D01*
X131220918Y-94199858D01*
X130627000Y-94793777D01*
X130627000Y-94379552D01*
X130693130Y-94359492D01*
X130790998Y-94307180D01*
X130876780Y-94236780D01*
X130947180Y-94150998D01*
X130999492Y-94053130D01*
X131031705Y-93946937D01*
X131042582Y-93836500D01*
X131042582Y-93361500D01*
X131031705Y-93251063D01*
X130999492Y-93144870D01*
X130947180Y-93047002D01*
X130876780Y-92961220D01*
X130790998Y-92890820D01*
X130693130Y-92838508D01*
X130586937Y-92806295D01*
X130476500Y-92795418D01*
X129901500Y-92795418D01*
X129791063Y-92806295D01*
X129684870Y-92838508D01*
X129587002Y-92890820D01*
X129501220Y-92961220D01*
X129430820Y-93047002D01*
X129378508Y-93144870D01*
X129346295Y-93251063D01*
X129335418Y-93361500D01*
X129335418Y-93836500D01*
X129346295Y-93946937D01*
X129378508Y-94053130D01*
X129430820Y-94150998D01*
X129501220Y-94236780D01*
X129587002Y-94307180D01*
X129684870Y-94359492D01*
X129723000Y-94371059D01*
X129723001Y-97729775D01*
X129352777Y-98100000D01*
X128930873Y-98100000D01*
X128933268Y-98092103D01*
X128939582Y-98028000D01*
X128939582Y-97028000D01*
X128933268Y-96963897D01*
X128914570Y-96902257D01*
X128884206Y-96845450D01*
X128843343Y-96795657D01*
X128793550Y-96754794D01*
X128736743Y-96724430D01*
X128675103Y-96705732D01*
X128611000Y-96699418D01*
X126111000Y-96699418D01*
X126046897Y-96705732D01*
X125985257Y-96724430D01*
X125928450Y-96754794D01*
X125878657Y-96795657D01*
X125837794Y-96845450D01*
X125807430Y-96902257D01*
X125788732Y-96963897D01*
X125782418Y-97028000D01*
X125782418Y-97076000D01*
X125020224Y-97076000D01*
X121429322Y-93485099D01*
X121415158Y-93467840D01*
X121346332Y-93411356D01*
X121267809Y-93369385D01*
X121182606Y-93343539D01*
X121116204Y-93336999D01*
X121093999Y-93334812D01*
X121071794Y-93336999D01*
X118719049Y-93336999D01*
X118712905Y-93306111D01*
X118672183Y-93207799D01*
X118683246Y-93210000D01*
X118806754Y-93210000D01*
X118927889Y-93185905D01*
X119041996Y-93138640D01*
X119144689Y-93070023D01*
X119232023Y-92982689D01*
X119300640Y-92879996D01*
X119347905Y-92765889D01*
X119372000Y-92644754D01*
X119372000Y-92595223D01*
X119380312Y-92586911D01*
X119511224Y-92456000D01*
X124214489Y-92456000D01*
X124158360Y-92540004D01*
X124111095Y-92654111D01*
X124087000Y-92775246D01*
X124087000Y-92898754D01*
X124111095Y-93019889D01*
X124158360Y-93133996D01*
X124226977Y-93236689D01*
X124262001Y-93271713D01*
X124262000Y-94358795D01*
X124259813Y-94381000D01*
X124268540Y-94469607D01*
X124284832Y-94523313D01*
X124294386Y-94554809D01*
X124336357Y-94633332D01*
X124392841Y-94702159D01*
X124410100Y-94716323D01*
X125525681Y-95831905D01*
X125539841Y-95849159D01*
X125608667Y-95905643D01*
X125642289Y-95923614D01*
X125687190Y-95947614D01*
X125772392Y-95973460D01*
X125782418Y-95974447D01*
X125782418Y-96028000D01*
X125788732Y-96092103D01*
X125807430Y-96153743D01*
X125837794Y-96210550D01*
X125878657Y-96260343D01*
X125928450Y-96301206D01*
X125985257Y-96331570D01*
X126046897Y-96350268D01*
X126111000Y-96356582D01*
X128611000Y-96356582D01*
X128675103Y-96350268D01*
X128736743Y-96331570D01*
X128793550Y-96301206D01*
X128843343Y-96260343D01*
X128884206Y-96210550D01*
X128914570Y-96153743D01*
X128933268Y-96092103D01*
X128939582Y-96028000D01*
X128939582Y-95028000D01*
X128933268Y-94963897D01*
X128914570Y-94902257D01*
X128884206Y-94845450D01*
X128843343Y-94795657D01*
X128793550Y-94754794D01*
X128736743Y-94724430D01*
X128675103Y-94705732D01*
X128611000Y-94699418D01*
X126111000Y-94699418D01*
X126046897Y-94705732D01*
X125985257Y-94724430D01*
X125928450Y-94754794D01*
X125878657Y-94795657D01*
X125837794Y-94845450D01*
X125830786Y-94858562D01*
X125166000Y-94193777D01*
X125166000Y-93286712D01*
X125203311Y-93324023D01*
X125306004Y-93392640D01*
X125420111Y-93439905D01*
X125541246Y-93464000D01*
X125590777Y-93464000D01*
X125782418Y-93655642D01*
X125782418Y-94028000D01*
X125788732Y-94092103D01*
X125807430Y-94153743D01*
X125837794Y-94210550D01*
X125878657Y-94260343D01*
X125928450Y-94301206D01*
X125985257Y-94331570D01*
X126046897Y-94350268D01*
X126111000Y-94356582D01*
X128611000Y-94356582D01*
X128675103Y-94350268D01*
X128736743Y-94331570D01*
X128793550Y-94301206D01*
X128843343Y-94260343D01*
X128884206Y-94210550D01*
X128914570Y-94153743D01*
X128933268Y-94092103D01*
X128939582Y-94028000D01*
X128939582Y-93028000D01*
X128933268Y-92963897D01*
X128914570Y-92902257D01*
X128884206Y-92845450D01*
X128843343Y-92795657D01*
X128793550Y-92754794D01*
X128736743Y-92724430D01*
X128675103Y-92705732D01*
X128611000Y-92699418D01*
X126214917Y-92699418D01*
X126205905Y-92654111D01*
X126158640Y-92540004D01*
X126102511Y-92456000D01*
X127889000Y-92456000D01*
X127913776Y-92453560D01*
X127937601Y-92446333D01*
X127959557Y-92434597D01*
X127978803Y-92418803D01*
X127994597Y-92399557D01*
X128006333Y-92377601D01*
X128013560Y-92353776D01*
X128016000Y-92329000D01*
X128016000Y-92273000D01*
X129377862Y-92273000D01*
X129378508Y-92275130D01*
X129430820Y-92372998D01*
X129501220Y-92458780D01*
X129587002Y-92529180D01*
X129684870Y-92581492D01*
X129791063Y-92613705D01*
X129901500Y-92624582D01*
X130476500Y-92624582D01*
X130586937Y-92613705D01*
X130693130Y-92581492D01*
X130790998Y-92529180D01*
X130876780Y-92458780D01*
X130947180Y-92372998D01*
X130999492Y-92275130D01*
X131031705Y-92168937D01*
X131042582Y-92058500D01*
X131042582Y-91583500D01*
X131031705Y-91473063D01*
X130999492Y-91366870D01*
X130947180Y-91269002D01*
X130876780Y-91183220D01*
X130790998Y-91112820D01*
X130693130Y-91060508D01*
X130586937Y-91028295D01*
X130476500Y-91017418D01*
X129901500Y-91017418D01*
X129791063Y-91028295D01*
X129684870Y-91060508D01*
X129587002Y-91112820D01*
X129501220Y-91183220D01*
X129430820Y-91269002D01*
X129378508Y-91366870D01*
X129377862Y-91369000D01*
X128877223Y-91369000D01*
X129536495Y-90709730D01*
X129587002Y-90751180D01*
X129684870Y-90803492D01*
X129791063Y-90835705D01*
X129901500Y-90846582D01*
X130476500Y-90846582D01*
X130586937Y-90835705D01*
X130693130Y-90803492D01*
X130790998Y-90751180D01*
X130876780Y-90680780D01*
X130947180Y-90594998D01*
X130999492Y-90497130D01*
X131031705Y-90390937D01*
X131042582Y-90280500D01*
X131042582Y-89805500D01*
X131031705Y-89695063D01*
X130999492Y-89588870D01*
X130947180Y-89491002D01*
X130876780Y-89405220D01*
X130790998Y-89334820D01*
X130693130Y-89282508D01*
X130641000Y-89266695D01*
X130641000Y-87946582D01*
X130962000Y-87946582D01*
X131026103Y-87940268D01*
X131087743Y-87921570D01*
X131144550Y-87891206D01*
X131194343Y-87850343D01*
X131235206Y-87800550D01*
X131265570Y-87743743D01*
X131284268Y-87682103D01*
X131290582Y-87618000D01*
X136623928Y-87618000D01*
X136636188Y-87742482D01*
X136672498Y-87862180D01*
X136731463Y-87972494D01*
X136810815Y-88069185D01*
X136907506Y-88148537D01*
X137017820Y-88207502D01*
X137137518Y-88243812D01*
X137262000Y-88256072D01*
X137726250Y-88253000D01*
X137885000Y-88094250D01*
X137885000Y-86995000D01*
X138139000Y-86995000D01*
X138139000Y-88094250D01*
X138297750Y-88253000D01*
X138762000Y-88256072D01*
X138886482Y-88243812D01*
X139006180Y-88207502D01*
X139116494Y-88148537D01*
X139213185Y-88069185D01*
X139292537Y-87972494D01*
X139351502Y-87862180D01*
X139387812Y-87742482D01*
X139400072Y-87618000D01*
X139397000Y-87153750D01*
X139238250Y-86995000D01*
X138139000Y-86995000D01*
X137885000Y-86995000D01*
X136785750Y-86995000D01*
X136627000Y-87153750D01*
X136623928Y-87618000D01*
X131290582Y-87618000D01*
X131290582Y-86118000D01*
X131284268Y-86053897D01*
X131265570Y-85992257D01*
X131235206Y-85935450D01*
X131194343Y-85885657D01*
X131144550Y-85844794D01*
X131087743Y-85814430D01*
X131026103Y-85795732D01*
X130962000Y-85789418D01*
X129462000Y-85789418D01*
X129397897Y-85795732D01*
X129336257Y-85814430D01*
X129279450Y-85844794D01*
X129229657Y-85885657D01*
X129188794Y-85935450D01*
X129158430Y-85992257D01*
X129139732Y-86053897D01*
X129133418Y-86118000D01*
X129133418Y-87618000D01*
X129139732Y-87682103D01*
X129158430Y-87743743D01*
X129188794Y-87800550D01*
X129229657Y-87850343D01*
X129279450Y-87891206D01*
X129336257Y-87921570D01*
X129397897Y-87940268D01*
X129462000Y-87946582D01*
X129737001Y-87946582D01*
X129737000Y-89266695D01*
X129684870Y-89282508D01*
X129587002Y-89334820D01*
X129501220Y-89405220D01*
X129430820Y-89491002D01*
X129378508Y-89588870D01*
X129363751Y-89637518D01*
X129311667Y-89665357D01*
X129242841Y-89721841D01*
X129228685Y-89739090D01*
X128106777Y-90861000D01*
X128016000Y-90861000D01*
X128016000Y-85598000D01*
X136894667Y-85598000D01*
X136810815Y-85666815D01*
G37*
G04 #@! TD.AperFunction*
D24*
X111543197Y-92418803D02*
X111562443Y-92434597D01*
X111584399Y-92446333D01*
X111608224Y-92453560D01*
X111633000Y-92456000D01*
X114422777Y-92456000D01*
X113802777Y-93076000D01*
X113739582Y-93076000D01*
X113739582Y-93028000D01*
X113733268Y-92963897D01*
X113714570Y-92902257D01*
X113684206Y-92845450D01*
X113643343Y-92795657D01*
X113593550Y-92754794D01*
X113536743Y-92724430D01*
X113475103Y-92705732D01*
X113411000Y-92699418D01*
X110911000Y-92699418D01*
X110846897Y-92705732D01*
X110785257Y-92724430D01*
X110728450Y-92754794D01*
X110678657Y-92795657D01*
X110637794Y-92845450D01*
X110607430Y-92902257D01*
X110588732Y-92963897D01*
X110582418Y-93028000D01*
X110582418Y-94028000D01*
X110588732Y-94092103D01*
X110607430Y-94153743D01*
X110637794Y-94210550D01*
X110678657Y-94260343D01*
X110728450Y-94301206D01*
X110785257Y-94331570D01*
X110846897Y-94350268D01*
X110911000Y-94356582D01*
X113411000Y-94356582D01*
X113475103Y-94350268D01*
X113536743Y-94331570D01*
X113593550Y-94301206D01*
X113643343Y-94260343D01*
X113684206Y-94210550D01*
X113714570Y-94153743D01*
X113733268Y-94092103D01*
X113739582Y-94028000D01*
X113739582Y-93980000D01*
X113967795Y-93980000D01*
X113990000Y-93982187D01*
X114012205Y-93980000D01*
X114078607Y-93973460D01*
X114163810Y-93947614D01*
X114242333Y-93905643D01*
X114311159Y-93849159D01*
X114325323Y-93831900D01*
X115080198Y-93077025D01*
X115094095Y-93146889D01*
X115141360Y-93260996D01*
X115209977Y-93363689D01*
X115297311Y-93451023D01*
X115400004Y-93519640D01*
X115514111Y-93566905D01*
X115635246Y-93591000D01*
X115684777Y-93591000D01*
X116636690Y-94542914D01*
X116650850Y-94560168D01*
X116719676Y-94616652D01*
X116751122Y-94633460D01*
X116798199Y-94658623D01*
X116883401Y-94684469D01*
X116972008Y-94693196D01*
X116994213Y-94691009D01*
X120720376Y-94691009D01*
X123021201Y-96991835D01*
X122957192Y-96972418D01*
X122914111Y-96959349D01*
X122859045Y-96953926D01*
X122829336Y-96951000D01*
X122829331Y-96951000D01*
X122801000Y-96948210D01*
X122772669Y-96951000D01*
X113729356Y-96951000D01*
X113714570Y-96902257D01*
X113684206Y-96845450D01*
X113643343Y-96795657D01*
X113593550Y-96754794D01*
X113536743Y-96724430D01*
X113475103Y-96705732D01*
X113411000Y-96699418D01*
X110911000Y-96699418D01*
X110846897Y-96705732D01*
X110785257Y-96724430D01*
X110728450Y-96754794D01*
X110714908Y-96765907D01*
X108977001Y-95028000D01*
X110582418Y-95028000D01*
X110582418Y-96028000D01*
X110588732Y-96092103D01*
X110607430Y-96153743D01*
X110637794Y-96210550D01*
X110678657Y-96260343D01*
X110728450Y-96301206D01*
X110785257Y-96331570D01*
X110846897Y-96350268D01*
X110911000Y-96356582D01*
X113411000Y-96356582D01*
X113475103Y-96350268D01*
X113536743Y-96331570D01*
X113593550Y-96301206D01*
X113643343Y-96260343D01*
X113684206Y-96210550D01*
X113714570Y-96153743D01*
X113733268Y-96092103D01*
X113739582Y-96028000D01*
X113739582Y-95028000D01*
X113733268Y-94963897D01*
X113714570Y-94902257D01*
X113684206Y-94845450D01*
X113643343Y-94795657D01*
X113593550Y-94754794D01*
X113536743Y-94724430D01*
X113475103Y-94705732D01*
X113411000Y-94699418D01*
X110911000Y-94699418D01*
X110846897Y-94705732D01*
X110785257Y-94724430D01*
X110728450Y-94754794D01*
X110678657Y-94795657D01*
X110637794Y-94845450D01*
X110607430Y-94902257D01*
X110588732Y-94963897D01*
X110582418Y-95028000D01*
X108977001Y-95028000D01*
X108811037Y-94862036D01*
X108792974Y-94840026D01*
X108705115Y-94767921D01*
X108604876Y-94714343D01*
X108575867Y-94705543D01*
X108673000Y-94706072D01*
X108797482Y-94693812D01*
X108917180Y-94657502D01*
X109027494Y-94598537D01*
X109124185Y-94519185D01*
X109203537Y-94422494D01*
X109262502Y-94312180D01*
X109298812Y-94192482D01*
X109311072Y-94068000D01*
X109308000Y-93503750D01*
X109149250Y-93345000D01*
X107950000Y-93345000D01*
X107950000Y-93365000D01*
X107696000Y-93365000D01*
X107696000Y-93345000D01*
X107676000Y-93345000D01*
X107676000Y-93091000D01*
X107696000Y-93091000D01*
X107696000Y-93071000D01*
X107950000Y-93071000D01*
X107950000Y-93091000D01*
X109149250Y-93091000D01*
X109308000Y-92932250D01*
X109310898Y-92400000D01*
X111527767Y-92400000D01*
X111543197Y-92418803D01*
G04 #@! TA.AperFunction,Conductor*
D25*
G36*
X111543197Y-92418803D02*
G01*
X111562443Y-92434597D01*
X111584399Y-92446333D01*
X111608224Y-92453560D01*
X111633000Y-92456000D01*
X114422777Y-92456000D01*
X113802777Y-93076000D01*
X113739582Y-93076000D01*
X113739582Y-93028000D01*
X113733268Y-92963897D01*
X113714570Y-92902257D01*
X113684206Y-92845450D01*
X113643343Y-92795657D01*
X113593550Y-92754794D01*
X113536743Y-92724430D01*
X113475103Y-92705732D01*
X113411000Y-92699418D01*
X110911000Y-92699418D01*
X110846897Y-92705732D01*
X110785257Y-92724430D01*
X110728450Y-92754794D01*
X110678657Y-92795657D01*
X110637794Y-92845450D01*
X110607430Y-92902257D01*
X110588732Y-92963897D01*
X110582418Y-93028000D01*
X110582418Y-94028000D01*
X110588732Y-94092103D01*
X110607430Y-94153743D01*
X110637794Y-94210550D01*
X110678657Y-94260343D01*
X110728450Y-94301206D01*
X110785257Y-94331570D01*
X110846897Y-94350268D01*
X110911000Y-94356582D01*
X113411000Y-94356582D01*
X113475103Y-94350268D01*
X113536743Y-94331570D01*
X113593550Y-94301206D01*
X113643343Y-94260343D01*
X113684206Y-94210550D01*
X113714570Y-94153743D01*
X113733268Y-94092103D01*
X113739582Y-94028000D01*
X113739582Y-93980000D01*
X113967795Y-93980000D01*
X113990000Y-93982187D01*
X114012205Y-93980000D01*
X114078607Y-93973460D01*
X114163810Y-93947614D01*
X114242333Y-93905643D01*
X114311159Y-93849159D01*
X114325323Y-93831900D01*
X115080198Y-93077025D01*
X115094095Y-93146889D01*
X115141360Y-93260996D01*
X115209977Y-93363689D01*
X115297311Y-93451023D01*
X115400004Y-93519640D01*
X115514111Y-93566905D01*
X115635246Y-93591000D01*
X115684777Y-93591000D01*
X116636690Y-94542914D01*
X116650850Y-94560168D01*
X116719676Y-94616652D01*
X116751122Y-94633460D01*
X116798199Y-94658623D01*
X116883401Y-94684469D01*
X116972008Y-94693196D01*
X116994213Y-94691009D01*
X120720376Y-94691009D01*
X123021201Y-96991835D01*
X122957192Y-96972418D01*
X122914111Y-96959349D01*
X122859045Y-96953926D01*
X122829336Y-96951000D01*
X122829331Y-96951000D01*
X122801000Y-96948210D01*
X122772669Y-96951000D01*
X113729356Y-96951000D01*
X113714570Y-96902257D01*
X113684206Y-96845450D01*
X113643343Y-96795657D01*
X113593550Y-96754794D01*
X113536743Y-96724430D01*
X113475103Y-96705732D01*
X113411000Y-96699418D01*
X110911000Y-96699418D01*
X110846897Y-96705732D01*
X110785257Y-96724430D01*
X110728450Y-96754794D01*
X110714908Y-96765907D01*
X108977001Y-95028000D01*
X110582418Y-95028000D01*
X110582418Y-96028000D01*
X110588732Y-96092103D01*
X110607430Y-96153743D01*
X110637794Y-96210550D01*
X110678657Y-96260343D01*
X110728450Y-96301206D01*
X110785257Y-96331570D01*
X110846897Y-96350268D01*
X110911000Y-96356582D01*
X113411000Y-96356582D01*
X113475103Y-96350268D01*
X113536743Y-96331570D01*
X113593550Y-96301206D01*
X113643343Y-96260343D01*
X113684206Y-96210550D01*
X113714570Y-96153743D01*
X113733268Y-96092103D01*
X113739582Y-96028000D01*
X113739582Y-95028000D01*
X113733268Y-94963897D01*
X113714570Y-94902257D01*
X113684206Y-94845450D01*
X113643343Y-94795657D01*
X113593550Y-94754794D01*
X113536743Y-94724430D01*
X113475103Y-94705732D01*
X113411000Y-94699418D01*
X110911000Y-94699418D01*
X110846897Y-94705732D01*
X110785257Y-94724430D01*
X110728450Y-94754794D01*
X110678657Y-94795657D01*
X110637794Y-94845450D01*
X110607430Y-94902257D01*
X110588732Y-94963897D01*
X110582418Y-95028000D01*
X108977001Y-95028000D01*
X108811037Y-94862036D01*
X108792974Y-94840026D01*
X108705115Y-94767921D01*
X108604876Y-94714343D01*
X108575867Y-94705543D01*
X108673000Y-94706072D01*
X108797482Y-94693812D01*
X108917180Y-94657502D01*
X109027494Y-94598537D01*
X109124185Y-94519185D01*
X109203537Y-94422494D01*
X109262502Y-94312180D01*
X109298812Y-94192482D01*
X109311072Y-94068000D01*
X109308000Y-93503750D01*
X109149250Y-93345000D01*
X107950000Y-93345000D01*
X107950000Y-93365000D01*
X107696000Y-93365000D01*
X107696000Y-93345000D01*
X107676000Y-93345000D01*
X107676000Y-93091000D01*
X107696000Y-93091000D01*
X107696000Y-93071000D01*
X107950000Y-93071000D01*
X107950000Y-93091000D01*
X109149250Y-93091000D01*
X109308000Y-92932250D01*
X109310898Y-92400000D01*
X111527767Y-92400000D01*
X111543197Y-92418803D01*
G37*
G04 #@! TD.AperFunction*
M02*
