G04 #@! TF.GenerationSoftware,KiCad,Pcbnew,5.1.9-73d0e3b20d~88~ubuntu20.04.1*
G04 #@! TF.CreationDate,2021-03-27T21:05:45+01:00*
G04 #@! TF.ProjectId,RGB_strip,5247425f-7374-4726-9970-2e6b69636164,rev?*
G04 #@! TF.SameCoordinates,Original*
G04 #@! TF.FileFunction,Copper,L2,Bot*
G04 #@! TF.FilePolarity,Positive*
%FSLAX46Y46*%
G04 Gerber Fmt 4.6, Leading zero omitted, Abs format (unit mm)*
G04 Created by KiCad (PCBNEW 5.1.9-73d0e3b20d~88~ubuntu20.04.1) date 2021-03-27 21:05:45*
%MOMM*%
%LPD*%
G01*
G04 APERTURE LIST*
G04 #@! TA.AperFunction,ComponentPad*
%ADD10O,1.700000X1.700000*%
G04 #@! TD*
G04 #@! TA.AperFunction,ComponentPad*
%ADD11R,1.700000X1.700000*%
G04 #@! TD*
G04 #@! TA.AperFunction,ComponentPad*
%ADD12O,1.800000X4.000000*%
G04 #@! TD*
G04 #@! TA.AperFunction,ComponentPad*
%ADD13O,4.000000X1.800000*%
G04 #@! TD*
G04 #@! TA.AperFunction,ComponentPad*
%ADD14R,4.400000X1.800000*%
G04 #@! TD*
G04 #@! TA.AperFunction,ComponentPad*
%ADD15O,2.200000X1.740000*%
G04 #@! TD*
G04 #@! TA.AperFunction,SMDPad,CuDef*
%ADD16R,0.900000X0.800000*%
G04 #@! TD*
G04 #@! TA.AperFunction,SMDPad,CuDef*
%ADD17R,1.200000X2.200000*%
G04 #@! TD*
G04 #@! TA.AperFunction,SMDPad,CuDef*
%ADD18R,5.800000X6.400000*%
G04 #@! TD*
G04 #@! TA.AperFunction,ViaPad*
%ADD19C,0.600000*%
G04 #@! TD*
G04 #@! TA.AperFunction,Conductor*
%ADD20C,0.250000*%
G04 #@! TD*
G04 #@! TA.AperFunction,Conductor*
%ADD21C,1.000000*%
G04 #@! TD*
G04 #@! TA.AperFunction,Conductor*
%ADD22C,0.500000*%
G04 #@! TD*
G04 #@! TA.AperFunction,Conductor*
%ADD23C,0.254000*%
G04 #@! TD*
G04 #@! TA.AperFunction,Conductor*
%ADD24C,0.100000*%
G04 #@! TD*
G04 APERTURE END LIST*
D10*
X105283000Y-88138000D03*
X107823000Y-88138000D03*
X105283000Y-90678000D03*
X107823000Y-90678000D03*
X105283000Y-93218000D03*
D11*
X107823000Y-93218000D03*
G04 #@! TA.AperFunction,SMDPad,CuDef*
G36*
G01*
X121541250Y-94392000D02*
X121028750Y-94392000D01*
G75*
G02*
X120810000Y-94173250I0J218750D01*
G01*
X120810000Y-93735750D01*
G75*
G02*
X121028750Y-93517000I218750J0D01*
G01*
X121541250Y-93517000D01*
G75*
G02*
X121760000Y-93735750I0J-218750D01*
G01*
X121760000Y-94173250D01*
G75*
G02*
X121541250Y-94392000I-218750J0D01*
G01*
G37*
G04 #@! TD.AperFunction*
G04 #@! TA.AperFunction,SMDPad,CuDef*
G36*
G01*
X121541250Y-95967000D02*
X121028750Y-95967000D01*
G75*
G02*
X120810000Y-95748250I0J218750D01*
G01*
X120810000Y-95310750D01*
G75*
G02*
X121028750Y-95092000I218750J0D01*
G01*
X121541250Y-95092000D01*
G75*
G02*
X121760000Y-95310750I0J-218750D01*
G01*
X121760000Y-95748250D01*
G75*
G02*
X121541250Y-95967000I-218750J0D01*
G01*
G37*
G04 #@! TD.AperFunction*
G04 #@! TA.AperFunction,SMDPad,CuDef*
G36*
G01*
X126113250Y-95967000D02*
X125600750Y-95967000D01*
G75*
G02*
X125382000Y-95748250I0J218750D01*
G01*
X125382000Y-95310750D01*
G75*
G02*
X125600750Y-95092000I218750J0D01*
G01*
X126113250Y-95092000D01*
G75*
G02*
X126332000Y-95310750I0J-218750D01*
G01*
X126332000Y-95748250D01*
G75*
G02*
X126113250Y-95967000I-218750J0D01*
G01*
G37*
G04 #@! TD.AperFunction*
G04 #@! TA.AperFunction,SMDPad,CuDef*
G36*
G01*
X126113250Y-94392000D02*
X125600750Y-94392000D01*
G75*
G02*
X125382000Y-94173250I0J218750D01*
G01*
X125382000Y-93735750D01*
G75*
G02*
X125600750Y-93517000I218750J0D01*
G01*
X126113250Y-93517000D01*
G75*
G02*
X126332000Y-93735750I0J-218750D01*
G01*
X126332000Y-94173250D01*
G75*
G02*
X126113250Y-94392000I-218750J0D01*
G01*
G37*
G04 #@! TD.AperFunction*
D12*
X139166000Y-99520000D03*
D13*
X134366000Y-102320000D03*
D14*
X134366000Y-96520000D03*
G04 #@! TA.AperFunction,ComponentPad*
G36*
G01*
X105702999Y-97301000D02*
X107403001Y-97301000D01*
G75*
G02*
X107653000Y-97550999I0J-249999D01*
G01*
X107653000Y-98791001D01*
G75*
G02*
X107403001Y-99041000I-249999J0D01*
G01*
X105702999Y-99041000D01*
G75*
G02*
X105453000Y-98791001I0J249999D01*
G01*
X105453000Y-97550999D01*
G75*
G02*
X105702999Y-97301000I249999J0D01*
G01*
G37*
G04 #@! TD.AperFunction*
D15*
X106553000Y-100711000D03*
X106553000Y-103251000D03*
X106553000Y-105791000D03*
X106553000Y-108331000D03*
D16*
X116951000Y-93030000D03*
X116951000Y-94930000D03*
X114951000Y-93980000D03*
X116951000Y-97094000D03*
X116951000Y-98994000D03*
X114951000Y-98044000D03*
X114951000Y-102108000D03*
X116951000Y-103058000D03*
X116951000Y-101158000D03*
X114951000Y-106172000D03*
X116951000Y-107122000D03*
X116951000Y-105222000D03*
D17*
X121291000Y-98162000D03*
X125851000Y-98162000D03*
D18*
X123571000Y-104462000D03*
D19*
X117983000Y-96520000D03*
X133223000Y-90043000D03*
X123444000Y-98171000D03*
X115697000Y-92964000D03*
X118745000Y-92583000D03*
X124714000Y-92837000D03*
X125603000Y-92837000D03*
X118110000Y-93489000D03*
X116078000Y-100076000D03*
X117983000Y-101854000D03*
X114173000Y-103124000D03*
D20*
X139166000Y-99139000D02*
X139166000Y-100239000D01*
D21*
X133743000Y-104462000D02*
X134366000Y-103839000D01*
X123571000Y-104462000D02*
X133743000Y-104462000D01*
X118401000Y-94930000D02*
X116951000Y-94930000D01*
X118999000Y-95528000D02*
X118401000Y-94930000D01*
X119671000Y-104462000D02*
X118999000Y-103790000D01*
X123571000Y-104462000D02*
X119671000Y-104462000D01*
X116951000Y-98994000D02*
X117155000Y-98994000D01*
X117155000Y-98994000D02*
X118999000Y-100838000D01*
X118999000Y-103790000D02*
X118999000Y-100838000D01*
X118999000Y-100838000D02*
X118999000Y-95528000D01*
X116951000Y-103058000D02*
X116951000Y-103108000D01*
X118305000Y-104462000D02*
X119671000Y-104462000D01*
X116951000Y-103108000D02*
X118305000Y-104462000D01*
X117001000Y-107122000D02*
X119094000Y-105029000D01*
X116951000Y-107122000D02*
X117001000Y-107122000D01*
D22*
X119136500Y-95528000D02*
X118999000Y-95528000D01*
X120710000Y-93954500D02*
X119136500Y-95528000D01*
X121285000Y-93954500D02*
X120710000Y-93954500D01*
X121285000Y-93954500D02*
X125857000Y-93954500D01*
D21*
X134366000Y-103839000D02*
X134366000Y-102320000D01*
D20*
X139166000Y-100620000D02*
X139166000Y-99520000D01*
D22*
X137466000Y-102320000D02*
X139166000Y-100620000D01*
X134366000Y-102320000D02*
X137466000Y-102320000D01*
D21*
X119104000Y-105029000D02*
X119671000Y-104462000D01*
X119094000Y-105029000D02*
X119104000Y-105029000D01*
D22*
X118306999Y-96220001D02*
X118999000Y-95528000D01*
X118282999Y-96220001D02*
X118306999Y-96220001D01*
X117983000Y-96520000D02*
X118282999Y-96220001D01*
D20*
X125851000Y-95535500D02*
X125857000Y-95529500D01*
D22*
X125851000Y-98162000D02*
X125851000Y-95535500D01*
D20*
X126432000Y-95529500D02*
X131918500Y-90043000D01*
X125857000Y-95529500D02*
X126432000Y-95529500D01*
X131918500Y-90043000D02*
X133223000Y-90043000D01*
D22*
X125851000Y-98162000D02*
X123453000Y-98162000D01*
X123453000Y-98162000D02*
X123444000Y-98171000D01*
X134366000Y-98039000D02*
X132202000Y-100203000D01*
X132202000Y-100203000D02*
X122047000Y-100203000D01*
X121291000Y-99447000D02*
X121291000Y-98162000D01*
X122047000Y-100203000D02*
X121291000Y-99447000D01*
D21*
X121291000Y-95535500D02*
X121285000Y-95529500D01*
D22*
X121291000Y-98162000D02*
X121291000Y-95535500D01*
X134366000Y-98039000D02*
X134366000Y-96520000D01*
D21*
X114901000Y-93980000D02*
X108170000Y-100711000D01*
X108170000Y-100711000D02*
X106553000Y-100711000D01*
X114951000Y-93980000D02*
X114901000Y-93980000D01*
X113501000Y-98044000D02*
X108294000Y-103251000D01*
X108294000Y-103251000D02*
X106553000Y-103251000D01*
X114951000Y-98044000D02*
X113501000Y-98044000D01*
X106553000Y-105791000D02*
X108653000Y-105791000D01*
X112336000Y-102108000D02*
X114951000Y-102108000D01*
X108653000Y-105791000D02*
X112336000Y-102108000D01*
X106553000Y-108331000D02*
X108712000Y-108331000D01*
X110871000Y-106172000D02*
X114951000Y-106172000D01*
X108712000Y-108331000D02*
X110871000Y-106172000D01*
D20*
X110109000Y-92964000D02*
X107823000Y-90678000D01*
X115697000Y-92964000D02*
X110109000Y-92964000D01*
X118745000Y-92583000D02*
X118110000Y-92583000D01*
X118110000Y-92583000D02*
X117602000Y-92075000D01*
X117602000Y-92075000D02*
X110236000Y-92075000D01*
X110236000Y-92075000D02*
X109093000Y-90932000D01*
X109093000Y-90932000D02*
X109093000Y-90043000D01*
X109093000Y-90043000D02*
X108458000Y-89408000D01*
X106553000Y-89408000D02*
X105283000Y-90678000D01*
X108458000Y-89408000D02*
X106553000Y-89408000D01*
X109025081Y-88138000D02*
X107823000Y-88138000D01*
X124714000Y-92837000D02*
X120269000Y-92837000D01*
X120269000Y-92837000D02*
X118491000Y-91567000D01*
X118491000Y-91567000D02*
X110364410Y-91567000D01*
X109543010Y-88655929D02*
X109025081Y-88138000D01*
X110364410Y-91567000D02*
X109543010Y-90745600D01*
X109543010Y-90745600D02*
X109543010Y-88655929D01*
X106132999Y-87288001D02*
X105283000Y-88138000D01*
X106458001Y-86962999D02*
X106132999Y-87288001D01*
X108486490Y-86962999D02*
X106458001Y-86962999D01*
X109993020Y-90559200D02*
X109993019Y-88469528D01*
X110492820Y-91059000D02*
X109993020Y-90559200D01*
X125603000Y-92837000D02*
X125303001Y-92537001D01*
X109993019Y-88469528D02*
X108486490Y-86962999D01*
X118745000Y-91059000D02*
X110492820Y-91059000D01*
X125303001Y-92537001D02*
X125303001Y-92410001D01*
X125303001Y-92410001D02*
X125095000Y-92202000D01*
X125095000Y-92202000D02*
X120523000Y-92202000D01*
X120523000Y-92202000D02*
X118745000Y-91059000D01*
X117651000Y-93030000D02*
X118110000Y-93489000D01*
X116951000Y-93030000D02*
X117651000Y-93030000D01*
X118110000Y-93489000D02*
X118110000Y-93489000D01*
X116078000Y-97917000D02*
X116078000Y-100076000D01*
X116951000Y-97094000D02*
X116901000Y-97094000D01*
X116901000Y-97094000D02*
X116078000Y-97917000D01*
X116951000Y-101158000D02*
X117287000Y-101158000D01*
X117287000Y-101158000D02*
X117983000Y-101854000D01*
X114803000Y-103124000D02*
X114173000Y-103124000D01*
X116951000Y-105222000D02*
X116901000Y-105222000D01*
X116901000Y-105222000D02*
X114803000Y-103124000D01*
D23*
X111506000Y-90607000D02*
X110680044Y-90607000D01*
X110445020Y-90371977D01*
X110445018Y-88491743D01*
X110447206Y-88469528D01*
X110438479Y-88380920D01*
X110412633Y-88295718D01*
X110370661Y-88217195D01*
X110328332Y-88165617D01*
X110314177Y-88148369D01*
X110296929Y-88134214D01*
X108821813Y-86659099D01*
X108807649Y-86641840D01*
X108738823Y-86585356D01*
X108660300Y-86543385D01*
X108575097Y-86517539D01*
X108508695Y-86510999D01*
X108486490Y-86508812D01*
X108464285Y-86510999D01*
X106480205Y-86510999D01*
X106458000Y-86508812D01*
X106369393Y-86517539D01*
X106349563Y-86523555D01*
X106284191Y-86543385D01*
X106205668Y-86585356D01*
X106136842Y-86641840D01*
X106122686Y-86659089D01*
X105829097Y-86952680D01*
X105829087Y-86952688D01*
X105731837Y-87049938D01*
X105626318Y-87006231D01*
X105398924Y-86961000D01*
X105167076Y-86961000D01*
X104939682Y-87006231D01*
X104725481Y-87094956D01*
X104532706Y-87223764D01*
X104368764Y-87387706D01*
X104239956Y-87580481D01*
X104151231Y-87794682D01*
X104106000Y-88022076D01*
X104106000Y-88253924D01*
X104151231Y-88481318D01*
X104239956Y-88695519D01*
X104368764Y-88888294D01*
X104532706Y-89052236D01*
X104725481Y-89181044D01*
X104939682Y-89269769D01*
X105167076Y-89315000D01*
X105398924Y-89315000D01*
X105626318Y-89269769D01*
X105840519Y-89181044D01*
X106033294Y-89052236D01*
X106197236Y-88888294D01*
X106326044Y-88695519D01*
X106414769Y-88481318D01*
X106460000Y-88253924D01*
X106460000Y-88022076D01*
X106414769Y-87794682D01*
X106371062Y-87689163D01*
X106468312Y-87591913D01*
X106468320Y-87591903D01*
X106645225Y-87414999D01*
X106890527Y-87414999D01*
X106779956Y-87580481D01*
X106691231Y-87794682D01*
X106646000Y-88022076D01*
X106646000Y-88253924D01*
X106691231Y-88481318D01*
X106779956Y-88695519D01*
X106908764Y-88888294D01*
X106976470Y-88956000D01*
X106575204Y-88956000D01*
X106552999Y-88953813D01*
X106464392Y-88962540D01*
X106444562Y-88968556D01*
X106379190Y-88988386D01*
X106300667Y-89030357D01*
X106231841Y-89086841D01*
X106217685Y-89104090D01*
X105731837Y-89589939D01*
X105626318Y-89546231D01*
X105398924Y-89501000D01*
X105167076Y-89501000D01*
X104939682Y-89546231D01*
X104725481Y-89634956D01*
X104532706Y-89763764D01*
X104368764Y-89927706D01*
X104239956Y-90120481D01*
X104151231Y-90334682D01*
X104106000Y-90562076D01*
X104106000Y-90793924D01*
X104151231Y-91021318D01*
X104239956Y-91235519D01*
X104368764Y-91428294D01*
X104532706Y-91592236D01*
X104725481Y-91721044D01*
X104939682Y-91809769D01*
X105167076Y-91855000D01*
X105398924Y-91855000D01*
X105626318Y-91809769D01*
X105840519Y-91721044D01*
X106033294Y-91592236D01*
X106197236Y-91428294D01*
X106326044Y-91235519D01*
X106414769Y-91021318D01*
X106460000Y-90793924D01*
X106460000Y-90562076D01*
X106414769Y-90334682D01*
X106371061Y-90229163D01*
X106740225Y-89860000D01*
X106976470Y-89860000D01*
X106908764Y-89927706D01*
X106779956Y-90120481D01*
X106691231Y-90334682D01*
X106646000Y-90562076D01*
X106646000Y-90793924D01*
X106691231Y-91021318D01*
X106779956Y-91235519D01*
X106908764Y-91428294D01*
X107072706Y-91592236D01*
X107265481Y-91721044D01*
X107291110Y-91731660D01*
X106973000Y-91729928D01*
X106848518Y-91742188D01*
X106728820Y-91778498D01*
X106618506Y-91837463D01*
X106521815Y-91916815D01*
X106442463Y-92013506D01*
X106383498Y-92123820D01*
X106347188Y-92243518D01*
X106334928Y-92368000D01*
X106336660Y-92686110D01*
X106326044Y-92660481D01*
X106197236Y-92467706D01*
X106033294Y-92303764D01*
X105840519Y-92174956D01*
X105626318Y-92086231D01*
X105398924Y-92041000D01*
X105167076Y-92041000D01*
X104939682Y-92086231D01*
X104725481Y-92174956D01*
X104532706Y-92303764D01*
X104368764Y-92467706D01*
X104239956Y-92660481D01*
X104151231Y-92874682D01*
X104106000Y-93102076D01*
X104106000Y-93333924D01*
X104151231Y-93561318D01*
X104239956Y-93775519D01*
X104368764Y-93968294D01*
X104532706Y-94132236D01*
X104725481Y-94261044D01*
X104939682Y-94349769D01*
X105167076Y-94395000D01*
X105398924Y-94395000D01*
X105626318Y-94349769D01*
X105840519Y-94261044D01*
X106033294Y-94132236D01*
X106197236Y-93968294D01*
X106326044Y-93775519D01*
X106336660Y-93749890D01*
X106334928Y-94068000D01*
X106347188Y-94192482D01*
X106383498Y-94312180D01*
X106442463Y-94422494D01*
X106521815Y-94519185D01*
X106618506Y-94598537D01*
X106728820Y-94657502D01*
X106848518Y-94693812D01*
X106973000Y-94706072D01*
X107537250Y-94703000D01*
X107696000Y-94544250D01*
X107696000Y-93345000D01*
X107950000Y-93345000D01*
X107950000Y-94544250D01*
X108108750Y-94703000D01*
X108673000Y-94706072D01*
X108797482Y-94693812D01*
X108917180Y-94657502D01*
X109027494Y-94598537D01*
X109124185Y-94519185D01*
X109203537Y-94422494D01*
X109262502Y-94312180D01*
X109298812Y-94192482D01*
X109311072Y-94068000D01*
X109308000Y-93503750D01*
X109149250Y-93345000D01*
X107950000Y-93345000D01*
X107696000Y-93345000D01*
X107676000Y-93345000D01*
X107676000Y-93091000D01*
X107696000Y-93091000D01*
X107696000Y-93071000D01*
X107950000Y-93071000D01*
X107950000Y-93091000D01*
X109149250Y-93091000D01*
X109308000Y-92932250D01*
X109308704Y-92802929D01*
X109773686Y-93267911D01*
X109787841Y-93285159D01*
X109856667Y-93341643D01*
X109935190Y-93383614D01*
X110000562Y-93403444D01*
X110020392Y-93409460D01*
X110108999Y-93418187D01*
X110131204Y-93416000D01*
X114217879Y-93416000D01*
X114197430Y-93454257D01*
X114178732Y-93515897D01*
X114176895Y-93534550D01*
X107827447Y-99884000D01*
X107652790Y-99884000D01*
X107633502Y-99860498D01*
X107451235Y-99710916D01*
X107243288Y-99599766D01*
X107017653Y-99531320D01*
X106841798Y-99514000D01*
X106264202Y-99514000D01*
X106088347Y-99531320D01*
X105862712Y-99599766D01*
X105654765Y-99710916D01*
X105472498Y-99860498D01*
X105322916Y-100042765D01*
X105211766Y-100250712D01*
X105143320Y-100476347D01*
X105120209Y-100711000D01*
X105143320Y-100945653D01*
X105211766Y-101171288D01*
X105322916Y-101379235D01*
X105472498Y-101561502D01*
X105654765Y-101711084D01*
X105862712Y-101822234D01*
X106088347Y-101890680D01*
X106264202Y-101908000D01*
X106841798Y-101908000D01*
X107017653Y-101890680D01*
X107243288Y-101822234D01*
X107451235Y-101711084D01*
X107633502Y-101561502D01*
X107652790Y-101538000D01*
X108129386Y-101538000D01*
X108170000Y-101542000D01*
X108210614Y-101538000D01*
X108210624Y-101538000D01*
X108332120Y-101526034D01*
X108488010Y-101478745D01*
X108631679Y-101401952D01*
X108757606Y-101298606D01*
X108783505Y-101267048D01*
X114720554Y-95330000D01*
X115862928Y-95330000D01*
X115875188Y-95454482D01*
X115911498Y-95574180D01*
X115970463Y-95684494D01*
X116049815Y-95781185D01*
X116146506Y-95860537D01*
X116256820Y-95919502D01*
X116376518Y-95955812D01*
X116501000Y-95968072D01*
X116665250Y-95965000D01*
X116824000Y-95806250D01*
X116824000Y-95057000D01*
X117078000Y-95057000D01*
X117078000Y-95806250D01*
X117236750Y-95965000D01*
X117401000Y-95968072D01*
X117525482Y-95955812D01*
X117645180Y-95919502D01*
X117755494Y-95860537D01*
X117852185Y-95781185D01*
X117931537Y-95684494D01*
X117990502Y-95574180D01*
X118026812Y-95454482D01*
X118039072Y-95330000D01*
X118036000Y-95215750D01*
X117877250Y-95057000D01*
X117078000Y-95057000D01*
X116824000Y-95057000D01*
X116024750Y-95057000D01*
X115866000Y-95215750D01*
X115862928Y-95330000D01*
X114720554Y-95330000D01*
X115341622Y-94708933D01*
X115342279Y-94708582D01*
X115401000Y-94708582D01*
X115465103Y-94702268D01*
X115526743Y-94683570D01*
X115583550Y-94653206D01*
X115633343Y-94612343D01*
X115674206Y-94562550D01*
X115691604Y-94530000D01*
X115862928Y-94530000D01*
X115866000Y-94644250D01*
X116024750Y-94803000D01*
X116824000Y-94803000D01*
X116824000Y-94053750D01*
X116665250Y-93895000D01*
X116501000Y-93891928D01*
X116376518Y-93904188D01*
X116256820Y-93940498D01*
X116146506Y-93999463D01*
X116049815Y-94078815D01*
X115970463Y-94175506D01*
X115911498Y-94285820D01*
X115875188Y-94405518D01*
X115862928Y-94530000D01*
X115691604Y-94530000D01*
X115704570Y-94505743D01*
X115723268Y-94444103D01*
X115729582Y-94380000D01*
X115729582Y-94262285D01*
X115766034Y-94142120D01*
X115782001Y-93980000D01*
X115766034Y-93817880D01*
X115729582Y-93697715D01*
X115729582Y-93591000D01*
X115758754Y-93591000D01*
X115879889Y-93566905D01*
X115993996Y-93519640D01*
X116096689Y-93451023D01*
X116172418Y-93375294D01*
X116172418Y-93430000D01*
X116178732Y-93494103D01*
X116197430Y-93555743D01*
X116227794Y-93612550D01*
X116268657Y-93662343D01*
X116318450Y-93703206D01*
X116375257Y-93733570D01*
X116436897Y-93752268D01*
X116501000Y-93758582D01*
X117401000Y-93758582D01*
X117465103Y-93752268D01*
X117526743Y-93733570D01*
X117531575Y-93730987D01*
X117554360Y-93785996D01*
X117622977Y-93888689D01*
X117708783Y-93974495D01*
X117645180Y-93940498D01*
X117525482Y-93904188D01*
X117401000Y-93891928D01*
X117236750Y-93895000D01*
X117078000Y-94053750D01*
X117078000Y-94803000D01*
X117877250Y-94803000D01*
X118036000Y-94644250D01*
X118039072Y-94530000D01*
X118026812Y-94405518D01*
X117990502Y-94285820D01*
X117931537Y-94175506D01*
X117852185Y-94078815D01*
X117799758Y-94035789D01*
X117813004Y-94044640D01*
X117927111Y-94091905D01*
X118048246Y-94116000D01*
X118171754Y-94116000D01*
X118292889Y-94091905D01*
X118406996Y-94044640D01*
X118509689Y-93976023D01*
X118597023Y-93888689D01*
X118665640Y-93785996D01*
X118712905Y-93671889D01*
X118737000Y-93550754D01*
X118737000Y-93427246D01*
X118712905Y-93306111D01*
X118672183Y-93207799D01*
X118683246Y-93210000D01*
X118806754Y-93210000D01*
X118927889Y-93185905D01*
X119041996Y-93138640D01*
X119144689Y-93070023D01*
X119232023Y-92982689D01*
X119300640Y-92879996D01*
X119347905Y-92765889D01*
X119353365Y-92738439D01*
X119993957Y-93196006D01*
X120016667Y-93214643D01*
X120049716Y-93232308D01*
X120082184Y-93250987D01*
X120088918Y-93253261D01*
X120095190Y-93256614D01*
X120131046Y-93267491D01*
X120166539Y-93279479D01*
X120173590Y-93280396D01*
X120180393Y-93282460D01*
X120216495Y-93286016D01*
X120184188Y-93392518D01*
X120171928Y-93517000D01*
X120175000Y-93668750D01*
X120333750Y-93827500D01*
X121158000Y-93827500D01*
X121158000Y-93807500D01*
X121412000Y-93807500D01*
X121412000Y-93827500D01*
X122236250Y-93827500D01*
X122395000Y-93668750D01*
X122398072Y-93517000D01*
X122385812Y-93392518D01*
X122354410Y-93289000D01*
X124279288Y-93289000D01*
X124314311Y-93324023D01*
X124417004Y-93392640D01*
X124531111Y-93439905D01*
X124652246Y-93464000D01*
X124749148Y-93464000D01*
X124743928Y-93517000D01*
X124747000Y-93668750D01*
X124905750Y-93827500D01*
X125730000Y-93827500D01*
X125730000Y-93807500D01*
X125984000Y-93807500D01*
X125984000Y-93827500D01*
X126808250Y-93827500D01*
X126967000Y-93668750D01*
X126970072Y-93517000D01*
X126957812Y-93392518D01*
X126921502Y-93272820D01*
X126862537Y-93162506D01*
X126783185Y-93065815D01*
X126686494Y-92986463D01*
X126576180Y-92927498D01*
X126456482Y-92891188D01*
X126332000Y-92878928D01*
X126230000Y-92880584D01*
X126230000Y-92775246D01*
X126205905Y-92654111D01*
X126158640Y-92540004D01*
X126090023Y-92437311D01*
X126002689Y-92349977D01*
X125925399Y-92298334D01*
X127887016Y-92328984D01*
X127913776Y-92326560D01*
X127937601Y-92319333D01*
X127959557Y-92307597D01*
X127978803Y-92291803D01*
X127994597Y-92272557D01*
X128006333Y-92250601D01*
X128013560Y-92226776D01*
X128016000Y-92202000D01*
X128016000Y-85598000D01*
X139446000Y-85598000D01*
X139446000Y-96971971D01*
X139293000Y-97049622D01*
X139293000Y-99393000D01*
X139313000Y-99393000D01*
X139313000Y-99647000D01*
X139293000Y-99647000D01*
X139293000Y-101990378D01*
X139446000Y-102068029D01*
X139446000Y-110617450D01*
X103886638Y-110743547D01*
X103898700Y-108331000D01*
X105120209Y-108331000D01*
X105143320Y-108565653D01*
X105211766Y-108791288D01*
X105322916Y-108999235D01*
X105472498Y-109181502D01*
X105654765Y-109331084D01*
X105862712Y-109442234D01*
X106088347Y-109510680D01*
X106264202Y-109528000D01*
X106841798Y-109528000D01*
X107017653Y-109510680D01*
X107243288Y-109442234D01*
X107451235Y-109331084D01*
X107633502Y-109181502D01*
X107652790Y-109158000D01*
X108671386Y-109158000D01*
X108712000Y-109162000D01*
X108752614Y-109158000D01*
X108752624Y-109158000D01*
X108874120Y-109146034D01*
X109030010Y-109098745D01*
X109173679Y-109021952D01*
X109299606Y-108918606D01*
X109325505Y-108887048D01*
X110690553Y-107522000D01*
X115862928Y-107522000D01*
X115875188Y-107646482D01*
X115911498Y-107766180D01*
X115970463Y-107876494D01*
X116049815Y-107973185D01*
X116146506Y-108052537D01*
X116256820Y-108111502D01*
X116376518Y-108147812D01*
X116501000Y-108160072D01*
X116665250Y-108157000D01*
X116824000Y-107998250D01*
X116824000Y-107249000D01*
X117078000Y-107249000D01*
X117078000Y-107998250D01*
X117236750Y-108157000D01*
X117401000Y-108160072D01*
X117525482Y-108147812D01*
X117645180Y-108111502D01*
X117755494Y-108052537D01*
X117852185Y-107973185D01*
X117931537Y-107876494D01*
X117990502Y-107766180D01*
X118022104Y-107662000D01*
X120032928Y-107662000D01*
X120045188Y-107786482D01*
X120081498Y-107906180D01*
X120140463Y-108016494D01*
X120219815Y-108113185D01*
X120316506Y-108192537D01*
X120426820Y-108251502D01*
X120546518Y-108287812D01*
X120671000Y-108300072D01*
X123285250Y-108297000D01*
X123444000Y-108138250D01*
X123444000Y-104589000D01*
X123698000Y-104589000D01*
X123698000Y-108138250D01*
X123856750Y-108297000D01*
X126471000Y-108300072D01*
X126595482Y-108287812D01*
X126715180Y-108251502D01*
X126825494Y-108192537D01*
X126922185Y-108113185D01*
X127001537Y-108016494D01*
X127060502Y-107906180D01*
X127096812Y-107786482D01*
X127109072Y-107662000D01*
X127106000Y-104747750D01*
X126947250Y-104589000D01*
X123698000Y-104589000D01*
X123444000Y-104589000D01*
X120194750Y-104589000D01*
X120036000Y-104747750D01*
X120032928Y-107662000D01*
X118022104Y-107662000D01*
X118026812Y-107646482D01*
X118039072Y-107522000D01*
X118036000Y-107407750D01*
X117877250Y-107249000D01*
X117078000Y-107249000D01*
X116824000Y-107249000D01*
X116024750Y-107249000D01*
X115866000Y-107407750D01*
X115862928Y-107522000D01*
X110690553Y-107522000D01*
X111213554Y-106999000D01*
X114991624Y-106999000D01*
X115113120Y-106987034D01*
X115269010Y-106939745D01*
X115342279Y-106900582D01*
X115401000Y-106900582D01*
X115465103Y-106894268D01*
X115526743Y-106875570D01*
X115583550Y-106845206D01*
X115633343Y-106804343D01*
X115674206Y-106754550D01*
X115691604Y-106722000D01*
X115862928Y-106722000D01*
X115866000Y-106836250D01*
X116024750Y-106995000D01*
X116824000Y-106995000D01*
X116824000Y-106245750D01*
X117078000Y-106245750D01*
X117078000Y-106995000D01*
X117877250Y-106995000D01*
X118036000Y-106836250D01*
X118039072Y-106722000D01*
X118026812Y-106597518D01*
X117990502Y-106477820D01*
X117931537Y-106367506D01*
X117852185Y-106270815D01*
X117755494Y-106191463D01*
X117645180Y-106132498D01*
X117525482Y-106096188D01*
X117401000Y-106083928D01*
X117236750Y-106087000D01*
X117078000Y-106245750D01*
X116824000Y-106245750D01*
X116665250Y-106087000D01*
X116501000Y-106083928D01*
X116376518Y-106096188D01*
X116256820Y-106132498D01*
X116146506Y-106191463D01*
X116049815Y-106270815D01*
X115970463Y-106367506D01*
X115911498Y-106477820D01*
X115875188Y-106597518D01*
X115862928Y-106722000D01*
X115691604Y-106722000D01*
X115704570Y-106697743D01*
X115723268Y-106636103D01*
X115729582Y-106572000D01*
X115729582Y-106454285D01*
X115766034Y-106334120D01*
X115782001Y-106172000D01*
X115766034Y-106009880D01*
X115729582Y-105889715D01*
X115729582Y-105772000D01*
X115723268Y-105707897D01*
X115704570Y-105646257D01*
X115674206Y-105589450D01*
X115633343Y-105539657D01*
X115583550Y-105498794D01*
X115526743Y-105468430D01*
X115465103Y-105449732D01*
X115401000Y-105443418D01*
X115342279Y-105443418D01*
X115269010Y-105404255D01*
X115113120Y-105356966D01*
X114991624Y-105345000D01*
X110911613Y-105345000D01*
X110870999Y-105341000D01*
X110830385Y-105345000D01*
X110830376Y-105345000D01*
X110708880Y-105356966D01*
X110552990Y-105404255D01*
X110486113Y-105440002D01*
X110409320Y-105481048D01*
X110317569Y-105556347D01*
X110283394Y-105584394D01*
X110257499Y-105615947D01*
X108369447Y-107504000D01*
X107652790Y-107504000D01*
X107633502Y-107480498D01*
X107451235Y-107330916D01*
X107243288Y-107219766D01*
X107017653Y-107151320D01*
X106841798Y-107134000D01*
X106264202Y-107134000D01*
X106088347Y-107151320D01*
X105862712Y-107219766D01*
X105654765Y-107330916D01*
X105472498Y-107480498D01*
X105322916Y-107662765D01*
X105211766Y-107870712D01*
X105143320Y-108096347D01*
X105120209Y-108331000D01*
X103898700Y-108331000D01*
X103911400Y-105791000D01*
X105120209Y-105791000D01*
X105143320Y-106025653D01*
X105211766Y-106251288D01*
X105322916Y-106459235D01*
X105472498Y-106641502D01*
X105654765Y-106791084D01*
X105862712Y-106902234D01*
X106088347Y-106970680D01*
X106264202Y-106988000D01*
X106841798Y-106988000D01*
X107017653Y-106970680D01*
X107243288Y-106902234D01*
X107451235Y-106791084D01*
X107633502Y-106641502D01*
X107652790Y-106618000D01*
X108612386Y-106618000D01*
X108653000Y-106622000D01*
X108693614Y-106618000D01*
X108693624Y-106618000D01*
X108815120Y-106606034D01*
X108971010Y-106558745D01*
X109114679Y-106481952D01*
X109240606Y-106378606D01*
X109266505Y-106347048D01*
X112678555Y-102935000D01*
X113572626Y-102935000D01*
X113570095Y-102941111D01*
X113546000Y-103062246D01*
X113546000Y-103185754D01*
X113570095Y-103306889D01*
X113617360Y-103420996D01*
X113685977Y-103523689D01*
X113773311Y-103611023D01*
X113876004Y-103679640D01*
X113990111Y-103726905D01*
X114111246Y-103751000D01*
X114234754Y-103751000D01*
X114355889Y-103726905D01*
X114469996Y-103679640D01*
X114572689Y-103611023D01*
X114607712Y-103576000D01*
X114615777Y-103576000D01*
X116172418Y-105132642D01*
X116172418Y-105622000D01*
X116178732Y-105686103D01*
X116197430Y-105747743D01*
X116227794Y-105804550D01*
X116268657Y-105854343D01*
X116318450Y-105895206D01*
X116375257Y-105925570D01*
X116436897Y-105944268D01*
X116501000Y-105950582D01*
X117401000Y-105950582D01*
X117465103Y-105944268D01*
X117526743Y-105925570D01*
X117583550Y-105895206D01*
X117633343Y-105854343D01*
X117674206Y-105804550D01*
X117704570Y-105747743D01*
X117723268Y-105686103D01*
X117729582Y-105622000D01*
X117729582Y-104822000D01*
X117723268Y-104757897D01*
X117704570Y-104696257D01*
X117674206Y-104639450D01*
X117633343Y-104589657D01*
X117583550Y-104548794D01*
X117526743Y-104518430D01*
X117465103Y-104499732D01*
X117401000Y-104493418D01*
X116811642Y-104493418D01*
X116404823Y-104086600D01*
X116501000Y-104096072D01*
X116665250Y-104093000D01*
X116824000Y-103934250D01*
X116824000Y-103185000D01*
X117078000Y-103185000D01*
X117078000Y-103934250D01*
X117236750Y-104093000D01*
X117401000Y-104096072D01*
X117525482Y-104083812D01*
X117645180Y-104047502D01*
X117755494Y-103988537D01*
X117852185Y-103909185D01*
X117931537Y-103812494D01*
X117990502Y-103702180D01*
X118026812Y-103582482D01*
X118039072Y-103458000D01*
X118036000Y-103343750D01*
X117877250Y-103185000D01*
X117078000Y-103185000D01*
X116824000Y-103185000D01*
X116024750Y-103185000D01*
X115866000Y-103343750D01*
X115862928Y-103458000D01*
X115872400Y-103554177D01*
X115211434Y-102893211D01*
X115269010Y-102875745D01*
X115342279Y-102836582D01*
X115401000Y-102836582D01*
X115465103Y-102830268D01*
X115526743Y-102811570D01*
X115583550Y-102781206D01*
X115633343Y-102740343D01*
X115674206Y-102690550D01*
X115691604Y-102658000D01*
X115862928Y-102658000D01*
X115866000Y-102772250D01*
X116024750Y-102931000D01*
X116824000Y-102931000D01*
X116824000Y-102181750D01*
X116665250Y-102023000D01*
X116501000Y-102019928D01*
X116376518Y-102032188D01*
X116256820Y-102068498D01*
X116146506Y-102127463D01*
X116049815Y-102206815D01*
X115970463Y-102303506D01*
X115911498Y-102413820D01*
X115875188Y-102533518D01*
X115862928Y-102658000D01*
X115691604Y-102658000D01*
X115704570Y-102633743D01*
X115723268Y-102572103D01*
X115729582Y-102508000D01*
X115729582Y-102390285D01*
X115766034Y-102270120D01*
X115782001Y-102108000D01*
X115766034Y-101945880D01*
X115729582Y-101825715D01*
X115729582Y-101708000D01*
X115723268Y-101643897D01*
X115704570Y-101582257D01*
X115674206Y-101525450D01*
X115633343Y-101475657D01*
X115583550Y-101434794D01*
X115526743Y-101404430D01*
X115465103Y-101385732D01*
X115401000Y-101379418D01*
X115342279Y-101379418D01*
X115269010Y-101340255D01*
X115113120Y-101292966D01*
X114991624Y-101281000D01*
X112376614Y-101281000D01*
X112336000Y-101277000D01*
X112295386Y-101281000D01*
X112295376Y-101281000D01*
X112173880Y-101292966D01*
X112070276Y-101324394D01*
X112017989Y-101340255D01*
X111874320Y-101417048D01*
X111779948Y-101494497D01*
X111779941Y-101494504D01*
X111748394Y-101520394D01*
X111722504Y-101551941D01*
X108310447Y-104964000D01*
X107652790Y-104964000D01*
X107633502Y-104940498D01*
X107451235Y-104790916D01*
X107243288Y-104679766D01*
X107017653Y-104611320D01*
X106841798Y-104594000D01*
X106264202Y-104594000D01*
X106088347Y-104611320D01*
X105862712Y-104679766D01*
X105654765Y-104790916D01*
X105472498Y-104940498D01*
X105322916Y-105122765D01*
X105211766Y-105330712D01*
X105143320Y-105556347D01*
X105120209Y-105791000D01*
X103911400Y-105791000D01*
X103924100Y-103251000D01*
X105120209Y-103251000D01*
X105143320Y-103485653D01*
X105211766Y-103711288D01*
X105322916Y-103919235D01*
X105472498Y-104101502D01*
X105654765Y-104251084D01*
X105862712Y-104362234D01*
X106088347Y-104430680D01*
X106264202Y-104448000D01*
X106841798Y-104448000D01*
X107017653Y-104430680D01*
X107243288Y-104362234D01*
X107451235Y-104251084D01*
X107633502Y-104101502D01*
X107652790Y-104078000D01*
X108253386Y-104078000D01*
X108294000Y-104082000D01*
X108334614Y-104078000D01*
X108334624Y-104078000D01*
X108456120Y-104066034D01*
X108612010Y-104018745D01*
X108755679Y-103941952D01*
X108881606Y-103838606D01*
X108907505Y-103807048D01*
X113843554Y-98871000D01*
X114991624Y-98871000D01*
X115113120Y-98859034D01*
X115269010Y-98811745D01*
X115342279Y-98772582D01*
X115401000Y-98772582D01*
X115465103Y-98766268D01*
X115526743Y-98747570D01*
X115583550Y-98717206D01*
X115626000Y-98682369D01*
X115626001Y-99641287D01*
X115590977Y-99676311D01*
X115522360Y-99779004D01*
X115475095Y-99893111D01*
X115451000Y-100014246D01*
X115451000Y-100137754D01*
X115475095Y-100258889D01*
X115522360Y-100372996D01*
X115590977Y-100475689D01*
X115678311Y-100563023D01*
X115781004Y-100631640D01*
X115895111Y-100678905D01*
X116016246Y-100703000D01*
X116139754Y-100703000D01*
X116178596Y-100695274D01*
X116172418Y-100758000D01*
X116172418Y-101558000D01*
X116178732Y-101622103D01*
X116197430Y-101683743D01*
X116227794Y-101740550D01*
X116268657Y-101790343D01*
X116318450Y-101831206D01*
X116375257Y-101861570D01*
X116436897Y-101880268D01*
X116501000Y-101886582D01*
X117356000Y-101886582D01*
X117356000Y-101915754D01*
X117376811Y-102020380D01*
X117236750Y-102023000D01*
X117078000Y-102181750D01*
X117078000Y-102931000D01*
X117877250Y-102931000D01*
X118036000Y-102772250D01*
X118039072Y-102658000D01*
X118026812Y-102533518D01*
X118010881Y-102481000D01*
X118044754Y-102481000D01*
X118165889Y-102456905D01*
X118279996Y-102409640D01*
X118382689Y-102341023D01*
X118470023Y-102253689D01*
X118538640Y-102150996D01*
X118585905Y-102036889D01*
X118610000Y-101915754D01*
X118610000Y-101792246D01*
X118585905Y-101671111D01*
X118538640Y-101557004D01*
X118470023Y-101454311D01*
X118382689Y-101366977D01*
X118279996Y-101298360D01*
X118192216Y-101262000D01*
X120032928Y-101262000D01*
X120036000Y-104176250D01*
X120194750Y-104335000D01*
X123444000Y-104335000D01*
X123444000Y-104315000D01*
X123698000Y-104315000D01*
X123698000Y-104335000D01*
X126947250Y-104335000D01*
X127106000Y-104176250D01*
X127107572Y-102684740D01*
X131774964Y-102684740D01*
X131799245Y-102790087D01*
X131919138Y-103067204D01*
X132090790Y-103315606D01*
X132307604Y-103525748D01*
X132561249Y-103689554D01*
X132841977Y-103800729D01*
X133139000Y-103855000D01*
X134239000Y-103855000D01*
X134239000Y-102447000D01*
X134493000Y-102447000D01*
X134493000Y-103855000D01*
X135593000Y-103855000D01*
X135890023Y-103800729D01*
X136170751Y-103689554D01*
X136424396Y-103525748D01*
X136641210Y-103315606D01*
X136812862Y-103067204D01*
X136932755Y-102790087D01*
X136957036Y-102684740D01*
X136836378Y-102447000D01*
X134493000Y-102447000D01*
X134239000Y-102447000D01*
X131895622Y-102447000D01*
X131774964Y-102684740D01*
X127107572Y-102684740D01*
X127108341Y-101955260D01*
X131774964Y-101955260D01*
X131895622Y-102193000D01*
X134239000Y-102193000D01*
X134239000Y-100785000D01*
X134493000Y-100785000D01*
X134493000Y-102193000D01*
X136836378Y-102193000D01*
X136957036Y-101955260D01*
X136932755Y-101849913D01*
X136812862Y-101572796D01*
X136641210Y-101324394D01*
X136424396Y-101114252D01*
X136170751Y-100950446D01*
X135890023Y-100839271D01*
X135593000Y-100785000D01*
X134493000Y-100785000D01*
X134239000Y-100785000D01*
X133139000Y-100785000D01*
X132841977Y-100839271D01*
X132561249Y-100950446D01*
X132307604Y-101114252D01*
X132090790Y-101324394D01*
X131919138Y-101572796D01*
X131799245Y-101849913D01*
X131774964Y-101955260D01*
X127108341Y-101955260D01*
X127109072Y-101262000D01*
X127096812Y-101137518D01*
X127060502Y-101017820D01*
X127001537Y-100907506D01*
X126922185Y-100810815D01*
X126884637Y-100780000D01*
X132173669Y-100780000D01*
X132202000Y-100782790D01*
X132230331Y-100780000D01*
X132230336Y-100780000D01*
X132260045Y-100777074D01*
X132315111Y-100771651D01*
X132360110Y-100758000D01*
X132423876Y-100738657D01*
X132524115Y-100685079D01*
X132611974Y-100612974D01*
X132630039Y-100590962D01*
X133574001Y-99647000D01*
X137631000Y-99647000D01*
X137631000Y-100747000D01*
X137685271Y-101044023D01*
X137796446Y-101324751D01*
X137960252Y-101578396D01*
X138170394Y-101795210D01*
X138418796Y-101966862D01*
X138695913Y-102086755D01*
X138801260Y-102111036D01*
X139039000Y-101990378D01*
X139039000Y-99647000D01*
X137631000Y-99647000D01*
X133574001Y-99647000D01*
X134753968Y-98467034D01*
X134775974Y-98448974D01*
X134848079Y-98361115D01*
X134884486Y-98293000D01*
X137631000Y-98293000D01*
X137631000Y-99393000D01*
X139039000Y-99393000D01*
X139039000Y-97049622D01*
X138801260Y-96928964D01*
X138695913Y-96953245D01*
X138418796Y-97073138D01*
X138170394Y-97244790D01*
X137960252Y-97461604D01*
X137796446Y-97715249D01*
X137685271Y-97995977D01*
X137631000Y-98293000D01*
X134884486Y-98293000D01*
X134901657Y-98260876D01*
X134934650Y-98152112D01*
X134943000Y-98067336D01*
X134943000Y-98067330D01*
X134945790Y-98039001D01*
X134943000Y-98010672D01*
X134943000Y-97748582D01*
X136566000Y-97748582D01*
X136630103Y-97742268D01*
X136691743Y-97723570D01*
X136748550Y-97693206D01*
X136798343Y-97652343D01*
X136839206Y-97602550D01*
X136869570Y-97545743D01*
X136888268Y-97484103D01*
X136894582Y-97420000D01*
X136894582Y-95620000D01*
X136888268Y-95555897D01*
X136869570Y-95494257D01*
X136839206Y-95437450D01*
X136798343Y-95387657D01*
X136748550Y-95346794D01*
X136691743Y-95316430D01*
X136630103Y-95297732D01*
X136566000Y-95291418D01*
X132166000Y-95291418D01*
X132101897Y-95297732D01*
X132040257Y-95316430D01*
X131983450Y-95346794D01*
X131933657Y-95387657D01*
X131892794Y-95437450D01*
X131862430Y-95494257D01*
X131843732Y-95555897D01*
X131837418Y-95620000D01*
X131837418Y-97420000D01*
X131843732Y-97484103D01*
X131862430Y-97545743D01*
X131892794Y-97602550D01*
X131933657Y-97652343D01*
X131983450Y-97693206D01*
X132040257Y-97723570D01*
X132101897Y-97742268D01*
X132166000Y-97748582D01*
X133789000Y-97748582D01*
X133789000Y-97799998D01*
X131962999Y-99626000D01*
X122286001Y-99626000D01*
X122137317Y-99477316D01*
X122164206Y-99444550D01*
X122194570Y-99387743D01*
X122213268Y-99326103D01*
X122219582Y-99262000D01*
X122219582Y-98109246D01*
X122817000Y-98109246D01*
X122817000Y-98232754D01*
X122841095Y-98353889D01*
X122888360Y-98467996D01*
X122956977Y-98570689D01*
X123044311Y-98658023D01*
X123147004Y-98726640D01*
X123261111Y-98773905D01*
X123382246Y-98798000D01*
X123505754Y-98798000D01*
X123626889Y-98773905D01*
X123711157Y-98739000D01*
X124922418Y-98739000D01*
X124922418Y-99262000D01*
X124928732Y-99326103D01*
X124947430Y-99387743D01*
X124977794Y-99444550D01*
X125018657Y-99494343D01*
X125068450Y-99535206D01*
X125125257Y-99565570D01*
X125186897Y-99584268D01*
X125251000Y-99590582D01*
X126451000Y-99590582D01*
X126515103Y-99584268D01*
X126576743Y-99565570D01*
X126633550Y-99535206D01*
X126683343Y-99494343D01*
X126724206Y-99444550D01*
X126754570Y-99387743D01*
X126773268Y-99326103D01*
X126779582Y-99262000D01*
X126779582Y-97062000D01*
X126773268Y-96997897D01*
X126754570Y-96936257D01*
X126724206Y-96879450D01*
X126683343Y-96829657D01*
X126633550Y-96788794D01*
X126576743Y-96758430D01*
X126515103Y-96739732D01*
X126451000Y-96733418D01*
X126428000Y-96733418D01*
X126428000Y-96194584D01*
X126500272Y-96135272D01*
X126568340Y-96052331D01*
X126618919Y-95957705D01*
X126624566Y-95939089D01*
X126684333Y-95907143D01*
X126753159Y-95850659D01*
X126767323Y-95833400D01*
X132105724Y-90495000D01*
X132788288Y-90495000D01*
X132823311Y-90530023D01*
X132926004Y-90598640D01*
X133040111Y-90645905D01*
X133161246Y-90670000D01*
X133284754Y-90670000D01*
X133405889Y-90645905D01*
X133519996Y-90598640D01*
X133622689Y-90530023D01*
X133710023Y-90442689D01*
X133778640Y-90339996D01*
X133825905Y-90225889D01*
X133850000Y-90104754D01*
X133850000Y-89981246D01*
X133825905Y-89860111D01*
X133778640Y-89746004D01*
X133710023Y-89643311D01*
X133622689Y-89555977D01*
X133519996Y-89487360D01*
X133405889Y-89440095D01*
X133284754Y-89416000D01*
X133161246Y-89416000D01*
X133040111Y-89440095D01*
X132926004Y-89487360D01*
X132823311Y-89555977D01*
X132788288Y-89591000D01*
X131940705Y-89591000D01*
X131918500Y-89588813D01*
X131829892Y-89597540D01*
X131744690Y-89623386D01*
X131666167Y-89665357D01*
X131597341Y-89721841D01*
X131583181Y-89739095D01*
X126969282Y-94352994D01*
X126967000Y-94240250D01*
X126808250Y-94081500D01*
X125984000Y-94081500D01*
X125984000Y-94101500D01*
X125730000Y-94101500D01*
X125730000Y-94081500D01*
X124905750Y-94081500D01*
X124747000Y-94240250D01*
X124743928Y-94392000D01*
X124756188Y-94516482D01*
X124792498Y-94636180D01*
X124851463Y-94746494D01*
X124930815Y-94843185D01*
X125027506Y-94922537D01*
X125137820Y-94981502D01*
X125160634Y-94988423D01*
X125145660Y-95006669D01*
X125095081Y-95101295D01*
X125063935Y-95203971D01*
X125053418Y-95310750D01*
X125053418Y-95748250D01*
X125063935Y-95855029D01*
X125095081Y-95957705D01*
X125145660Y-96052331D01*
X125213728Y-96135272D01*
X125274001Y-96184737D01*
X125274001Y-96733418D01*
X125251000Y-96733418D01*
X125186897Y-96739732D01*
X125125257Y-96758430D01*
X125068450Y-96788794D01*
X125018657Y-96829657D01*
X124977794Y-96879450D01*
X124947430Y-96936257D01*
X124928732Y-96997897D01*
X124922418Y-97062000D01*
X124922418Y-97585000D01*
X123667701Y-97585000D01*
X123626889Y-97568095D01*
X123505754Y-97544000D01*
X123382246Y-97544000D01*
X123261111Y-97568095D01*
X123147004Y-97615360D01*
X123044311Y-97683977D01*
X122956977Y-97771311D01*
X122888360Y-97874004D01*
X122841095Y-97988111D01*
X122817000Y-98109246D01*
X122219582Y-98109246D01*
X122219582Y-97062000D01*
X122213268Y-96997897D01*
X122194570Y-96936257D01*
X122164206Y-96879450D01*
X122123343Y-96829657D01*
X122073550Y-96788794D01*
X122016743Y-96758430D01*
X121955103Y-96739732D01*
X121891000Y-96733418D01*
X121868000Y-96733418D01*
X121868000Y-96184736D01*
X121928272Y-96135272D01*
X121996340Y-96052331D01*
X122046919Y-95957705D01*
X122078065Y-95855029D01*
X122087576Y-95758461D01*
X122106032Y-95697620D01*
X122122000Y-95535499D01*
X122106032Y-95373380D01*
X122088582Y-95315854D01*
X122088582Y-95310750D01*
X122078065Y-95203971D01*
X122046919Y-95101295D01*
X121996340Y-95006669D01*
X121981366Y-94988423D01*
X122004180Y-94981502D01*
X122114494Y-94922537D01*
X122211185Y-94843185D01*
X122290537Y-94746494D01*
X122349502Y-94636180D01*
X122385812Y-94516482D01*
X122398072Y-94392000D01*
X122395000Y-94240250D01*
X122236250Y-94081500D01*
X121412000Y-94081500D01*
X121412000Y-94101500D01*
X121158000Y-94101500D01*
X121158000Y-94081500D01*
X120333750Y-94081500D01*
X120175000Y-94240250D01*
X120171928Y-94392000D01*
X120184188Y-94516482D01*
X120220498Y-94636180D01*
X120279463Y-94746494D01*
X120358815Y-94843185D01*
X120455506Y-94922537D01*
X120565820Y-94981502D01*
X120588634Y-94988423D01*
X120573660Y-95006669D01*
X120523081Y-95101295D01*
X120491935Y-95203971D01*
X120481418Y-95310750D01*
X120481418Y-95329631D01*
X120469967Y-95367380D01*
X120454000Y-95529500D01*
X120469967Y-95691620D01*
X120481418Y-95729369D01*
X120481418Y-95748250D01*
X120491935Y-95855029D01*
X120523081Y-95957705D01*
X120573660Y-96052331D01*
X120641728Y-96135272D01*
X120714001Y-96194585D01*
X120714001Y-96733418D01*
X120691000Y-96733418D01*
X120626897Y-96739732D01*
X120565257Y-96758430D01*
X120508450Y-96788794D01*
X120458657Y-96829657D01*
X120417794Y-96879450D01*
X120387430Y-96936257D01*
X120368732Y-96997897D01*
X120362418Y-97062000D01*
X120362418Y-99262000D01*
X120368732Y-99326103D01*
X120387430Y-99387743D01*
X120417794Y-99444550D01*
X120458657Y-99494343D01*
X120508450Y-99535206D01*
X120565257Y-99565570D01*
X120626897Y-99584268D01*
X120691000Y-99590582D01*
X120731593Y-99590582D01*
X120755343Y-99668875D01*
X120808921Y-99769114D01*
X120881026Y-99856974D01*
X120903038Y-99875039D01*
X121618961Y-100590962D01*
X121637026Y-100612974D01*
X121651778Y-100625081D01*
X120671000Y-100623928D01*
X120546518Y-100636188D01*
X120426820Y-100672498D01*
X120316506Y-100731463D01*
X120219815Y-100810815D01*
X120140463Y-100907506D01*
X120081498Y-101017820D01*
X120045188Y-101137518D01*
X120032928Y-101262000D01*
X118192216Y-101262000D01*
X118165889Y-101251095D01*
X118044754Y-101227000D01*
X117995224Y-101227000D01*
X117729582Y-100961359D01*
X117729582Y-100758000D01*
X117723268Y-100693897D01*
X117704570Y-100632257D01*
X117674206Y-100575450D01*
X117633343Y-100525657D01*
X117583550Y-100484794D01*
X117526743Y-100454430D01*
X117465103Y-100435732D01*
X117401000Y-100429418D01*
X116595940Y-100429418D01*
X116633640Y-100372996D01*
X116680905Y-100258889D01*
X116705000Y-100137754D01*
X116705000Y-100014246D01*
X116700853Y-99993397D01*
X116824000Y-99870250D01*
X116824000Y-99121000D01*
X117078000Y-99121000D01*
X117078000Y-99870250D01*
X117236750Y-100029000D01*
X117401000Y-100032072D01*
X117525482Y-100019812D01*
X117645180Y-99983502D01*
X117755494Y-99924537D01*
X117852185Y-99845185D01*
X117931537Y-99748494D01*
X117990502Y-99638180D01*
X118026812Y-99518482D01*
X118039072Y-99394000D01*
X118036000Y-99279750D01*
X117877250Y-99121000D01*
X117078000Y-99121000D01*
X116824000Y-99121000D01*
X116804000Y-99121000D01*
X116804000Y-98867000D01*
X116824000Y-98867000D01*
X116824000Y-98117750D01*
X117078000Y-98117750D01*
X117078000Y-98867000D01*
X117877250Y-98867000D01*
X118036000Y-98708250D01*
X118039072Y-98594000D01*
X118026812Y-98469518D01*
X117990502Y-98349820D01*
X117931537Y-98239506D01*
X117852185Y-98142815D01*
X117755494Y-98063463D01*
X117645180Y-98004498D01*
X117525482Y-97968188D01*
X117401000Y-97955928D01*
X117236750Y-97959000D01*
X117078000Y-98117750D01*
X116824000Y-98117750D01*
X116670237Y-97963987D01*
X116811642Y-97822582D01*
X117401000Y-97822582D01*
X117465103Y-97816268D01*
X117526743Y-97797570D01*
X117583550Y-97767206D01*
X117633343Y-97726343D01*
X117674206Y-97676550D01*
X117704570Y-97619743D01*
X117723268Y-97558103D01*
X117729582Y-97494000D01*
X117729582Y-96694000D01*
X117723268Y-96629897D01*
X117704570Y-96568257D01*
X117674206Y-96511450D01*
X117633343Y-96461657D01*
X117583550Y-96420794D01*
X117526743Y-96390430D01*
X117465103Y-96371732D01*
X117401000Y-96365418D01*
X116501000Y-96365418D01*
X116436897Y-96371732D01*
X116375257Y-96390430D01*
X116318450Y-96420794D01*
X116268657Y-96461657D01*
X116227794Y-96511450D01*
X116197430Y-96568257D01*
X116178732Y-96629897D01*
X116172418Y-96694000D01*
X116172418Y-97183358D01*
X115774100Y-97581677D01*
X115756841Y-97595841D01*
X115728268Y-97630658D01*
X115723268Y-97579897D01*
X115704570Y-97518257D01*
X115674206Y-97461450D01*
X115633343Y-97411657D01*
X115583550Y-97370794D01*
X115526743Y-97340430D01*
X115465103Y-97321732D01*
X115401000Y-97315418D01*
X115342279Y-97315418D01*
X115269010Y-97276255D01*
X115113120Y-97228966D01*
X114991624Y-97217000D01*
X113541613Y-97217000D01*
X113500999Y-97213000D01*
X113460385Y-97217000D01*
X113460376Y-97217000D01*
X113338880Y-97228966D01*
X113182990Y-97276255D01*
X113116113Y-97312002D01*
X113039320Y-97353048D01*
X112957740Y-97420000D01*
X112913394Y-97456394D01*
X112887499Y-97487947D01*
X107951447Y-102424000D01*
X107652790Y-102424000D01*
X107633502Y-102400498D01*
X107451235Y-102250916D01*
X107243288Y-102139766D01*
X107017653Y-102071320D01*
X106841798Y-102054000D01*
X106264202Y-102054000D01*
X106088347Y-102071320D01*
X105862712Y-102139766D01*
X105654765Y-102250916D01*
X105472498Y-102400498D01*
X105322916Y-102582765D01*
X105211766Y-102790712D01*
X105143320Y-103016347D01*
X105120209Y-103251000D01*
X103924100Y-103251000D01*
X103952600Y-97550999D01*
X105124418Y-97550999D01*
X105124418Y-98791001D01*
X105135535Y-98903877D01*
X105168460Y-99012414D01*
X105221926Y-99112443D01*
X105293880Y-99200120D01*
X105381557Y-99272074D01*
X105481586Y-99325540D01*
X105590123Y-99358465D01*
X105702999Y-99369582D01*
X107403001Y-99369582D01*
X107515877Y-99358465D01*
X107624414Y-99325540D01*
X107724443Y-99272074D01*
X107812120Y-99200120D01*
X107884074Y-99112443D01*
X107937540Y-99012414D01*
X107970465Y-98903877D01*
X107981582Y-98791001D01*
X107981582Y-97550999D01*
X107970465Y-97438123D01*
X107937540Y-97329586D01*
X107884074Y-97229557D01*
X107812120Y-97141880D01*
X107724443Y-97069926D01*
X107624414Y-97016460D01*
X107515877Y-96983535D01*
X107403001Y-96972418D01*
X105702999Y-96972418D01*
X105590123Y-96983535D01*
X105481586Y-97016460D01*
X105381557Y-97069926D01*
X105293880Y-97141880D01*
X105221926Y-97229557D01*
X105168460Y-97329586D01*
X105135535Y-97438123D01*
X105124418Y-97550999D01*
X103952600Y-97550999D01*
X104012366Y-85598000D01*
X111506000Y-85598000D01*
X111506000Y-90607000D01*
G04 #@! TA.AperFunction,Conductor*
D24*
G36*
X111506000Y-90607000D02*
G01*
X110680044Y-90607000D01*
X110445020Y-90371977D01*
X110445018Y-88491743D01*
X110447206Y-88469528D01*
X110438479Y-88380920D01*
X110412633Y-88295718D01*
X110370661Y-88217195D01*
X110328332Y-88165617D01*
X110314177Y-88148369D01*
X110296929Y-88134214D01*
X108821813Y-86659099D01*
X108807649Y-86641840D01*
X108738823Y-86585356D01*
X108660300Y-86543385D01*
X108575097Y-86517539D01*
X108508695Y-86510999D01*
X108486490Y-86508812D01*
X108464285Y-86510999D01*
X106480205Y-86510999D01*
X106458000Y-86508812D01*
X106369393Y-86517539D01*
X106349563Y-86523555D01*
X106284191Y-86543385D01*
X106205668Y-86585356D01*
X106136842Y-86641840D01*
X106122686Y-86659089D01*
X105829097Y-86952680D01*
X105829087Y-86952688D01*
X105731837Y-87049938D01*
X105626318Y-87006231D01*
X105398924Y-86961000D01*
X105167076Y-86961000D01*
X104939682Y-87006231D01*
X104725481Y-87094956D01*
X104532706Y-87223764D01*
X104368764Y-87387706D01*
X104239956Y-87580481D01*
X104151231Y-87794682D01*
X104106000Y-88022076D01*
X104106000Y-88253924D01*
X104151231Y-88481318D01*
X104239956Y-88695519D01*
X104368764Y-88888294D01*
X104532706Y-89052236D01*
X104725481Y-89181044D01*
X104939682Y-89269769D01*
X105167076Y-89315000D01*
X105398924Y-89315000D01*
X105626318Y-89269769D01*
X105840519Y-89181044D01*
X106033294Y-89052236D01*
X106197236Y-88888294D01*
X106326044Y-88695519D01*
X106414769Y-88481318D01*
X106460000Y-88253924D01*
X106460000Y-88022076D01*
X106414769Y-87794682D01*
X106371062Y-87689163D01*
X106468312Y-87591913D01*
X106468320Y-87591903D01*
X106645225Y-87414999D01*
X106890527Y-87414999D01*
X106779956Y-87580481D01*
X106691231Y-87794682D01*
X106646000Y-88022076D01*
X106646000Y-88253924D01*
X106691231Y-88481318D01*
X106779956Y-88695519D01*
X106908764Y-88888294D01*
X106976470Y-88956000D01*
X106575204Y-88956000D01*
X106552999Y-88953813D01*
X106464392Y-88962540D01*
X106444562Y-88968556D01*
X106379190Y-88988386D01*
X106300667Y-89030357D01*
X106231841Y-89086841D01*
X106217685Y-89104090D01*
X105731837Y-89589939D01*
X105626318Y-89546231D01*
X105398924Y-89501000D01*
X105167076Y-89501000D01*
X104939682Y-89546231D01*
X104725481Y-89634956D01*
X104532706Y-89763764D01*
X104368764Y-89927706D01*
X104239956Y-90120481D01*
X104151231Y-90334682D01*
X104106000Y-90562076D01*
X104106000Y-90793924D01*
X104151231Y-91021318D01*
X104239956Y-91235519D01*
X104368764Y-91428294D01*
X104532706Y-91592236D01*
X104725481Y-91721044D01*
X104939682Y-91809769D01*
X105167076Y-91855000D01*
X105398924Y-91855000D01*
X105626318Y-91809769D01*
X105840519Y-91721044D01*
X106033294Y-91592236D01*
X106197236Y-91428294D01*
X106326044Y-91235519D01*
X106414769Y-91021318D01*
X106460000Y-90793924D01*
X106460000Y-90562076D01*
X106414769Y-90334682D01*
X106371061Y-90229163D01*
X106740225Y-89860000D01*
X106976470Y-89860000D01*
X106908764Y-89927706D01*
X106779956Y-90120481D01*
X106691231Y-90334682D01*
X106646000Y-90562076D01*
X106646000Y-90793924D01*
X106691231Y-91021318D01*
X106779956Y-91235519D01*
X106908764Y-91428294D01*
X107072706Y-91592236D01*
X107265481Y-91721044D01*
X107291110Y-91731660D01*
X106973000Y-91729928D01*
X106848518Y-91742188D01*
X106728820Y-91778498D01*
X106618506Y-91837463D01*
X106521815Y-91916815D01*
X106442463Y-92013506D01*
X106383498Y-92123820D01*
X106347188Y-92243518D01*
X106334928Y-92368000D01*
X106336660Y-92686110D01*
X106326044Y-92660481D01*
X106197236Y-92467706D01*
X106033294Y-92303764D01*
X105840519Y-92174956D01*
X105626318Y-92086231D01*
X105398924Y-92041000D01*
X105167076Y-92041000D01*
X104939682Y-92086231D01*
X104725481Y-92174956D01*
X104532706Y-92303764D01*
X104368764Y-92467706D01*
X104239956Y-92660481D01*
X104151231Y-92874682D01*
X104106000Y-93102076D01*
X104106000Y-93333924D01*
X104151231Y-93561318D01*
X104239956Y-93775519D01*
X104368764Y-93968294D01*
X104532706Y-94132236D01*
X104725481Y-94261044D01*
X104939682Y-94349769D01*
X105167076Y-94395000D01*
X105398924Y-94395000D01*
X105626318Y-94349769D01*
X105840519Y-94261044D01*
X106033294Y-94132236D01*
X106197236Y-93968294D01*
X106326044Y-93775519D01*
X106336660Y-93749890D01*
X106334928Y-94068000D01*
X106347188Y-94192482D01*
X106383498Y-94312180D01*
X106442463Y-94422494D01*
X106521815Y-94519185D01*
X106618506Y-94598537D01*
X106728820Y-94657502D01*
X106848518Y-94693812D01*
X106973000Y-94706072D01*
X107537250Y-94703000D01*
X107696000Y-94544250D01*
X107696000Y-93345000D01*
X107950000Y-93345000D01*
X107950000Y-94544250D01*
X108108750Y-94703000D01*
X108673000Y-94706072D01*
X108797482Y-94693812D01*
X108917180Y-94657502D01*
X109027494Y-94598537D01*
X109124185Y-94519185D01*
X109203537Y-94422494D01*
X109262502Y-94312180D01*
X109298812Y-94192482D01*
X109311072Y-94068000D01*
X109308000Y-93503750D01*
X109149250Y-93345000D01*
X107950000Y-93345000D01*
X107696000Y-93345000D01*
X107676000Y-93345000D01*
X107676000Y-93091000D01*
X107696000Y-93091000D01*
X107696000Y-93071000D01*
X107950000Y-93071000D01*
X107950000Y-93091000D01*
X109149250Y-93091000D01*
X109308000Y-92932250D01*
X109308704Y-92802929D01*
X109773686Y-93267911D01*
X109787841Y-93285159D01*
X109856667Y-93341643D01*
X109935190Y-93383614D01*
X110000562Y-93403444D01*
X110020392Y-93409460D01*
X110108999Y-93418187D01*
X110131204Y-93416000D01*
X114217879Y-93416000D01*
X114197430Y-93454257D01*
X114178732Y-93515897D01*
X114176895Y-93534550D01*
X107827447Y-99884000D01*
X107652790Y-99884000D01*
X107633502Y-99860498D01*
X107451235Y-99710916D01*
X107243288Y-99599766D01*
X107017653Y-99531320D01*
X106841798Y-99514000D01*
X106264202Y-99514000D01*
X106088347Y-99531320D01*
X105862712Y-99599766D01*
X105654765Y-99710916D01*
X105472498Y-99860498D01*
X105322916Y-100042765D01*
X105211766Y-100250712D01*
X105143320Y-100476347D01*
X105120209Y-100711000D01*
X105143320Y-100945653D01*
X105211766Y-101171288D01*
X105322916Y-101379235D01*
X105472498Y-101561502D01*
X105654765Y-101711084D01*
X105862712Y-101822234D01*
X106088347Y-101890680D01*
X106264202Y-101908000D01*
X106841798Y-101908000D01*
X107017653Y-101890680D01*
X107243288Y-101822234D01*
X107451235Y-101711084D01*
X107633502Y-101561502D01*
X107652790Y-101538000D01*
X108129386Y-101538000D01*
X108170000Y-101542000D01*
X108210614Y-101538000D01*
X108210624Y-101538000D01*
X108332120Y-101526034D01*
X108488010Y-101478745D01*
X108631679Y-101401952D01*
X108757606Y-101298606D01*
X108783505Y-101267048D01*
X114720554Y-95330000D01*
X115862928Y-95330000D01*
X115875188Y-95454482D01*
X115911498Y-95574180D01*
X115970463Y-95684494D01*
X116049815Y-95781185D01*
X116146506Y-95860537D01*
X116256820Y-95919502D01*
X116376518Y-95955812D01*
X116501000Y-95968072D01*
X116665250Y-95965000D01*
X116824000Y-95806250D01*
X116824000Y-95057000D01*
X117078000Y-95057000D01*
X117078000Y-95806250D01*
X117236750Y-95965000D01*
X117401000Y-95968072D01*
X117525482Y-95955812D01*
X117645180Y-95919502D01*
X117755494Y-95860537D01*
X117852185Y-95781185D01*
X117931537Y-95684494D01*
X117990502Y-95574180D01*
X118026812Y-95454482D01*
X118039072Y-95330000D01*
X118036000Y-95215750D01*
X117877250Y-95057000D01*
X117078000Y-95057000D01*
X116824000Y-95057000D01*
X116024750Y-95057000D01*
X115866000Y-95215750D01*
X115862928Y-95330000D01*
X114720554Y-95330000D01*
X115341622Y-94708933D01*
X115342279Y-94708582D01*
X115401000Y-94708582D01*
X115465103Y-94702268D01*
X115526743Y-94683570D01*
X115583550Y-94653206D01*
X115633343Y-94612343D01*
X115674206Y-94562550D01*
X115691604Y-94530000D01*
X115862928Y-94530000D01*
X115866000Y-94644250D01*
X116024750Y-94803000D01*
X116824000Y-94803000D01*
X116824000Y-94053750D01*
X116665250Y-93895000D01*
X116501000Y-93891928D01*
X116376518Y-93904188D01*
X116256820Y-93940498D01*
X116146506Y-93999463D01*
X116049815Y-94078815D01*
X115970463Y-94175506D01*
X115911498Y-94285820D01*
X115875188Y-94405518D01*
X115862928Y-94530000D01*
X115691604Y-94530000D01*
X115704570Y-94505743D01*
X115723268Y-94444103D01*
X115729582Y-94380000D01*
X115729582Y-94262285D01*
X115766034Y-94142120D01*
X115782001Y-93980000D01*
X115766034Y-93817880D01*
X115729582Y-93697715D01*
X115729582Y-93591000D01*
X115758754Y-93591000D01*
X115879889Y-93566905D01*
X115993996Y-93519640D01*
X116096689Y-93451023D01*
X116172418Y-93375294D01*
X116172418Y-93430000D01*
X116178732Y-93494103D01*
X116197430Y-93555743D01*
X116227794Y-93612550D01*
X116268657Y-93662343D01*
X116318450Y-93703206D01*
X116375257Y-93733570D01*
X116436897Y-93752268D01*
X116501000Y-93758582D01*
X117401000Y-93758582D01*
X117465103Y-93752268D01*
X117526743Y-93733570D01*
X117531575Y-93730987D01*
X117554360Y-93785996D01*
X117622977Y-93888689D01*
X117708783Y-93974495D01*
X117645180Y-93940498D01*
X117525482Y-93904188D01*
X117401000Y-93891928D01*
X117236750Y-93895000D01*
X117078000Y-94053750D01*
X117078000Y-94803000D01*
X117877250Y-94803000D01*
X118036000Y-94644250D01*
X118039072Y-94530000D01*
X118026812Y-94405518D01*
X117990502Y-94285820D01*
X117931537Y-94175506D01*
X117852185Y-94078815D01*
X117799758Y-94035789D01*
X117813004Y-94044640D01*
X117927111Y-94091905D01*
X118048246Y-94116000D01*
X118171754Y-94116000D01*
X118292889Y-94091905D01*
X118406996Y-94044640D01*
X118509689Y-93976023D01*
X118597023Y-93888689D01*
X118665640Y-93785996D01*
X118712905Y-93671889D01*
X118737000Y-93550754D01*
X118737000Y-93427246D01*
X118712905Y-93306111D01*
X118672183Y-93207799D01*
X118683246Y-93210000D01*
X118806754Y-93210000D01*
X118927889Y-93185905D01*
X119041996Y-93138640D01*
X119144689Y-93070023D01*
X119232023Y-92982689D01*
X119300640Y-92879996D01*
X119347905Y-92765889D01*
X119353365Y-92738439D01*
X119993957Y-93196006D01*
X120016667Y-93214643D01*
X120049716Y-93232308D01*
X120082184Y-93250987D01*
X120088918Y-93253261D01*
X120095190Y-93256614D01*
X120131046Y-93267491D01*
X120166539Y-93279479D01*
X120173590Y-93280396D01*
X120180393Y-93282460D01*
X120216495Y-93286016D01*
X120184188Y-93392518D01*
X120171928Y-93517000D01*
X120175000Y-93668750D01*
X120333750Y-93827500D01*
X121158000Y-93827500D01*
X121158000Y-93807500D01*
X121412000Y-93807500D01*
X121412000Y-93827500D01*
X122236250Y-93827500D01*
X122395000Y-93668750D01*
X122398072Y-93517000D01*
X122385812Y-93392518D01*
X122354410Y-93289000D01*
X124279288Y-93289000D01*
X124314311Y-93324023D01*
X124417004Y-93392640D01*
X124531111Y-93439905D01*
X124652246Y-93464000D01*
X124749148Y-93464000D01*
X124743928Y-93517000D01*
X124747000Y-93668750D01*
X124905750Y-93827500D01*
X125730000Y-93827500D01*
X125730000Y-93807500D01*
X125984000Y-93807500D01*
X125984000Y-93827500D01*
X126808250Y-93827500D01*
X126967000Y-93668750D01*
X126970072Y-93517000D01*
X126957812Y-93392518D01*
X126921502Y-93272820D01*
X126862537Y-93162506D01*
X126783185Y-93065815D01*
X126686494Y-92986463D01*
X126576180Y-92927498D01*
X126456482Y-92891188D01*
X126332000Y-92878928D01*
X126230000Y-92880584D01*
X126230000Y-92775246D01*
X126205905Y-92654111D01*
X126158640Y-92540004D01*
X126090023Y-92437311D01*
X126002689Y-92349977D01*
X125925399Y-92298334D01*
X127887016Y-92328984D01*
X127913776Y-92326560D01*
X127937601Y-92319333D01*
X127959557Y-92307597D01*
X127978803Y-92291803D01*
X127994597Y-92272557D01*
X128006333Y-92250601D01*
X128013560Y-92226776D01*
X128016000Y-92202000D01*
X128016000Y-85598000D01*
X139446000Y-85598000D01*
X139446000Y-96971971D01*
X139293000Y-97049622D01*
X139293000Y-99393000D01*
X139313000Y-99393000D01*
X139313000Y-99647000D01*
X139293000Y-99647000D01*
X139293000Y-101990378D01*
X139446000Y-102068029D01*
X139446000Y-110617450D01*
X103886638Y-110743547D01*
X103898700Y-108331000D01*
X105120209Y-108331000D01*
X105143320Y-108565653D01*
X105211766Y-108791288D01*
X105322916Y-108999235D01*
X105472498Y-109181502D01*
X105654765Y-109331084D01*
X105862712Y-109442234D01*
X106088347Y-109510680D01*
X106264202Y-109528000D01*
X106841798Y-109528000D01*
X107017653Y-109510680D01*
X107243288Y-109442234D01*
X107451235Y-109331084D01*
X107633502Y-109181502D01*
X107652790Y-109158000D01*
X108671386Y-109158000D01*
X108712000Y-109162000D01*
X108752614Y-109158000D01*
X108752624Y-109158000D01*
X108874120Y-109146034D01*
X109030010Y-109098745D01*
X109173679Y-109021952D01*
X109299606Y-108918606D01*
X109325505Y-108887048D01*
X110690553Y-107522000D01*
X115862928Y-107522000D01*
X115875188Y-107646482D01*
X115911498Y-107766180D01*
X115970463Y-107876494D01*
X116049815Y-107973185D01*
X116146506Y-108052537D01*
X116256820Y-108111502D01*
X116376518Y-108147812D01*
X116501000Y-108160072D01*
X116665250Y-108157000D01*
X116824000Y-107998250D01*
X116824000Y-107249000D01*
X117078000Y-107249000D01*
X117078000Y-107998250D01*
X117236750Y-108157000D01*
X117401000Y-108160072D01*
X117525482Y-108147812D01*
X117645180Y-108111502D01*
X117755494Y-108052537D01*
X117852185Y-107973185D01*
X117931537Y-107876494D01*
X117990502Y-107766180D01*
X118022104Y-107662000D01*
X120032928Y-107662000D01*
X120045188Y-107786482D01*
X120081498Y-107906180D01*
X120140463Y-108016494D01*
X120219815Y-108113185D01*
X120316506Y-108192537D01*
X120426820Y-108251502D01*
X120546518Y-108287812D01*
X120671000Y-108300072D01*
X123285250Y-108297000D01*
X123444000Y-108138250D01*
X123444000Y-104589000D01*
X123698000Y-104589000D01*
X123698000Y-108138250D01*
X123856750Y-108297000D01*
X126471000Y-108300072D01*
X126595482Y-108287812D01*
X126715180Y-108251502D01*
X126825494Y-108192537D01*
X126922185Y-108113185D01*
X127001537Y-108016494D01*
X127060502Y-107906180D01*
X127096812Y-107786482D01*
X127109072Y-107662000D01*
X127106000Y-104747750D01*
X126947250Y-104589000D01*
X123698000Y-104589000D01*
X123444000Y-104589000D01*
X120194750Y-104589000D01*
X120036000Y-104747750D01*
X120032928Y-107662000D01*
X118022104Y-107662000D01*
X118026812Y-107646482D01*
X118039072Y-107522000D01*
X118036000Y-107407750D01*
X117877250Y-107249000D01*
X117078000Y-107249000D01*
X116824000Y-107249000D01*
X116024750Y-107249000D01*
X115866000Y-107407750D01*
X115862928Y-107522000D01*
X110690553Y-107522000D01*
X111213554Y-106999000D01*
X114991624Y-106999000D01*
X115113120Y-106987034D01*
X115269010Y-106939745D01*
X115342279Y-106900582D01*
X115401000Y-106900582D01*
X115465103Y-106894268D01*
X115526743Y-106875570D01*
X115583550Y-106845206D01*
X115633343Y-106804343D01*
X115674206Y-106754550D01*
X115691604Y-106722000D01*
X115862928Y-106722000D01*
X115866000Y-106836250D01*
X116024750Y-106995000D01*
X116824000Y-106995000D01*
X116824000Y-106245750D01*
X117078000Y-106245750D01*
X117078000Y-106995000D01*
X117877250Y-106995000D01*
X118036000Y-106836250D01*
X118039072Y-106722000D01*
X118026812Y-106597518D01*
X117990502Y-106477820D01*
X117931537Y-106367506D01*
X117852185Y-106270815D01*
X117755494Y-106191463D01*
X117645180Y-106132498D01*
X117525482Y-106096188D01*
X117401000Y-106083928D01*
X117236750Y-106087000D01*
X117078000Y-106245750D01*
X116824000Y-106245750D01*
X116665250Y-106087000D01*
X116501000Y-106083928D01*
X116376518Y-106096188D01*
X116256820Y-106132498D01*
X116146506Y-106191463D01*
X116049815Y-106270815D01*
X115970463Y-106367506D01*
X115911498Y-106477820D01*
X115875188Y-106597518D01*
X115862928Y-106722000D01*
X115691604Y-106722000D01*
X115704570Y-106697743D01*
X115723268Y-106636103D01*
X115729582Y-106572000D01*
X115729582Y-106454285D01*
X115766034Y-106334120D01*
X115782001Y-106172000D01*
X115766034Y-106009880D01*
X115729582Y-105889715D01*
X115729582Y-105772000D01*
X115723268Y-105707897D01*
X115704570Y-105646257D01*
X115674206Y-105589450D01*
X115633343Y-105539657D01*
X115583550Y-105498794D01*
X115526743Y-105468430D01*
X115465103Y-105449732D01*
X115401000Y-105443418D01*
X115342279Y-105443418D01*
X115269010Y-105404255D01*
X115113120Y-105356966D01*
X114991624Y-105345000D01*
X110911613Y-105345000D01*
X110870999Y-105341000D01*
X110830385Y-105345000D01*
X110830376Y-105345000D01*
X110708880Y-105356966D01*
X110552990Y-105404255D01*
X110486113Y-105440002D01*
X110409320Y-105481048D01*
X110317569Y-105556347D01*
X110283394Y-105584394D01*
X110257499Y-105615947D01*
X108369447Y-107504000D01*
X107652790Y-107504000D01*
X107633502Y-107480498D01*
X107451235Y-107330916D01*
X107243288Y-107219766D01*
X107017653Y-107151320D01*
X106841798Y-107134000D01*
X106264202Y-107134000D01*
X106088347Y-107151320D01*
X105862712Y-107219766D01*
X105654765Y-107330916D01*
X105472498Y-107480498D01*
X105322916Y-107662765D01*
X105211766Y-107870712D01*
X105143320Y-108096347D01*
X105120209Y-108331000D01*
X103898700Y-108331000D01*
X103911400Y-105791000D01*
X105120209Y-105791000D01*
X105143320Y-106025653D01*
X105211766Y-106251288D01*
X105322916Y-106459235D01*
X105472498Y-106641502D01*
X105654765Y-106791084D01*
X105862712Y-106902234D01*
X106088347Y-106970680D01*
X106264202Y-106988000D01*
X106841798Y-106988000D01*
X107017653Y-106970680D01*
X107243288Y-106902234D01*
X107451235Y-106791084D01*
X107633502Y-106641502D01*
X107652790Y-106618000D01*
X108612386Y-106618000D01*
X108653000Y-106622000D01*
X108693614Y-106618000D01*
X108693624Y-106618000D01*
X108815120Y-106606034D01*
X108971010Y-106558745D01*
X109114679Y-106481952D01*
X109240606Y-106378606D01*
X109266505Y-106347048D01*
X112678555Y-102935000D01*
X113572626Y-102935000D01*
X113570095Y-102941111D01*
X113546000Y-103062246D01*
X113546000Y-103185754D01*
X113570095Y-103306889D01*
X113617360Y-103420996D01*
X113685977Y-103523689D01*
X113773311Y-103611023D01*
X113876004Y-103679640D01*
X113990111Y-103726905D01*
X114111246Y-103751000D01*
X114234754Y-103751000D01*
X114355889Y-103726905D01*
X114469996Y-103679640D01*
X114572689Y-103611023D01*
X114607712Y-103576000D01*
X114615777Y-103576000D01*
X116172418Y-105132642D01*
X116172418Y-105622000D01*
X116178732Y-105686103D01*
X116197430Y-105747743D01*
X116227794Y-105804550D01*
X116268657Y-105854343D01*
X116318450Y-105895206D01*
X116375257Y-105925570D01*
X116436897Y-105944268D01*
X116501000Y-105950582D01*
X117401000Y-105950582D01*
X117465103Y-105944268D01*
X117526743Y-105925570D01*
X117583550Y-105895206D01*
X117633343Y-105854343D01*
X117674206Y-105804550D01*
X117704570Y-105747743D01*
X117723268Y-105686103D01*
X117729582Y-105622000D01*
X117729582Y-104822000D01*
X117723268Y-104757897D01*
X117704570Y-104696257D01*
X117674206Y-104639450D01*
X117633343Y-104589657D01*
X117583550Y-104548794D01*
X117526743Y-104518430D01*
X117465103Y-104499732D01*
X117401000Y-104493418D01*
X116811642Y-104493418D01*
X116404823Y-104086600D01*
X116501000Y-104096072D01*
X116665250Y-104093000D01*
X116824000Y-103934250D01*
X116824000Y-103185000D01*
X117078000Y-103185000D01*
X117078000Y-103934250D01*
X117236750Y-104093000D01*
X117401000Y-104096072D01*
X117525482Y-104083812D01*
X117645180Y-104047502D01*
X117755494Y-103988537D01*
X117852185Y-103909185D01*
X117931537Y-103812494D01*
X117990502Y-103702180D01*
X118026812Y-103582482D01*
X118039072Y-103458000D01*
X118036000Y-103343750D01*
X117877250Y-103185000D01*
X117078000Y-103185000D01*
X116824000Y-103185000D01*
X116024750Y-103185000D01*
X115866000Y-103343750D01*
X115862928Y-103458000D01*
X115872400Y-103554177D01*
X115211434Y-102893211D01*
X115269010Y-102875745D01*
X115342279Y-102836582D01*
X115401000Y-102836582D01*
X115465103Y-102830268D01*
X115526743Y-102811570D01*
X115583550Y-102781206D01*
X115633343Y-102740343D01*
X115674206Y-102690550D01*
X115691604Y-102658000D01*
X115862928Y-102658000D01*
X115866000Y-102772250D01*
X116024750Y-102931000D01*
X116824000Y-102931000D01*
X116824000Y-102181750D01*
X116665250Y-102023000D01*
X116501000Y-102019928D01*
X116376518Y-102032188D01*
X116256820Y-102068498D01*
X116146506Y-102127463D01*
X116049815Y-102206815D01*
X115970463Y-102303506D01*
X115911498Y-102413820D01*
X115875188Y-102533518D01*
X115862928Y-102658000D01*
X115691604Y-102658000D01*
X115704570Y-102633743D01*
X115723268Y-102572103D01*
X115729582Y-102508000D01*
X115729582Y-102390285D01*
X115766034Y-102270120D01*
X115782001Y-102108000D01*
X115766034Y-101945880D01*
X115729582Y-101825715D01*
X115729582Y-101708000D01*
X115723268Y-101643897D01*
X115704570Y-101582257D01*
X115674206Y-101525450D01*
X115633343Y-101475657D01*
X115583550Y-101434794D01*
X115526743Y-101404430D01*
X115465103Y-101385732D01*
X115401000Y-101379418D01*
X115342279Y-101379418D01*
X115269010Y-101340255D01*
X115113120Y-101292966D01*
X114991624Y-101281000D01*
X112376614Y-101281000D01*
X112336000Y-101277000D01*
X112295386Y-101281000D01*
X112295376Y-101281000D01*
X112173880Y-101292966D01*
X112070276Y-101324394D01*
X112017989Y-101340255D01*
X111874320Y-101417048D01*
X111779948Y-101494497D01*
X111779941Y-101494504D01*
X111748394Y-101520394D01*
X111722504Y-101551941D01*
X108310447Y-104964000D01*
X107652790Y-104964000D01*
X107633502Y-104940498D01*
X107451235Y-104790916D01*
X107243288Y-104679766D01*
X107017653Y-104611320D01*
X106841798Y-104594000D01*
X106264202Y-104594000D01*
X106088347Y-104611320D01*
X105862712Y-104679766D01*
X105654765Y-104790916D01*
X105472498Y-104940498D01*
X105322916Y-105122765D01*
X105211766Y-105330712D01*
X105143320Y-105556347D01*
X105120209Y-105791000D01*
X103911400Y-105791000D01*
X103924100Y-103251000D01*
X105120209Y-103251000D01*
X105143320Y-103485653D01*
X105211766Y-103711288D01*
X105322916Y-103919235D01*
X105472498Y-104101502D01*
X105654765Y-104251084D01*
X105862712Y-104362234D01*
X106088347Y-104430680D01*
X106264202Y-104448000D01*
X106841798Y-104448000D01*
X107017653Y-104430680D01*
X107243288Y-104362234D01*
X107451235Y-104251084D01*
X107633502Y-104101502D01*
X107652790Y-104078000D01*
X108253386Y-104078000D01*
X108294000Y-104082000D01*
X108334614Y-104078000D01*
X108334624Y-104078000D01*
X108456120Y-104066034D01*
X108612010Y-104018745D01*
X108755679Y-103941952D01*
X108881606Y-103838606D01*
X108907505Y-103807048D01*
X113843554Y-98871000D01*
X114991624Y-98871000D01*
X115113120Y-98859034D01*
X115269010Y-98811745D01*
X115342279Y-98772582D01*
X115401000Y-98772582D01*
X115465103Y-98766268D01*
X115526743Y-98747570D01*
X115583550Y-98717206D01*
X115626000Y-98682369D01*
X115626001Y-99641287D01*
X115590977Y-99676311D01*
X115522360Y-99779004D01*
X115475095Y-99893111D01*
X115451000Y-100014246D01*
X115451000Y-100137754D01*
X115475095Y-100258889D01*
X115522360Y-100372996D01*
X115590977Y-100475689D01*
X115678311Y-100563023D01*
X115781004Y-100631640D01*
X115895111Y-100678905D01*
X116016246Y-100703000D01*
X116139754Y-100703000D01*
X116178596Y-100695274D01*
X116172418Y-100758000D01*
X116172418Y-101558000D01*
X116178732Y-101622103D01*
X116197430Y-101683743D01*
X116227794Y-101740550D01*
X116268657Y-101790343D01*
X116318450Y-101831206D01*
X116375257Y-101861570D01*
X116436897Y-101880268D01*
X116501000Y-101886582D01*
X117356000Y-101886582D01*
X117356000Y-101915754D01*
X117376811Y-102020380D01*
X117236750Y-102023000D01*
X117078000Y-102181750D01*
X117078000Y-102931000D01*
X117877250Y-102931000D01*
X118036000Y-102772250D01*
X118039072Y-102658000D01*
X118026812Y-102533518D01*
X118010881Y-102481000D01*
X118044754Y-102481000D01*
X118165889Y-102456905D01*
X118279996Y-102409640D01*
X118382689Y-102341023D01*
X118470023Y-102253689D01*
X118538640Y-102150996D01*
X118585905Y-102036889D01*
X118610000Y-101915754D01*
X118610000Y-101792246D01*
X118585905Y-101671111D01*
X118538640Y-101557004D01*
X118470023Y-101454311D01*
X118382689Y-101366977D01*
X118279996Y-101298360D01*
X118192216Y-101262000D01*
X120032928Y-101262000D01*
X120036000Y-104176250D01*
X120194750Y-104335000D01*
X123444000Y-104335000D01*
X123444000Y-104315000D01*
X123698000Y-104315000D01*
X123698000Y-104335000D01*
X126947250Y-104335000D01*
X127106000Y-104176250D01*
X127107572Y-102684740D01*
X131774964Y-102684740D01*
X131799245Y-102790087D01*
X131919138Y-103067204D01*
X132090790Y-103315606D01*
X132307604Y-103525748D01*
X132561249Y-103689554D01*
X132841977Y-103800729D01*
X133139000Y-103855000D01*
X134239000Y-103855000D01*
X134239000Y-102447000D01*
X134493000Y-102447000D01*
X134493000Y-103855000D01*
X135593000Y-103855000D01*
X135890023Y-103800729D01*
X136170751Y-103689554D01*
X136424396Y-103525748D01*
X136641210Y-103315606D01*
X136812862Y-103067204D01*
X136932755Y-102790087D01*
X136957036Y-102684740D01*
X136836378Y-102447000D01*
X134493000Y-102447000D01*
X134239000Y-102447000D01*
X131895622Y-102447000D01*
X131774964Y-102684740D01*
X127107572Y-102684740D01*
X127108341Y-101955260D01*
X131774964Y-101955260D01*
X131895622Y-102193000D01*
X134239000Y-102193000D01*
X134239000Y-100785000D01*
X134493000Y-100785000D01*
X134493000Y-102193000D01*
X136836378Y-102193000D01*
X136957036Y-101955260D01*
X136932755Y-101849913D01*
X136812862Y-101572796D01*
X136641210Y-101324394D01*
X136424396Y-101114252D01*
X136170751Y-100950446D01*
X135890023Y-100839271D01*
X135593000Y-100785000D01*
X134493000Y-100785000D01*
X134239000Y-100785000D01*
X133139000Y-100785000D01*
X132841977Y-100839271D01*
X132561249Y-100950446D01*
X132307604Y-101114252D01*
X132090790Y-101324394D01*
X131919138Y-101572796D01*
X131799245Y-101849913D01*
X131774964Y-101955260D01*
X127108341Y-101955260D01*
X127109072Y-101262000D01*
X127096812Y-101137518D01*
X127060502Y-101017820D01*
X127001537Y-100907506D01*
X126922185Y-100810815D01*
X126884637Y-100780000D01*
X132173669Y-100780000D01*
X132202000Y-100782790D01*
X132230331Y-100780000D01*
X132230336Y-100780000D01*
X132260045Y-100777074D01*
X132315111Y-100771651D01*
X132360110Y-100758000D01*
X132423876Y-100738657D01*
X132524115Y-100685079D01*
X132611974Y-100612974D01*
X132630039Y-100590962D01*
X133574001Y-99647000D01*
X137631000Y-99647000D01*
X137631000Y-100747000D01*
X137685271Y-101044023D01*
X137796446Y-101324751D01*
X137960252Y-101578396D01*
X138170394Y-101795210D01*
X138418796Y-101966862D01*
X138695913Y-102086755D01*
X138801260Y-102111036D01*
X139039000Y-101990378D01*
X139039000Y-99647000D01*
X137631000Y-99647000D01*
X133574001Y-99647000D01*
X134753968Y-98467034D01*
X134775974Y-98448974D01*
X134848079Y-98361115D01*
X134884486Y-98293000D01*
X137631000Y-98293000D01*
X137631000Y-99393000D01*
X139039000Y-99393000D01*
X139039000Y-97049622D01*
X138801260Y-96928964D01*
X138695913Y-96953245D01*
X138418796Y-97073138D01*
X138170394Y-97244790D01*
X137960252Y-97461604D01*
X137796446Y-97715249D01*
X137685271Y-97995977D01*
X137631000Y-98293000D01*
X134884486Y-98293000D01*
X134901657Y-98260876D01*
X134934650Y-98152112D01*
X134943000Y-98067336D01*
X134943000Y-98067330D01*
X134945790Y-98039001D01*
X134943000Y-98010672D01*
X134943000Y-97748582D01*
X136566000Y-97748582D01*
X136630103Y-97742268D01*
X136691743Y-97723570D01*
X136748550Y-97693206D01*
X136798343Y-97652343D01*
X136839206Y-97602550D01*
X136869570Y-97545743D01*
X136888268Y-97484103D01*
X136894582Y-97420000D01*
X136894582Y-95620000D01*
X136888268Y-95555897D01*
X136869570Y-95494257D01*
X136839206Y-95437450D01*
X136798343Y-95387657D01*
X136748550Y-95346794D01*
X136691743Y-95316430D01*
X136630103Y-95297732D01*
X136566000Y-95291418D01*
X132166000Y-95291418D01*
X132101897Y-95297732D01*
X132040257Y-95316430D01*
X131983450Y-95346794D01*
X131933657Y-95387657D01*
X131892794Y-95437450D01*
X131862430Y-95494257D01*
X131843732Y-95555897D01*
X131837418Y-95620000D01*
X131837418Y-97420000D01*
X131843732Y-97484103D01*
X131862430Y-97545743D01*
X131892794Y-97602550D01*
X131933657Y-97652343D01*
X131983450Y-97693206D01*
X132040257Y-97723570D01*
X132101897Y-97742268D01*
X132166000Y-97748582D01*
X133789000Y-97748582D01*
X133789000Y-97799998D01*
X131962999Y-99626000D01*
X122286001Y-99626000D01*
X122137317Y-99477316D01*
X122164206Y-99444550D01*
X122194570Y-99387743D01*
X122213268Y-99326103D01*
X122219582Y-99262000D01*
X122219582Y-98109246D01*
X122817000Y-98109246D01*
X122817000Y-98232754D01*
X122841095Y-98353889D01*
X122888360Y-98467996D01*
X122956977Y-98570689D01*
X123044311Y-98658023D01*
X123147004Y-98726640D01*
X123261111Y-98773905D01*
X123382246Y-98798000D01*
X123505754Y-98798000D01*
X123626889Y-98773905D01*
X123711157Y-98739000D01*
X124922418Y-98739000D01*
X124922418Y-99262000D01*
X124928732Y-99326103D01*
X124947430Y-99387743D01*
X124977794Y-99444550D01*
X125018657Y-99494343D01*
X125068450Y-99535206D01*
X125125257Y-99565570D01*
X125186897Y-99584268D01*
X125251000Y-99590582D01*
X126451000Y-99590582D01*
X126515103Y-99584268D01*
X126576743Y-99565570D01*
X126633550Y-99535206D01*
X126683343Y-99494343D01*
X126724206Y-99444550D01*
X126754570Y-99387743D01*
X126773268Y-99326103D01*
X126779582Y-99262000D01*
X126779582Y-97062000D01*
X126773268Y-96997897D01*
X126754570Y-96936257D01*
X126724206Y-96879450D01*
X126683343Y-96829657D01*
X126633550Y-96788794D01*
X126576743Y-96758430D01*
X126515103Y-96739732D01*
X126451000Y-96733418D01*
X126428000Y-96733418D01*
X126428000Y-96194584D01*
X126500272Y-96135272D01*
X126568340Y-96052331D01*
X126618919Y-95957705D01*
X126624566Y-95939089D01*
X126684333Y-95907143D01*
X126753159Y-95850659D01*
X126767323Y-95833400D01*
X132105724Y-90495000D01*
X132788288Y-90495000D01*
X132823311Y-90530023D01*
X132926004Y-90598640D01*
X133040111Y-90645905D01*
X133161246Y-90670000D01*
X133284754Y-90670000D01*
X133405889Y-90645905D01*
X133519996Y-90598640D01*
X133622689Y-90530023D01*
X133710023Y-90442689D01*
X133778640Y-90339996D01*
X133825905Y-90225889D01*
X133850000Y-90104754D01*
X133850000Y-89981246D01*
X133825905Y-89860111D01*
X133778640Y-89746004D01*
X133710023Y-89643311D01*
X133622689Y-89555977D01*
X133519996Y-89487360D01*
X133405889Y-89440095D01*
X133284754Y-89416000D01*
X133161246Y-89416000D01*
X133040111Y-89440095D01*
X132926004Y-89487360D01*
X132823311Y-89555977D01*
X132788288Y-89591000D01*
X131940705Y-89591000D01*
X131918500Y-89588813D01*
X131829892Y-89597540D01*
X131744690Y-89623386D01*
X131666167Y-89665357D01*
X131597341Y-89721841D01*
X131583181Y-89739095D01*
X126969282Y-94352994D01*
X126967000Y-94240250D01*
X126808250Y-94081500D01*
X125984000Y-94081500D01*
X125984000Y-94101500D01*
X125730000Y-94101500D01*
X125730000Y-94081500D01*
X124905750Y-94081500D01*
X124747000Y-94240250D01*
X124743928Y-94392000D01*
X124756188Y-94516482D01*
X124792498Y-94636180D01*
X124851463Y-94746494D01*
X124930815Y-94843185D01*
X125027506Y-94922537D01*
X125137820Y-94981502D01*
X125160634Y-94988423D01*
X125145660Y-95006669D01*
X125095081Y-95101295D01*
X125063935Y-95203971D01*
X125053418Y-95310750D01*
X125053418Y-95748250D01*
X125063935Y-95855029D01*
X125095081Y-95957705D01*
X125145660Y-96052331D01*
X125213728Y-96135272D01*
X125274001Y-96184737D01*
X125274001Y-96733418D01*
X125251000Y-96733418D01*
X125186897Y-96739732D01*
X125125257Y-96758430D01*
X125068450Y-96788794D01*
X125018657Y-96829657D01*
X124977794Y-96879450D01*
X124947430Y-96936257D01*
X124928732Y-96997897D01*
X124922418Y-97062000D01*
X124922418Y-97585000D01*
X123667701Y-97585000D01*
X123626889Y-97568095D01*
X123505754Y-97544000D01*
X123382246Y-97544000D01*
X123261111Y-97568095D01*
X123147004Y-97615360D01*
X123044311Y-97683977D01*
X122956977Y-97771311D01*
X122888360Y-97874004D01*
X122841095Y-97988111D01*
X122817000Y-98109246D01*
X122219582Y-98109246D01*
X122219582Y-97062000D01*
X122213268Y-96997897D01*
X122194570Y-96936257D01*
X122164206Y-96879450D01*
X122123343Y-96829657D01*
X122073550Y-96788794D01*
X122016743Y-96758430D01*
X121955103Y-96739732D01*
X121891000Y-96733418D01*
X121868000Y-96733418D01*
X121868000Y-96184736D01*
X121928272Y-96135272D01*
X121996340Y-96052331D01*
X122046919Y-95957705D01*
X122078065Y-95855029D01*
X122087576Y-95758461D01*
X122106032Y-95697620D01*
X122122000Y-95535499D01*
X122106032Y-95373380D01*
X122088582Y-95315854D01*
X122088582Y-95310750D01*
X122078065Y-95203971D01*
X122046919Y-95101295D01*
X121996340Y-95006669D01*
X121981366Y-94988423D01*
X122004180Y-94981502D01*
X122114494Y-94922537D01*
X122211185Y-94843185D01*
X122290537Y-94746494D01*
X122349502Y-94636180D01*
X122385812Y-94516482D01*
X122398072Y-94392000D01*
X122395000Y-94240250D01*
X122236250Y-94081500D01*
X121412000Y-94081500D01*
X121412000Y-94101500D01*
X121158000Y-94101500D01*
X121158000Y-94081500D01*
X120333750Y-94081500D01*
X120175000Y-94240250D01*
X120171928Y-94392000D01*
X120184188Y-94516482D01*
X120220498Y-94636180D01*
X120279463Y-94746494D01*
X120358815Y-94843185D01*
X120455506Y-94922537D01*
X120565820Y-94981502D01*
X120588634Y-94988423D01*
X120573660Y-95006669D01*
X120523081Y-95101295D01*
X120491935Y-95203971D01*
X120481418Y-95310750D01*
X120481418Y-95329631D01*
X120469967Y-95367380D01*
X120454000Y-95529500D01*
X120469967Y-95691620D01*
X120481418Y-95729369D01*
X120481418Y-95748250D01*
X120491935Y-95855029D01*
X120523081Y-95957705D01*
X120573660Y-96052331D01*
X120641728Y-96135272D01*
X120714001Y-96194585D01*
X120714001Y-96733418D01*
X120691000Y-96733418D01*
X120626897Y-96739732D01*
X120565257Y-96758430D01*
X120508450Y-96788794D01*
X120458657Y-96829657D01*
X120417794Y-96879450D01*
X120387430Y-96936257D01*
X120368732Y-96997897D01*
X120362418Y-97062000D01*
X120362418Y-99262000D01*
X120368732Y-99326103D01*
X120387430Y-99387743D01*
X120417794Y-99444550D01*
X120458657Y-99494343D01*
X120508450Y-99535206D01*
X120565257Y-99565570D01*
X120626897Y-99584268D01*
X120691000Y-99590582D01*
X120731593Y-99590582D01*
X120755343Y-99668875D01*
X120808921Y-99769114D01*
X120881026Y-99856974D01*
X120903038Y-99875039D01*
X121618961Y-100590962D01*
X121637026Y-100612974D01*
X121651778Y-100625081D01*
X120671000Y-100623928D01*
X120546518Y-100636188D01*
X120426820Y-100672498D01*
X120316506Y-100731463D01*
X120219815Y-100810815D01*
X120140463Y-100907506D01*
X120081498Y-101017820D01*
X120045188Y-101137518D01*
X120032928Y-101262000D01*
X118192216Y-101262000D01*
X118165889Y-101251095D01*
X118044754Y-101227000D01*
X117995224Y-101227000D01*
X117729582Y-100961359D01*
X117729582Y-100758000D01*
X117723268Y-100693897D01*
X117704570Y-100632257D01*
X117674206Y-100575450D01*
X117633343Y-100525657D01*
X117583550Y-100484794D01*
X117526743Y-100454430D01*
X117465103Y-100435732D01*
X117401000Y-100429418D01*
X116595940Y-100429418D01*
X116633640Y-100372996D01*
X116680905Y-100258889D01*
X116705000Y-100137754D01*
X116705000Y-100014246D01*
X116700853Y-99993397D01*
X116824000Y-99870250D01*
X116824000Y-99121000D01*
X117078000Y-99121000D01*
X117078000Y-99870250D01*
X117236750Y-100029000D01*
X117401000Y-100032072D01*
X117525482Y-100019812D01*
X117645180Y-99983502D01*
X117755494Y-99924537D01*
X117852185Y-99845185D01*
X117931537Y-99748494D01*
X117990502Y-99638180D01*
X118026812Y-99518482D01*
X118039072Y-99394000D01*
X118036000Y-99279750D01*
X117877250Y-99121000D01*
X117078000Y-99121000D01*
X116824000Y-99121000D01*
X116804000Y-99121000D01*
X116804000Y-98867000D01*
X116824000Y-98867000D01*
X116824000Y-98117750D01*
X117078000Y-98117750D01*
X117078000Y-98867000D01*
X117877250Y-98867000D01*
X118036000Y-98708250D01*
X118039072Y-98594000D01*
X118026812Y-98469518D01*
X117990502Y-98349820D01*
X117931537Y-98239506D01*
X117852185Y-98142815D01*
X117755494Y-98063463D01*
X117645180Y-98004498D01*
X117525482Y-97968188D01*
X117401000Y-97955928D01*
X117236750Y-97959000D01*
X117078000Y-98117750D01*
X116824000Y-98117750D01*
X116670237Y-97963987D01*
X116811642Y-97822582D01*
X117401000Y-97822582D01*
X117465103Y-97816268D01*
X117526743Y-97797570D01*
X117583550Y-97767206D01*
X117633343Y-97726343D01*
X117674206Y-97676550D01*
X117704570Y-97619743D01*
X117723268Y-97558103D01*
X117729582Y-97494000D01*
X117729582Y-96694000D01*
X117723268Y-96629897D01*
X117704570Y-96568257D01*
X117674206Y-96511450D01*
X117633343Y-96461657D01*
X117583550Y-96420794D01*
X117526743Y-96390430D01*
X117465103Y-96371732D01*
X117401000Y-96365418D01*
X116501000Y-96365418D01*
X116436897Y-96371732D01*
X116375257Y-96390430D01*
X116318450Y-96420794D01*
X116268657Y-96461657D01*
X116227794Y-96511450D01*
X116197430Y-96568257D01*
X116178732Y-96629897D01*
X116172418Y-96694000D01*
X116172418Y-97183358D01*
X115774100Y-97581677D01*
X115756841Y-97595841D01*
X115728268Y-97630658D01*
X115723268Y-97579897D01*
X115704570Y-97518257D01*
X115674206Y-97461450D01*
X115633343Y-97411657D01*
X115583550Y-97370794D01*
X115526743Y-97340430D01*
X115465103Y-97321732D01*
X115401000Y-97315418D01*
X115342279Y-97315418D01*
X115269010Y-97276255D01*
X115113120Y-97228966D01*
X114991624Y-97217000D01*
X113541613Y-97217000D01*
X113500999Y-97213000D01*
X113460385Y-97217000D01*
X113460376Y-97217000D01*
X113338880Y-97228966D01*
X113182990Y-97276255D01*
X113116113Y-97312002D01*
X113039320Y-97353048D01*
X112957740Y-97420000D01*
X112913394Y-97456394D01*
X112887499Y-97487947D01*
X107951447Y-102424000D01*
X107652790Y-102424000D01*
X107633502Y-102400498D01*
X107451235Y-102250916D01*
X107243288Y-102139766D01*
X107017653Y-102071320D01*
X106841798Y-102054000D01*
X106264202Y-102054000D01*
X106088347Y-102071320D01*
X105862712Y-102139766D01*
X105654765Y-102250916D01*
X105472498Y-102400498D01*
X105322916Y-102582765D01*
X105211766Y-102790712D01*
X105143320Y-103016347D01*
X105120209Y-103251000D01*
X103924100Y-103251000D01*
X103952600Y-97550999D01*
X105124418Y-97550999D01*
X105124418Y-98791001D01*
X105135535Y-98903877D01*
X105168460Y-99012414D01*
X105221926Y-99112443D01*
X105293880Y-99200120D01*
X105381557Y-99272074D01*
X105481586Y-99325540D01*
X105590123Y-99358465D01*
X105702999Y-99369582D01*
X107403001Y-99369582D01*
X107515877Y-99358465D01*
X107624414Y-99325540D01*
X107724443Y-99272074D01*
X107812120Y-99200120D01*
X107884074Y-99112443D01*
X107937540Y-99012414D01*
X107970465Y-98903877D01*
X107981582Y-98791001D01*
X107981582Y-97550999D01*
X107970465Y-97438123D01*
X107937540Y-97329586D01*
X107884074Y-97229557D01*
X107812120Y-97141880D01*
X107724443Y-97069926D01*
X107624414Y-97016460D01*
X107515877Y-96983535D01*
X107403001Y-96972418D01*
X105702999Y-96972418D01*
X105590123Y-96983535D01*
X105481586Y-97016460D01*
X105381557Y-97069926D01*
X105293880Y-97141880D01*
X105221926Y-97229557D01*
X105168460Y-97329586D01*
X105135535Y-97438123D01*
X105124418Y-97550999D01*
X103952600Y-97550999D01*
X104012366Y-85598000D01*
X111506000Y-85598000D01*
X111506000Y-90607000D01*
G37*
G04 #@! TD.AperFunction*
M02*
